STARTFONT 2.1
COMMENT
COMMENT Converted from OpenType font "Manrope-ExtraLight.otf" by "otf2bdf 3.0".
COMMENT
FONT -FreeType-Manrope ExtraLight-Medium-R-Normal--108-780-100-100-P-461-ISO10646-1
SIZE 78 100 100
FONTBOUNDINGBOX 100 134 -2 -28
STARTPROPERTIES 19
FOUNDRY "FreeType"
FAMILY_NAME "Manrope ExtraLight"
WEIGHT_NAME "Medium"
SLANT "R"
SETWIDTH_NAME "Normal"
ADD_STYLE_NAME ""
PIXEL_SIZE 108
POINT_SIZE 780
RESOLUTION_X 100
RESOLUTION_Y 100
SPACING "P"
AVERAGE_WIDTH 461
CHARSET_REGISTRY "ISO10646"
CHARSET_ENCODING "1"
FONT_ASCENT 115
FONT_DESCENT 32
COPYRIGHT "Copyright 2019-2021 The Manrope Project Authors (https://github.com/sharanda/manrope)"
_OTF_FONTFILE "Manrope-ExtraLight.otf"
_OTF_PSNAME "Manrope-ExtraLight"
ENDPROPERTIES
CHARS 191
STARTCHAR 0020
ENCODING 32
SWIDTH 203 0
DWIDTH 22 0
BBX 0 0 0 0
BITMAP
ENDCHAR
STARTCHAR 0021
ENCODING 33
SWIDTH 286 0
DWIDTH 31 0
BBX 5 78 13 0
BITMAP
F8
F8
F8
F8
F8
F8
F8
F8
F8
F8
F8
F8
F8
F8
F8
F8
F8
F8
F8
F8
F8
F8
F8
F8
F8
F8
F8
F8
F8
F8
F8
F8
F8
F8
F8
F8
F8
F8
F8
F8
F8
F8
F8
F8
F8
F8
F8
F8
F8
F8
F8
F8
F8
F8
F8
F8
F8
F8
F8
00
00
00
00
00
00
00
00
00
00
00
00
F8
F8
F8
F8
F8
F8
F8
ENDCHAR
STARTCHAR 0022
ENCODING 34
SWIDTH 341 0
DWIDTH 37 0
BBX 20 20 6 58
BITMAP
F800F0
F800F0
F800F0
F800F0
F800F0
F800F0
F800F0
F800F0
F800F0
F800F0
F800F0
F800F0
F800F0
F800F0
F800F0
F800F0
F800F0
F800F0
F800F0
F800F0
ENDCHAR
STARTCHAR 0023
ENCODING 35
SWIDTH 913 0
DWIDTH 99 0
BBX 85 78 7 0
BITMAP
0000000007C00001F00000
0000000007C00001F00000
0000000007800001E00000
000000000F800003E00000
000000000F800003E00000
000000000F800003E00000
000000000F000003C00000
000000001F000007C00000
000000001F000007C00000
000000001F000007C00000
000000001E000007800000
000000003E00000F800000
000000003E00000F800000
000000003C00000F000000
000000007C00001F000000
000000007C00001F000000
000000007C00001F000000
000000007800001E000000
00000000F800003E000000
00000000F800003E000000
00000000F800003E000000
00000000F000003C000000
00000001F000007C000000
01FFFFFFFFFFFFFFFFFFF8
01FFFFFFFFFFFFFFFFFFF8
01FFFFFFFFFFFFFFFFFFF8
01FFFFFFFFFFFFFFFFFFF8
03FFFFFFFFFFFFFFFFFFF0
00000003C00000F0000000
00000007C00001F0000000
00000007C00001F0000000
00000007C00001F0000000
00000007800001E0000000
0000000F800003E0000000
0000000F800003E0000000
0000000F800003E0000000
0000000F000003C0000000
0000001F000007C0000000
0000001F000007C0000000
0000001E00000780000000
0000001E00000780000000
0000003E00000F80000000
0000003E00000F80000000
0000003C00000F00000000
0000007C00001F00000000
0000007C00001F00000000
0000007C00001F00000000
0000007800001E00000000
7FFFFFFFFFFFFFFFFFFE00
FFFFFFFFFFFFFFFFFFFC00
FFFFFFFFFFFFFFFFFFFC00
FFFFFFFFFFFFFFFFFFFC00
FFFFFFFFFFFFFFFFFFFC00
000001F000007C00000000
000001E000007800000000
000003E00000F800000000
000003E00000F800000000
000003E00000F800000000
000003C00000F000000000
000007C00001F000000000
000007C00001F000000000
000007C00001F000000000
000007800001E000000000
00000F800003E000000000
00000F800003E000000000
00000F800003E000000000
00000F000003C000000000
00001F000007C000000000
00001F000007C000000000
00001E0000078000000000
00003E00000F8000000000
00003E00000F8000000000
00003E00000F8000000000
00003C00000F0000000000
00007C00001F0000000000
00007C00001F0000000000
00007C00001F0000000000
00007800001E0000000000
ENDCHAR
STARTCHAR 0024
ENCODING 36
SWIDTH 563 0
DWIDTH 61 0
BBX 55 100 3 -11
BITMAP
0000007C000000
0000007C000000
0000007C000000
0000007C000000
0000007C000000
0000007C000000
0000007C000000
0000007C000000
0000007C000000
000007FF800000
00007FFFF80000
0001FFFFFF0000
0007FFFFFFC000
001FFFFFFFE000
003FF0001FF800
007F800007FC00
00FF000001FE00
01FC0000007F00
03F80000003F80
03F00000001FC0
07E00000000FC0
07C000000007E0
0FC000000003F0
0F8000000001F0
0F8000000001F0
0F0000000000F8
1F0000000000F8
1F000000000078
1F00000000007C
1F00000000007C
1F00000000003C
1F00000000003C
1F000000000030
0F000000000000
0F800000000000
0F800000000000
0FC00000000000
07E00000000000
07F00000000000
03F80000000000
01FC0000000000
00FF0000000000
007FC000000000
003FF000000000
001FFE00000000
0007FFE0000000
0001FFFC000000
00003FFF800000
000007FFF00000
000000FFFE0000
0000001FFFC000
00000001FFF000
000000003FFC00
0000000007FE00
0000000000FF80
00000000003FC0
00000000001FE0
000000000007F0
000000000003F0
000000000001F8
000000000000F8
0000000000007C
0000000000007C
0000000000003C
0000000000003C
0000000000003E
0000000000003E
0000000000003E
0000000000003E
3800000000003E
F800000000003E
7800000000003E
7C00000000003C
7C00000000003C
3E00000000007C
3E00000000007C
1F00000000007C
1F8000000000F8
0F8000000001F8
07C000000001F0
03E000000003F0
03F800000007E0
01FC0000001FC0
007F0000003F80
003FC00000FF00
001FF80007FE00
0007FFFFFFFC00
0001FFFFFFF000
00003FFFFFC000
000003FFFF0000
0000007FE00000
0000007C000000
0000007C000000
0000007C000000
0000007C000000
0000007C000000
0000007C000000
0000007C000000
0000007C000000
0000007C000000
ENDCHAR
STARTCHAR 0025
ENCODING 37
SWIDTH 904 0
DWIDTH 98 0
BBX 85 82 6 -2
BITMAP
0000FF0000000000000000
0007FFE000000000000000
001FFFF800000000000200
007FFFFE00000000000700
00FFFFFF00000000000F80
01FE007FC0000000001FC0
03F8001FC0000000003F80
07E00007E0000000007F00
0FC00003F000000000FE00
1F800001F800000001FC00
1F000000F800000003F800
3F000000FC00000007F000
3E0000007C0000000FE000
3C0000003C0000001FC000
7C0000003E0000003F8000
7C0000003E0000007F0000
780000001E000000FE0000
780000001E000001FC0000
780000001E000003F80000
F80000001E000007F00000
F80000001E00000FE00000
780000001E00001FC00000
780000001E00003F800000
780000003E00007F000000
7C0000003E0000FE000000
7C0000003E0001FC000000
3E0000007C0003F8000000
3E0000007C0007F0000000
3F000000FC000FE0000000
1F000001F8001FC0000000
0F800003F0003F80000000
0FE00007F0007F00000000
07F0000FE000FE00000000
03FC003FC001FC00000000
01FF00FF8003F800000000
00FFFFFF0007F000000000
003FFFFC000FE000000000
001FFFF8001FC000000000
0003FFC0003F8000000000
00001800007F0000000000
0000000000FE0000000000
0000000001FC0000000000
0000000003F80000C00000
0000000007F0000FFF0000
000000000FE0007FFFC000
000000001FC001FFFFF000
000000003F8003FFFFF800
000000007F0007FC07FE00
00000000FE000FE000FF00
00000001FC001FC0003F80
00000003F8003F00001F80
00000007F0007E00000FC0
0000000FE0007C000007E0
0000001FC000FC000003E0
0000003F8000F8000003F0
0000007F0001F0000001F0
000000FE0001F0000001F0
000001FC0001F0000000F8
000003F80001E0000000F8
000007F00003E0000000F8
00000FE00003E000000078
00001FC00003E000000078
00003F800003E000000078
00007F000003E000000078
0000FE000003E0000000F8
0001FC000003E0000000F8
0003F8000001E0000000F8
0007F0000001F0000000F0
000FE0000001F0000001F0
001FC0000000F8000001F0
003F80000000F8000003E0
007F00000000FC000007E0
00FE000000007E000007C0
01FC000000003F00000FC0
03F8000000003F80003F80
07F0000000001FC0007F00
0FE0000000000FF801FE00
07C00000000007FFFFFC00
07800000000001FFFFF800
03000000000000FFFFE000
000000000000003FFF8000
0000000000000007FC0000
ENDCHAR
STARTCHAR 0026
ENCODING 38
SWIDTH 636 0
DWIDTH 69 0
BBX 63 82 5 -2
BITMAP
000003FF00000000
00003FFFF0000000
0001FFFFFE000000
0003FFFFFF800000
000FFFFFFFC00000
001FF8003FE00000
003FC0000FF00000
007F000003F80000
007E000000FC0000
00FC0000007E0000
01F80000003E0000
01F00000003E0000
03F0000000180000
03E0000000000000
03E0000000000000
03E0000000000000
07C0000000000000
07C0000000000000
07C0000000000000
07C0000000000000
07C0000000000000
07C0000000000000
07C0000000000000
07C0000000000000
03E0000000000000
03E0000000000000
03E0000000000000
01F0000000000000
01F0000000000000
00F8000000000000
00FC000000000000
007E000000000000
003F000000000000
003F800000000000
001FC00000000000
000FE00000000000
0007F00000000000
0003F80000000000
0007FC0000000000
001FFE0000000000
003FFF0000000000
00FFFF8000000000
01FF9FC000000000
03FC0FF000000000
07F803F800007C00
07E001FC00007C00
0FC000FE00007C00
1F80007F00007C00
1F00003F80007C00
3F00001FC0007C00
3E00000FE0007C00
3E000007F0007C00
7C000003F8007C00
7C000001FC007C00
7C000000FE007C00
7C0000007F007C00
780000001F807C00
F80000000FC07C00
F800000007F07C00
F800000003F87C00
F800000001FC7C00
7800000000FE7C00
7C000000007F7C00
7C000000003FF800
7C000000001FF800
7C000000000FF800
3E0000000007F800
3E0000000001F800
3F0000000001FC00
1F0000000003FE00
1F8000000007FF00
0FC00000000FFF80
07E00000001FCFC0
07F00000003F87F0
03FC000000FF03F8
01FF000001FE01FC
00FFE0000FFC00FE
003FFFFFFFF8007C
001FFFFFFFE00038
0003FFFFFF800010
0000FFFFFE000000
000007FFE0000000
ENDCHAR
STARTCHAR 0027
ENCODING 39
SWIDTH 184 0
DWIDTH 20 0
BBX 5 20 6 58
BITMAP
F8
F8
F8
F8
F8
F8
F8
F8
F8
F8
F8
F8
F8
F8
F8
F8
F8
F8
F8
F8
ENDCHAR
STARTCHAR 0028
ENCODING 40
SWIDTH 406 0
DWIDTH 44 0
BBX 24 108 15 -19
BITMAP
00000C
00000E
00001F
00003F
00007E
0000FC
0000F8
0001F8
0003F0
0003E0
0007C0
000FC0
000F80
001F80
001F00
003E00
003E00
007C00
007C00
00F800
00F800
01F000
01F000
03E000
03E000
03C000
07C000
07C000
078000
0F8000
0F8000
0F0000
1F0000
1F0000
1E0000
3E0000
3E0000
3C0000
3C0000
3C0000
7C0000
7C0000
780000
780000
780000
780000
780000
F80000
F80000
F80000
F80000
F80000
F80000
F80000
F80000
F80000
F80000
F80000
F80000
F80000
F80000
F80000
780000
780000
780000
780000
7C0000
7C0000
7C0000
3C0000
3C0000
3E0000
3E0000
3E0000
1E0000
1F0000
1F0000
0F0000
0F8000
0F8000
078000
07C000
07C000
03E000
03E000
03E000
01F000
01F000
00F800
00F800
007C00
007C00
003E00
003E00
001F00
001F80
000F80
0007C0
0007E0
0003E0
0001F0
0001F8
0000FC
00007C
00007E
00003F
00001F
00000C
ENDCHAR
STARTCHAR 0029
ENCODING 41
SWIDTH 406 0
DWIDTH 44 0
BBX 24 108 5 -19
BITMAP
100000
700000
F80000
FC0000
7E0000
3F0000
1F0000
0F8000
0FC000
07C000
03E000
03F000
01F000
00F800
00F800
007C00
007C00
003E00
003E00
001F00
001F00
000F80
000F80
0007C0
0007C0
0003E0
0003E0
0001E0
0001F0
0001F0
0000F0
0000F8
0000F8
000078
000078
00007C
00007C
00003C
00003C
00003E
00003E
00003E
00001E
00001E
00001E
00001E
00001F
00001F
00001F
00001F
00000F
00000F
00000F
00000F
00000F
00000F
00000F
00000F
00000F
00001F
00001F
00001F
00001F
00001E
00001E
00001E
00001E
00003E
00003E
00003E
00003C
00003C
00007C
00007C
000078
0000F8
0000F8
0000F8
0001F0
0001F0
0001F0
0003E0
0003E0
0003C0
0007C0
0007C0
000F80
000F80
001F00
001F00
003E00
003E00
007C00
007C00
00F800
01F800
01F000
03F000
07E000
07C000
0FC000
1F8000
1F0000
3E0000
7E0000
FC0000
780000
300000
ENDCHAR
STARTCHAR 002A
ENCODING 42
SWIDTH 415 0
DWIDTH 45 0
BBX 36 34 3 44
BITMAP
0000F00000
0000F00000
0000F00000
0000F00000
0000F00000
0000F00000
0000F00000
0000F00000
0000F00000
0000F00000
2000F00040
7C00F003E0
7F80F01FE0
7FF0F0FFE0
FFFEF7FFF0
1FFFFFFF80
03FFFFFC00
003FFFC000
0007FE0000
0003FC0000
0007FE0000
000FFE0000
000F9F0000
001F9F8000
003F0FC000
003E07C000
007E07E000
00FC03F000
01F801F800
01F000F800
03F000FC00
03E0007C00
00C0003000
0000002000
ENDCHAR
STARTCHAR 002B
ENCODING 43
SWIDTH 581 0
DWIDTH 63 0
BBX 50 50 6 14
BITMAP
000001F0000000
000001F0000000
000001F0000000
000001F0000000
000001F0000000
000001F0000000
000001F0000000
000001F0000000
000001F0000000
000001F0000000
000001F0000000
000001F0000000
000001F0000000
000001F0000000
000001F0000000
000001F0000000
000001F0000000
000001F0000000
000001F0000000
000001F0000000
000001F0000000
000001F0000000
FFFFFFFFFFFFC0
FFFFFFFFFFFFC0
FFFFFFFFFFFFC0
FFFFFFFFFFFFC0
FFFFFFFFFFFFC0
000001F0000000
000001F0000000
000001F0000000
000001F0000000
000001F0000000
000001F0000000
000001F0000000
000001F0000000
000001F0000000
000001F0000000
000001F0000000
000001F0000000
000001F0000000
000001F0000000
000001F0000000
000001F0000000
000001F0000000
000001F0000000
000001F0000000
000001F0000000
000001F0000000
000001F0000000
000001F0000000
ENDCHAR
STARTCHAR 002C
ENCODING 44
SWIDTH 240 0
DWIDTH 26 0
BBX 7 20 6 -11
BITMAP
FE
FE
FE
FE
FE
FE
FE
FE
FE
FE
0E
0E
0E
0E
0E
0E
1C
7C
78
70
ENDCHAR
STARTCHAR 002D
ENCODING 45
SWIDTH 424 0
DWIDTH 46 0
BBX 33 5 6 32
BITMAP
FFFFFFFF80
FFFFFFFF80
FFFFFFFF80
FFFFFFFF80
FFFFFFFF80
ENDCHAR
STARTCHAR 002E
ENCODING 46
SWIDTH 221 0
DWIDTH 24 0
BBX 6 7 9 0
BITMAP
FC
FC
FC
FC
FC
FC
FC
ENDCHAR
STARTCHAR 002F
ENCODING 47
SWIDTH 360 0
DWIDTH 39 0
BBX 25 78 7 0
BITMAP
00000F80
00000F80
00000F80
00001F00
00001F00
00001F00
00001E00
00003E00
00003E00
00003E00
00007C00
00007C00
00007C00
00007C00
0000F800
0000F800
0000F800
0000F800
0001F000
0001F000
0001F000
0001E000
0003E000
0003E000
0003E000
0007C000
0007C000
0007C000
0007C000
000F8000
000F8000
000F8000
000F8000
001F0000
001F0000
001F0000
001E0000
003E0000
003E0000
003E0000
007C0000
007C0000
007C0000
007C0000
00F80000
00F80000
00F80000
00F80000
01F00000
01F00000
01F00000
01E00000
03E00000
03E00000
03E00000
07C00000
07C00000
07C00000
07C00000
0F800000
0F800000
0F800000
0F800000
1F000000
1F000000
1F000000
1E000000
3E000000
3E000000
3E000000
7C000000
7C000000
7C000000
7C000000
F8000000
F8000000
F8000000
F8000000
ENDCHAR
STARTCHAR 0030
ENCODING 48
SWIDTH 581 0
DWIDTH 63 0
BBX 47 82 8 -2
BITMAP
00003FF00000
0001FFFE0000
0007FFFFC000
001FFFFFF000
007FFFFFF800
00FFC007FC00
01FE0000FE00
03F800007F00
07F000001F80
0FE000000FC0
0FC0000007E0
1F80000003F0
3F00000001F0
3E00000001F8
7E00000000F8
7C0000000078
7C000000007C
F8000000007C
F8000000003C
F8000000003E
F0000000003E
F0000000003E
F0000000003E
F0000000003E
F0000000003E
F0000000003E
F0000000003E
F0000000003E
F0000000003E
F0000000003E
F0000000003E
F0000000003E
F0000000003E
F0000000003E
F0000000003E
F0000000003E
F0000000003E
F0000000003E
F0000000003E
F0000000003E
F0000000003E
F0000000003E
F0000000003E
F0000000003E
F0000000003E
F0000000003E
F0000000003E
F0000000003E
F0000000003E
F0000000003E
F0000000003E
F0000000003E
F0000000003E
F0000000003E
F0000000003E
F0000000003E
F0000000003E
F0000000003E
F0000000003E
F0000000003E
F0000000003E
F0000000003E
F8000000003E
F8000000003C
F8000000007C
7C000000007C
7C0000000078
7E00000000F8
3E00000001F8
3F00000001F0
1F80000003F0
0FC0000007E0
0FE000000FC0
07F000001F80
03F800007F80
01FE0000FF00
00FF8007FC00
003FFFFFF800
001FFFFFF000
0007FFFFC000
0001FFFF0000
00003FF00000
ENDCHAR
STARTCHAR 0031
ENCODING 49
SWIDTH 360 0
DWIDTH 39 0
BBX 20 78 6 0
BITMAP
0003F0
0007F0
001FF0
007FF0
00FFF0
03FFF0
0FF9F0
1FF1F0
7FC1F0
FF01F0
FE01F0
F801F0
E001F0
C001F0
0001F0
0001F0
0001F0
0001F0
0001F0
0001F0
0001F0
0001F0
0001F0
0001F0
0001F0
0001F0
0001F0
0001F0
0001F0
0001F0
0001F0
0001F0
0001F0
0001F0
0001F0
0001F0
0001F0
0001F0
0001F0
0001F0
0001F0
0001F0
0001F0
0001F0
0001F0
0001F0
0001F0
0001F0
0001F0
0001F0
0001F0
0001F0
0001F0
0001F0
0001F0
0001F0
0001F0
0001F0
0001F0
0001F0
0001F0
0001F0
0001F0
0001F0
0001F0
0001F0
0001F0
0001F0
0001F0
0001F0
0001F0
0001F0
0001F0
0001F0
0001F0
0001F0
0001F0
0001F0
ENDCHAR
STARTCHAR 0032
ENCODING 50
SWIDTH 553 0
DWIDTH 60 0
BBX 49 80 5 0
BITMAP
00000FFC000000
00007FFFC00000
0001FFFFF00000
0007FFFFFC0000
001FFFFFFE0000
003FE001FF8000
007F80003FC000
00FE00000FE000
01FC000007F000
03F0000003F800
07E0000001F800
07C0000000FC00
0FC00000007C00
0F800000003E00
1F000000003E00
1F000000001F00
3E000000001F00
3E000000000F80
3E000000000F80
3C000000000F80
7C000000000780
7C000000000780
7C000000000780
7C000000000780
00000000000780
00000000000780
00000000000780
00000000000780
00000000000780
00000000000780
00000000000F80
00000000000F80
00000000000F00
00000000001F00
00000000001F00
00000000003E00
00000000003E00
00000000007C00
0000000000FC00
0000000001F800
0000000001F800
0000000003F000
000000000FE000
000000001FC000
000000003F8000
000000007F0000
00000000FE0000
00000001FC0000
00000003F80000
00000007F00000
0000000FC00000
0000001F800000
0000003F000000
000000FE000000
000001FC000000
000003F8000000
000007F0000000
00000FE0000000
00001FC0000000
00003F80000000
00007F00000000
0000FC00000000
0001F800000000
0003F000000000
000FE000000000
001FC000000000
003F8000000000
007F0000000000
00FE0000000000
01FC0000000000
03F80000000000
07F00000000000
0FC00000000000
1F800000000000
3F000000000000
7FFFFFFFFFFF80
FFFFFFFFFFFF80
FFFFFFFFFFFF80
FFFFFFFFFFFF80
FFFFFFFFFFFF80
ENDCHAR
STARTCHAR 0033
ENCODING 51
SWIDTH 535 0
DWIDTH 58 0
BBX 47 80 4 -2
BITMAP
1FFFFFFFFFFE
1FFFFFFFFFFE
1FFFFFFFFFFE
1FFFFFFFFFFE
1FFFFFFFFFFE
0000000001FC
0000000003F8
0000000007F0
000000000FE0
000000001FC0
000000003F80
000000007F00
00000000FE00
00000001FC00
00000003F800
00000007E000
0000000FC000
0000001F8000
0000003F0000
0000007E0000
000000FC0000
000001F80000
000003F00000
000007E00000
00000FC00000
00003F800000
00007F000000
0000FE000000
0001FC000000
0003F8000000
0007FFF80000
000FFFFF8000
001FFFFFE000
001FFFFFF800
001FFFFFFC00
000F8003FE00
00040000FF00
000000003F80
000000001FC0
0000000007E0
0000000003F0
0000000003F0
0000000001F8
0000000000F8
0000000000FC
00000000007C
00000000007C
00000000007C
00000000003E
00000000003E
00000000003E
00000000003E
00000000003E
00000000003E
00000000003E
00000000003E
00000000003E
00000000003E
00000000003E
00000000003E
00000000003E
00000000003E
08000000007C
38000000007C
F8000000007C
7C00000000FC
7C00000000F8
3E00000001F8
3F00000001F0
1F80000003F0
0FC0000007E0
0FE000000FC0
07F000003F80
03FC0000FF00
01FF0003FE00
007FFFFFFC00
003FFFFFF800
000FFFFFE000
0003FFFF8000
00003FF80000
ENDCHAR
STARTCHAR 0034
ENCODING 52
SWIDTH 581 0
DWIDTH 63 0
BBX 52 78 5 0
BITMAP
0000001F000000
0000001F000000
0000003E000000
0000003E000000
0000007C000000
0000007C000000
000000F8000000
000000F8000000
000001F0000000
000001F0000000
000003E0000000
000003E0000000
000007C0000000
000007C0000000
00000F80000000
00000F80000000
00001F00000000
00001F00000000
00001F00000000
00003E00000000
00003E00000000
00007C00000000
00007C00000000
0000F800000000
0000F800000000
0001F000000000
0001F000000000
0003E000000000
0003E000000000
0007C000000000
0007C000000000
000F8000000000
000F8000000000
001F000003E000
001F000003E000
001F000003E000
003E000003E000
003E000003E000
007C000003E000
007C000003E000
00F8000003E000
00F8000003E000
01F0000003E000
01F0000003E000
03E0000003E000
03E0000003E000
07C0000003E000
07C0000003E000
0F80000003E000
0F80000003E000
1F00000003E000
1F00000003E000
1F00000003E000
3E00000003E000
3E00000003E000
7C00000003E000
7C00000003E000
FFFFFFFFFFFFF0
FFFFFFFFFFFFF0
FFFFFFFFFFFFF0
FFFFFFFFFFFFF0
FFFFFFFFFFFFF0
0000000003E000
0000000003E000
0000000003E000
0000000003E000
0000000003E000
0000000003E000
0000000003E000
0000000003E000
0000000003E000
0000000003E000
0000000003E000
0000000003E000
0000000003E000
0000000003E000
0000000003E000
0000000003E000
ENDCHAR
STARTCHAR 0035
ENCODING 53
SWIDTH 572 0
DWIDTH 62 0
BBX 52 80 5 -2
BITMAP
07FFFFFFFFFC00
07FFFFFFFFFC00
07FFFFFFFFFC00
07FFFFFFFFFC00
0FFFFFFFFFFC00
0F800000000000
0F800000000000
0F800000000000
0F800000000000
0F800000000000
0F800000000000
0F800000000000
0F800000000000
0F800000000000
0F000000000000
0F000000000000
0F000000000000
0F000000000000
0F000000000000
0F000000000000
0F000000000000
1F000000000000
1F000000000000
1F000000000000
1F000000000000
1F000000000000
1F000000000000
1F000040000000
1F003FFF800000
1F01FFFFF00000
1F07FFFFFC0000
1E0FFFFFFE0000
1E3FF803FF8000
1E7FC0007FC000
1EFF00000FE000
1FFC000007F000
1FF0000001F800
1FE0000000FC00
3FC00000007E00
3F800000003E00
1F800000001F00
07000000001F00
02000000000F80
00000000000F80
000000000007C0
000000000007C0
000000000003E0
000000000003E0
000000000003E0
000000000001E0
000000000001E0
000000000001E0
000000000001F0
000000000001F0
000000000001F0
000000000001E0
000000000001E0
000000000001E0
000000000003E0
080000000003E0
F80000000003E0
780000000003C0
7C0000000007C0
7C0000000007C0
3E000000000F80
3E000000000F80
1F000000001F00
1F800000003F00
0FC00000007E00
07E0000000FC00
07F0000001F800
03F8000003F800
01FE00000FF000
00FF80003FE000
003FF001FF8000
001FFFFFFF0000
000FFFFFFC0000
0003FFFFF80000
00007FFFC00000
000007FE000000
ENDCHAR
STARTCHAR 0036
ENCODING 54
SWIDTH 618 0
DWIDTH 67 0
BBX 52 82 8 -2
BITMAP
000007FE000000
00007FFFC00000
0003FFFFF80000
000FFFFFFE0000
001FFFFFFF0000
003FE000FF8000
00FF80003FE000
01FE00000FF000
03F8000003F800
03F0000001FC00
07E0000000FC00
0FC00000007E00
1F800000003F00
1F000000001E00
3F000000000C00
3E000000000000
7C000000000000
7C000000000000
7C000000000000
F8000000000000
F8000000000000
F8000000000000
F0000000000000
F0000000000000
F0000000000000
F0000000000000
F0000000000000
F0000000000000
F0000000000000
F0000040000000
F0003FFF800000
F000FFFFF00000
F003FFFFFC0000
F00FFFFFFE0000
F03FF803FF8000
F07FC0007FC000
F0FF00000FE000
F1FC000007F000
F3F0000001F800
F7E0000000FC00
F7C00000007E00
FF800000003E00
FF800000001F00
FF000000001F80
FE000000000F80
FE000000000FC0
FC0000000007C0
FC0000000007C0
F80000000003E0
F80000000003E0
F80000000003E0
F80000000001E0
F00000000001E0
F00000000001E0
F00000000001F0
F00000000001F0
F00000000001F0
F00000000001E0
F00000000001E0
F00000000001E0
F80000000003E0
F80000000003E0
F80000000003E0
780000000003C0
7C0000000007C0
7C0000000007C0
3E000000000F80
3E000000000F80
1F000000001F00
1F800000003F00
0FC00000007E00
07E0000000FC00
03F0000001FC00
03F8000003F800
01FE00000FF000
00FF80003FE000
003FE000FF8000
001FFFFFFF0000
0007FFFFFE0000
0001FFFFF80000
00007FFFC00000
00000FFE000000
ENDCHAR
STARTCHAR 0037
ENCODING 55
SWIDTH 480 0
DWIDTH 52 0
BBX 43 78 4 0
BITMAP
FFFFFFFFFFE0
FFFFFFFFFFE0
FFFFFFFFFFE0
FFFFFFFFFFE0
FFFFFFFFFFE0
0000000007C0
0000000007C0
0000000007C0
000000000F80
000000000F80
000000001F00
000000001F00
000000001E00
000000003E00
000000003E00
000000007C00
000000007C00
000000007800
00000000F800
00000000F800
00000001F000
00000001F000
00000001E000
00000003E000
00000003E000
00000007C000
00000007C000
0000000F8000
0000000F8000
0000000F8000
0000001F0000
0000001F0000
0000003E0000
0000003E0000
0000003E0000
0000007C0000
0000007C0000
000000F80000
000000F80000
000000F00000
000001F00000
000001F00000
000003E00000
000003E00000
000003C00000
000007C00000
000007C00000
00000F800000
00000F800000
00000F000000
00001F000000
00001F000000
00003E000000
00003E000000
00007C000000
00007C000000
00007C000000
0000F8000000
0000F8000000
0001F0000000
0001F0000000
0001F0000000
0003E0000000
0003E0000000
0007C0000000
0007C0000000
000780000000
000F80000000
000F80000000
001F00000000
001F00000000
001E00000000
003E00000000
003E00000000
007C00000000
007C00000000
007800000000
00F800000000
ENDCHAR
STARTCHAR 0038
ENCODING 56
SWIDTH 563 0
DWIDTH 61 0
BBX 48 82 6 -2
BITMAP
00001FFC0000
0001FFFF8000
0007FFFFF000
001FFFFFFC00
007FFFFFFE00
00FFE003FF00
01FF00007F80
03FC00001FC0
03F000000FE0
07E0000007E0
0FC0000003F0
0F80000001F0
0F80000000F8
1F00000000F8
1F00000000F8
1F000000007C
3E000000007C
3E000000007C
3E000000007C
3E000000007C
3E000000007C
3E000000007C
3E000000007C
3E000000007C
1E000000007C
1F000000007C
1F00000000F8
1F00000000F8
0F80000001F8
0FC0000001F0
07C0000003F0
07E0000007E0
03F000000FE0
01FC00001FC0
01FF0000FF80
007FE007FF00
003FFFFFFE00
001FFFFFF800
000FFFFFF000
003FFFFFFC00
007FFFFFFE00
00FF8001FF80
01FE00003FC0
03F800000FE0
07E0000007E0
0FC0000003F0
0F80000001F8
1F00000000F8
1F000000007C
3E000000007C
3E000000003E
7C000000003E
7C000000003E
7C000000001F
7C000000001F
78000000001F
78000000001F
78000000001F
F8000000001F
F8000000001F
78000000001F
78000000001F
78000000001F
7C000000001F
7C000000001E
7C000000003E
7C000000003E
3E000000003E
3E000000007C
1F00000000FC
1F80000000F8
0F80000001F8
0FC0000003F0
07E0000007F0
03F800001FE0
01FE00003FC0
00FF8001FF80
007FFFFFFE00
001FFFFFFC00
000FFFFFF000
0001FFFFC000
00003FFC0000
ENDCHAR
STARTCHAR 0039
ENCODING 57
SWIDTH 618 0
DWIDTH 67 0
BBX 52 82 8 -2
BITMAP
000007FE000000
00007FFFC00000
0003FFFFF80000
0007FFFFFC0000
001FFFFFFF0000
003FE000FF8000
00FF80003FE000
01FE00000FF000
03F8000003F800
03F0000001FC00
07E0000000FC00
0FC00000007E00
1F800000003F00
1F000000001F00
3F000000000F80
3E000000000F80
7C0000000007C0
7C0000000007C0
7C0000000003C0
F80000000003E0
F80000000003E0
F80000000003E0
F00000000001E0
F00000000001E0
F00000000001F0
F00000000001F0
F00000000001F0
F00000000001F0
F00000000001F0
F00000000001F0
F80000000001F0
F80000000003F0
F80000000003F0
780000000003F0
7C0000000007F0
7C0000000007F0
3E0000000007F0
3E000000000FF0
1F000000001FF0
1F000000001FF0
0F800000003FF0
0FC00000007FF0
07E0000000FDF0
03F0000001F9F0
01FC000007F1F0
00FF00000FE1F0
007FC0007FC1F0
003FF803FF81F0
000FFFFFFE01F0
0007FFFFFC01F0
0001FFFFF001F0
00003FFF8001F0
000000E00001F0
000000000001F0
000000000001F0
000000000001F0
000000000001F0
000000000001F0
000000000001E0
000000000001E0
000000000003E0
000000000003E0
000000000003E0
000000000003C0
000000000007C0
000000000007C0
00000000000F80
03000000000F80
0F000000001F00
1F800000003F00
0FC00000007E00
07E0000000FC00
03F0000001FC00
03F8000003F800
01FE00000FF000
00FF80003FE000
003FE000FFC000
001FFFFFFF0000
0007FFFFFE0000
0001FFFFF80000
00007FFFC00000
000007FE000000
ENDCHAR
STARTCHAR 003A
ENCODING 58
SWIDTH 267 0
DWIDTH 29 0
BBX 6 39 12 10
BITMAP
FC
FC
FC
FC
FC
FC
FC
00
00
00
00
00
00
00
00
00
00
00
00
00
00
00
00
00
00
00
00
00
00
00
00
00
FC
FC
FC
FC
FC
FC
FC
ENDCHAR
STARTCHAR 003B
ENCODING 59
SWIDTH 276 0
DWIDTH 30 0
BBX 6 69 12 -11
BITMAP
FC
FC
FC
FC
FC
FC
FC
00
00
00
00
00
00
00
00
00
00
00
00
00
00
00
00
00
00
00
00
00
00
00
00
00
00
00
00
00
00
00
00
00
00
00
00
00
00
00
00
00
00
FC
FC
FC
FC
FC
FC
FC
FC
FC
FC
1C
1C
1C
1C
1C
1C
3C
F8
F8
E0
ENDCHAR
STARTCHAR 003C
ENCODING 60
SWIDTH 600 0
DWIDTH 65 0
BBX 27 50 16 9
BITMAP
00000080
000001C0
000003E0
000007E0
00000FC0
00001F80
00003F00
00007E00
0000FC00
0001F800
0003F000
0007E000
000FC000
001F8000
003F0000
007E0000
00FC0000
01F80000
03F00000
07E00000
0FC00000
1F800000
3F000000
7E000000
FC000000
FC000000
7E000000
3F000000
1F800000
0FC00000
07E00000
03F00000
01F80000
00FC0000
007E0000
003F0000
001F8000
000FC000
0007E000
0003F000
0001F800
0000FC00
00007E00
00003F00
00001F80
00000FC0
000007E0
000003E0
000001C0
00000080
ENDCHAR
STARTCHAR 003D
ENCODING 61
SWIDTH 747 0
DWIDTH 81 0
BBX 55 22 13 28
BITMAP
FFFFFFFFFFFFFE
FFFFFFFFFFFFFE
FFFFFFFFFFFFFE
FFFFFFFFFFFFFE
FFFFFFFFFFFFFE
00000000000000
00000000000000
00000000000000
00000000000000
00000000000000
00000000000000
00000000000000
00000000000000
00000000000000
00000000000000
00000000000000
00000000000000
FFFFFFFFFFFFFE
FFFFFFFFFFFFFE
FFFFFFFFFFFFFE
FFFFFFFFFFFFFE
FFFFFFFFFFFFFE
ENDCHAR
STARTCHAR 003E
ENCODING 62
SWIDTH 600 0
DWIDTH 65 0
BBX 27 50 22 9
BITMAP
20000000
70000000
F8000000
FC000000
7E000000
3F000000
1F800000
0FC00000
07E00000
03F00000
01F80000
00FC0000
007E0000
003F0000
001F8000
000FC000
0007E000
0003F000
0001F800
0000FC00
00007E00
00003F00
00001F80
00000FC0
000007E0
000007E0
00000FC0
00001F80
00003F00
00007E00
0000FC00
0001F800
0003F000
0007E000
000FC000
001F8000
003F0000
007E0000
00FC0000
01F80000
03F00000
07E00000
0FC00000
1F800000
3F000000
7E000000
FC000000
F8000000
70000000
20000000
ENDCHAR
STARTCHAR 003F
ENCODING 63
SWIDTH 507 0
DWIDTH 55 0
BBX 44 80 5 0
BITMAP
00007FF00000
0007FFFF0000
001FFFFFC000
007FFFFFF000
01FFFFFFF800
03FE0007FC00
07F80000FE00
0FE000007F00
0FC000001F80
1F8000000F80
3F0000000FC0
3E00000007E0
3E00000003E0
7C00000003E0
7C00000003F0
7800000001F0
7800000001F0
7800000001F0
F800000001F0
F800000001F0
0000000001F0
0000000001F0
0000000001F0
0000000001F0
0000000001F0
0000000001F0
0000000003E0
0000000003E0
0000000007E0
0000000007C0
000000000FC0
000000001F80
000000003F00
00000000FE00
00000001FC00
00000003F800
0000000FF000
0000001FE000
0000003F8000
0000007F0000
000000FE0000
000001F80000
000003F00000
000007E00000
000007C00000
00000FC00000
00000F800000
00001F000000
00001F000000
00001F000000
00001F000000
00001F000000
00001E000000
00001E000000
00001E000000
00001E000000
00001E000000
00001E000000
00001E000000
000000000000
000000000000
000000000000
000000000000
000000000000
000000000000
000000000000
000000000000
000000000000
000000000000
000000000000
000000000000
000000000000
00001E000000
00001E000000
00001E000000
00001E000000
00001E000000
00001E000000
00001E000000
00001E000000
ENDCHAR
STARTCHAR 0040
ENCODING 64
SWIDTH 895 0
DWIDTH 97 0
BBX 80 82 9 -12
BITMAP
000000003FFF00000000
00000007FFFFF8000000
0000003FFFFFFF000000
000001FFFFFFFFE00000
000007FFFFFFFFF80000
00001FFF00003FFC0000
00007FF0000007FF0000
0000FFC0000000FF8000
0001FF000000003FE000
0007FC000000000FF000
000FF00000000003F800
001FE00000000001FC00
003F800000000000FE00
007F0000000000007F00
007E0000000000003F00
00FC0000000000001F80
01F80000000000000FC0
03F800000000000007C0
03F000000000000007E0
07E000000000000003F0
07C000000000000001F0
0FC000000000000001F0
0F8000000000000000F8
1F8000000000000000F8
1F0000000000000000FC
3F00000000000000007C
3E00000000000000007C
3E00000000000000007C
7E0000007FF00000003E
7C000001FFFE7C00003E
7C000007FFFF7C00003E
7C00000FFFFFFC00003E
F800001FE03FFC00003E
F800001F8007FC00003E
F800003E0003FC00001E
F800007E0001FC00001F
F800007C0001FC00001F
F80000780000FC00001E
F80000F80000FC00001E
F80000F800007C00001E
F80000F800007C00001E
F80000F800007C00001E
F80000F800007C00003E
F80000F800007C00003E
F80000F800007C00003E
F80000F80000FC00003C
F80000F80000FC00007C
F800007C0000FC00007C
F800007C0001FC000078
7C00003E0003FE0000F8
7C00003F0007FE0001F8
7C00001FC01FFF0003F0
7C00000FFFFFDF8007E0
3E000007FFFF9FC00FE0
3E000003FFFF0FFFFFC0
3F000000FFFC07FFFF80
1F0000003FE003FFFF00
1F800000000000FFFC00
1F8000000000001FE000
0FC00000000000000000
0FC00000000000000000
07E00000000000000000
03F00000000000000000
03F00000000000000000
01F80000000000000000
00FC0000000000000000
00FE0000000000000000
007F0000000000000000
003F8000000000000000
001FC000000000000000
000FF000000000000000
0007F800000000080000
0003FE000000003C0000
0001FF80000000FC0000
00007FE0000003FE0000
00003FFC00001FFC0000
00000FFFC003FFF00000
000003FFFFFFFFC00000
000000FFFFFFFF000000
0000001FFFFFF8000000
00000001FFFF80000000
00000000058000000000
ENDCHAR
STARTCHAR 0041
ENCODING 65
SWIDTH 609 0
DWIDTH 66 0
BBX 62 78 2 0
BITMAP
0000000FC0000000
0000000FC0000000
0000000FC0000000
0000001FE0000000
0000001FE0000000
0000001FE0000000
0000003FF0000000
0000003FF0000000
0000007CF8000000
0000007CF8000000
0000007CF8000000
000000F87C000000
000000F87C000000
000000F07C000000
000001F03E000000
000001F03E000000
000001E03E000000
000003E01F000000
000003E01F000000
000007C00F800000
000007C00F800000
000007C00F800000
00000F8007C00000
00000F8007C00000
00000F0007C00000
00001F0003E00000
00001F0003E00000
00001E0003E00000
00003E0001F00000
00003E0001F00000
00007C0000F80000
00007C0000F80000
00007C0000F80000
0000F800007C0000
0000F800007C0000
0000F800007C0000
0001F000003E0000
0001F000003E0000
0001E000003E0000
0003E000001F0000
0003E000001F0000
0007C000000F8000
0007C000000F8000
0007C000000F8000
000F80000007C000
000F80000007C000
000F80000007C000
001F00000003E000
001F00000003E000
001E00000003E000
003E00000001F000
003E00000001F000
007C00000000F800
007C00000000F800
007FFFFFFFFFF800
00FFFFFFFFFFFC00
00FFFFFFFFFFFC00
00FFFFFFFFFFFC00
01F0000000003E00
01F0000000003E00
01E0000000003E00
03E0000000001F00
03E0000000001F00
07C0000000000F80
07C0000000000F80
07C0000000000F80
0F800000000007C0
0F800000000007C0
0F800000000007C0
1F000000000003E0
1F000000000003E0
1E000000000001E0
3E000000000001F0
3E000000000001F0
7C000000000000F8
7C000000000000F8
7C000000000000F8
F80000000000007C
ENDCHAR
STARTCHAR 0042
ENCODING 66
SWIDTH 600 0
DWIDTH 65 0
BBX 54 78 8 0
BITMAP
FFFFFFFFC00000
FFFFFFFFF80000
FFFFFFFFFF0000
FFFFFFFFFF8000
F0000003FFE000
F00000000FF000
F000000003F800
F000000001FC00
F0000000007E00
F0000000003E00
F0000000003F00
F0000000001F00
F0000000000F80
F0000000000F80
F00000000007C0
F00000000007C0
F00000000007C0
F00000000007C0
F00000000007C0
F00000000007C0
F00000000007C0
F00000000007C0
F00000000007C0
F0000000000FC0
F0000000000F80
F0000000000F80
F0000000001F80
F0000000001F00
F0000000003F00
F0000000007E00
F000000000FC00
F000000001FC00
F000000007F800
F00000001FF000
F0000003FFE000
FFFFFFFFFF8000
FFFFFFFFFF0000
FFFFFFFFFFC000
FFFFFFFFFFF000
F00000001FF800
F000000003FE00
F000000000FF00
F0000000003F80
F0000000001FC0
F0000000000FC0
F00000000007E0
F00000000007E0
F00000000003F0
F00000000001F0
F00000000001F8
F00000000000F8
F00000000000F8
F00000000000FC
F000000000007C
F000000000007C
F000000000007C
F000000000007C
F000000000007C
F000000000007C
F000000000007C
F000000000007C
F00000000000FC
F00000000000F8
F00000000000F8
F00000000001F8
F00000000001F0
F00000000003F0
F00000000007E0
F0000000000FE0
F0000000001FC0
F0000000007F80
F000000001FF00
F00000000FFE00
FFFFFFFFFFFC00
FFFFFFFFFFF800
FFFFFFFFFFE000
FFFFFFFFFF0000
FFFFFFFFF80000
ENDCHAR
STARTCHAR 0043
ENCODING 67
SWIDTH 701 0
DWIDTH 76 0
BBX 68 82 3 -2
BITMAP
00000007FFC0000000
000000FFFFFC000000
000007FFFFFF800000
00001FFFFFFFF00000
00007FFFFFFFF80000
0001FFE0001FFE0000
0003FF000001FF0000
0007FC0000007FC000
000FF00000001FE000
001FC00000000FF000
003F8000000003F800
007F0000000001F800
00FE0000000000FC00
01FC00000000007E00
01F800000000003F00
03F000000000003F00
03F000000000001F80
07E000000000000F80
07C000000000000FC0
0FC0000000000007C0
0F80000000000007E0
1F80000000000003E0
1F00000000000003E0
1F00000000000001F0
3F00000000000001F0
3E00000000000001F0
3E00000000000001F0
3E0000000000000000
7C0000000000000000
7C0000000000000000
7C0000000000000000
7C0000000000000000
7C0000000000000000
7C0000000000000000
780000000000000000
F80000000000000000
F80000000000000000
F80000000000000000
F80000000000000000
F80000000000000000
F80000000000000000
F80000000000000000
F80000000000000000
F80000000000000000
F80000000000000000
F80000000000000000
F80000000000000000
780000000000000000
7C0000000000000000
7C0000000000000000
7C0000000000000000
7C0000000000000000
7C0000000000000000
7C0000000000000000
3E0000000000000000
3E00000000000001F0
3E00000000000001F0
3E00000000000001F0
1F00000000000001F0
1F00000000000003E0
1F80000000000003E0
0F80000000000007E0
0FC0000000000007C0
07C000000000000FC0
07E000000000000F80
03E000000000001F80
03F000000000003F00
01F800000000003F00
01FC00000000007E00
00FE0000000000FC00
007F0000000001FC00
003F8000000003F800
001FC00000000FF000
000FF00000001FE000
0007F80000007FC000
0003FF000001FF0000
0001FFE0001FFE0000
00007FFFFFFFF80000
00001FFFFFFFF00000
000007FFFFFF800000
000000FFFFFC000000
00000007FFC0000000
ENDCHAR
STARTCHAR 0044
ENCODING 68
SWIDTH 655 0
DWIDTH 71 0
BBX 58 78 8 0
BITMAP
FFFFFFFF00000000
FFFFFFFFF8000000
FFFFFFFFFF000000
FFFFFFFFFFC00000
FFFFFFFFFFF00000
F00000007FF80000
F000000007FC0000
F000000001FE0000
F0000000007F0000
F0000000003F8000
F0000000000FC000
F00000000007E000
F00000000003F000
F00000000001F000
F00000000001F800
F00000000000F800
F000000000007C00
F000000000007C00
F000000000003E00
F000000000003E00
F000000000003E00
F000000000001F00
F000000000001F00
F000000000001F00
F000000000000F80
F000000000000F80
F000000000000F80
F000000000000F80
F000000000000780
F0000000000007C0
F0000000000007C0
F0000000000007C0
F0000000000007C0
F0000000000007C0
F0000000000007C0
F0000000000007C0
F0000000000007C0
F0000000000007C0
F0000000000007C0
F0000000000007C0
F0000000000007C0
F0000000000007C0
F0000000000007C0
F0000000000007C0
F0000000000007C0
F0000000000007C0
F0000000000007C0
F0000000000007C0
F0000000000007C0
F000000000000780
F000000000000F80
F000000000000F80
F000000000000F80
F000000000000F80
F000000000001F00
F000000000001F00
F000000000001F00
F000000000003E00
F000000000003E00
F000000000003E00
F000000000007C00
F000000000007C00
F00000000000F800
F00000000001F800
F00000000001F000
F00000000003F000
F00000000007E000
F0000000000FC000
F0000000003F8000
F0000000007F0000
F000000001FE0000
F000000007FC0000
F00000003FF80000
FFFFFFFFFFF00000
FFFFFFFFFFC00000
FFFFFFFFFF000000
FFFFFFFFF8000000
FFFFFFFF00000000
ENDCHAR
STARTCHAR 0045
ENCODING 69
SWIDTH 563 0
DWIDTH 61 0
BBX 47 78 8 0
BITMAP
FFFFFFFFFFFE
FFFFFFFFFFFE
FFFFFFFFFFFE
FFFFFFFFFFFE
FFFFFFFFFFFE
F00000000000
F00000000000
F00000000000
F00000000000
F00000000000
F00000000000
F00000000000
F00000000000
F00000000000
F00000000000
F00000000000
F00000000000
F00000000000
F00000000000
F00000000000
F00000000000
F00000000000
F00000000000
F00000000000
F00000000000
F00000000000
F00000000000
F00000000000
F00000000000
F00000000000
F00000000000
F00000000000
F00000000000
F00000000000
F00000000000
F00000000000
FFFFFFFFFF80
FFFFFFFFFF80
FFFFFFFFFF80
FFFFFFFFFF80
FFFFFFFFFF80
F00000000000
F00000000000
F00000000000
F00000000000
F00000000000
F00000000000
F00000000000
F00000000000
F00000000000
F00000000000
F00000000000
F00000000000
F00000000000
F00000000000
F00000000000
F00000000000
F00000000000
F00000000000
F00000000000
F00000000000
F00000000000
F00000000000
F00000000000
F00000000000
F00000000000
F00000000000
F00000000000
F00000000000
F00000000000
F00000000000
F00000000000
F00000000000
FFFFFFFFFFFE
FFFFFFFFFFFE
FFFFFFFFFFFE
FFFFFFFFFFFE
FFFFFFFFFFFE
ENDCHAR
STARTCHAR 0046
ENCODING 70
SWIDTH 489 0
DWIDTH 53 0
BBX 43 78 8 0
BITMAP
FFFFFFFFFFE0
FFFFFFFFFFE0
FFFFFFFFFFE0
FFFFFFFFFFE0
FFFFFFFFFFE0
F00000000000
F00000000000
F00000000000
F00000000000
F00000000000
F00000000000
F00000000000
F00000000000
F00000000000
F00000000000
F00000000000
F00000000000
F00000000000
F00000000000
F00000000000
F00000000000
F00000000000
F00000000000
F00000000000
F00000000000
F00000000000
F00000000000
F00000000000
F00000000000
F00000000000
F00000000000
F00000000000
F00000000000
F00000000000
F00000000000
F00000000000
FFFFFFFFF000
FFFFFFFFF000
FFFFFFFFF000
FFFFFFFFF000
FFFFFFFFF000
F00000000000
F00000000000
F00000000000
F00000000000
F00000000000
F00000000000
F00000000000
F00000000000
F00000000000
F00000000000
F00000000000
F00000000000
F00000000000
F00000000000
F00000000000
F00000000000
F00000000000
F00000000000
F00000000000
F00000000000
F00000000000
F00000000000
F00000000000
F00000000000
F00000000000
F00000000000
F00000000000
F00000000000
F00000000000
F00000000000
F00000000000
F00000000000
F00000000000
F00000000000
F00000000000
F00000000000
F00000000000
ENDCHAR
STARTCHAR 0047
ENCODING 71
SWIDTH 683 0
DWIDTH 74 0
BBX 68 82 3 -2
BITMAP
00000007FF80000000
000000FFFFFC000000
000007FFFFFF800000
00001FFFFFFFE00000
00007FFFFFFFF80000
0001FFE0001FFC0000
0003FF000003FE0000
0007FC000000FF8000
000FF00000003FC000
001FC00000001FE000
003F8000000007E000
007F0000000003F000
00FE0000000001F800
01FC0000000000FC00
01F80000000000FC00
03F000000000007E00
03E000000000003E00
07E000000000003F00
07C000000000001F00
0FC000000000001E00
0F8000000000000800
1F8000000000000000
1F0000000000000000
1F0000000000000000
3F0000000000000000
3E0000000000000000
3E0000000000000000
3E0000000000000000
7C0000000000000000
7C0000000000000000
7C0000000000000000
7C0000000000000000
7C0000000000000000
7C0000000000000000
780000000000000000
F80000000000000000
F80000000000000000
F80000000000000000
F80000000000000000
F80000000000000000
F80000000000000000
F8000000003FFFFFF0
F8000000003FFFFFF0
F8000000003FFFFFF0
F8000000003FFFFFF0
F8000000003FFFFFF0
F800000000000001F0
7800000000000001F0
7C00000000000001F0
7C00000000000001F0
7C00000000000001F0
7C00000000000001F0
7C00000000000001F0
7C00000000000001F0
3E00000000000001E0
3E00000000000003E0
3E00000000000003E0
3E00000000000003E0
1F00000000000003E0
1F00000000000007C0
1F80000000000007C0
0F80000000000007C0
0FC000000000000F80
07C000000000000F80
07E000000000001F80
03E000000000001F00
03F000000000003F00
01F800000000003E00
01FC00000000007E00
00FE0000000000FC00
007F0000000001F800
003F8000000003F000
001FC000000007F000
000FF00000001FE000
0007F80000007FC000
0003FF000001FF0000
0001FFE0000FFE0000
00007FFFFFFFFC0000
00001FFFFFFFF00000
000007FFFFFFC00000
000000FFFFFE000000
00000007FFC0000000
ENDCHAR
STARTCHAR 0048
ENCODING 72
SWIDTH 664 0
DWIDTH 72 0
BBX 56 78 8 0
BITMAP
F000000000001F
F000000000001F
F000000000001F
F000000000001F
F000000000001F
F000000000001F
F000000000001F
F000000000001F
F000000000001F
F000000000001F
F000000000001F
F000000000001F
F000000000001F
F000000000001F
F000000000001F
F000000000001F
F000000000001F
F000000000001F
F000000000001F
F000000000001F
F000000000001F
F000000000001F
F000000000001F
F000000000001F
F000000000001F
F000000000001F
F000000000001F
F000000000001F
F000000000001F
F000000000001F
F000000000001F
F000000000001F
F000000000001F
F000000000001F
F000000000001F
F000000000001F
FFFFFFFFFFFFFF
FFFFFFFFFFFFFF
FFFFFFFFFFFFFF
FFFFFFFFFFFFFF
FFFFFFFFFFFFFF
F000000000001F
F000000000001F
F000000000001F
F000000000001F
F000000000001F
F000000000001F
F000000000001F
F000000000001F
F000000000001F
F000000000001F
F000000000001F
F000000000001F
F000000000001F
F000000000001F
F000000000001F
F000000000001F
F000000000001F
F000000000001F
F000000000001F
F000000000001F
F000000000001F
F000000000001F
F000000000001F
F000000000001F
F000000000001F
F000000000001F
F000000000001F
F000000000001F
F000000000001F
F000000000001F
F000000000001F
F000000000001F
F000000000001F
F000000000001F
F000000000001F
F000000000001F
F000000000001F
ENDCHAR
STARTCHAR 0049
ENCODING 73
SWIDTH 203 0
DWIDTH 22 0
BBX 4 78 9 0
BITMAP
F0
F0
F0
F0
F0
F0
F0
F0
F0
F0
F0
F0
F0
F0
F0
F0
F0
F0
F0
F0
F0
F0
F0
F0
F0
F0
F0
F0
F0
F0
F0
F0
F0
F0
F0
F0
F0
F0
F0
F0
F0
F0
F0
F0
F0
F0
F0
F0
F0
F0
F0
F0
F0
F0
F0
F0
F0
F0
F0
F0
F0
F0
F0
F0
F0
F0
F0
F0
F0
F0
F0
F0
F0
F0
F0
F0
F0
F0
ENDCHAR
STARTCHAR 004A
ENCODING 74
SWIDTH 443 0
DWIDTH 48 0
BBX 39 80 0 -2
BITMAP
000000003E
000000003E
000000003E
000000003E
000000003E
000000003E
000000003E
000000003E
000000003E
000000003E
000000003E
000000003E
000000003E
000000003E
000000003E
000000003E
000000003E
000000003E
000000003E
000000003E
000000003E
000000003E
000000003E
000000003E
000000003E
000000003E
000000003E
000000003E
000000003E
000000003E
000000003E
000000003E
000000003E
000000003E
000000003E
000000003E
000000003E
000000003E
000000003E
000000003E
000000003E
000000003E
000000003E
000000003E
000000003E
000000003E
000000003E
000000003E
000000003E
000000003E
000000003E
000000003E
000000003E
000000003E
000000003E
000000003E
000000003E
000000003E
000000003E
000000003E
000000003E
000000003E
000000003E
000000003E
380000003C
F80000007C
FC0000007C
7C0000007C
7E000000F8
3E000000F8
3F000001F0
1F800003F0
0FC00007E0
0FF0001FC0
07FC007F80
03FFFFFF00
00FFFFFE00
007FFFFC00
000FFFE000
0001FF0000
ENDCHAR
STARTCHAR 004B
ENCODING 75
SWIDTH 553 0
DWIDTH 60 0
BBX 52 78 8 0
BITMAP
F0000000003F00
F0000000007E00
F000000000FC00
F000000001F800
F000000003F000
F000000007E000
F00000000FC000
F00000001F8000
F00000003F0000
F00000007E0000
F0000000FC0000
F0000001F80000
F0000003F00000
F0000007E00000
F000000FC00000
F000001F800000
F000003F000000
F000007E000000
F00000FC000000
F00003F8000000
F00007F0000000
F0000FE0000000
F0001FC0000000
F0003F80000000
F0007F00000000
F000FE00000000
F001FC00000000
F003F800000000
F007F000000000
F00FE000000000
F01FC000000000
F03F8000000000
F07F0000000000
F0FE0000000000
F1FC0000000000
F3F80000000000
F7F00000000000
FFE00000000000
F7F00000000000
F3F80000000000
F1FC0000000000
F0FE0000000000
F03F0000000000
F01F8000000000
F00FC000000000
F007E000000000
F003F000000000
F001F800000000
F000FC00000000
F0007E00000000
F0003F00000000
F0001F80000000
F0000FC0000000
F00007E0000000
F00003F0000000
F00001F8000000
F00000FC000000
F000007E000000
F000003F000000
F000001FC00000
F000000FE00000
F0000007F00000
F0000003F80000
F0000001FC0000
F0000000FE0000
F00000007F0000
F00000003F8000
F00000001FC000
F00000000FE000
F000000007F000
F000000003F800
F000000001FC00
F000000000FE00
F0000000007F00
F0000000001F80
F0000000000FC0
F00000000007E0
F00000000003F0
ENDCHAR
STARTCHAR 004C
ENCODING 76
SWIDTH 498 0
DWIDTH 54 0
BBX 43 78 9 0
BITMAP
F00000000000
F00000000000
F00000000000
F00000000000
F00000000000
F00000000000
F00000000000
F00000000000
F00000000000
F00000000000
F00000000000
F00000000000
F00000000000
F00000000000
F00000000000
F00000000000
F00000000000
F00000000000
F00000000000
F00000000000
F00000000000
F00000000000
F00000000000
F00000000000
F00000000000
F00000000000
F00000000000
F00000000000
F00000000000
F00000000000
F00000000000
F00000000000
F00000000000
F00000000000
F00000000000
F00000000000
F00000000000
F00000000000
F00000000000
F00000000000
F00000000000
F00000000000
F00000000000
F00000000000
F00000000000
F00000000000
F00000000000
F00000000000
F00000000000
F00000000000
F00000000000
F00000000000
F00000000000
F00000000000
F00000000000
F00000000000
F00000000000
F00000000000
F00000000000
F00000000000
F00000000000
F00000000000
F00000000000
F00000000000
F00000000000
F00000000000
F00000000000
F00000000000
F00000000000
F00000000000
F00000000000
F00000000000
F00000000000
FFFFFFFFFFE0
FFFFFFFFFFE0
FFFFFFFFFFE0
FFFFFFFFFFE0
FFFFFFFFFFE0
ENDCHAR
STARTCHAR 004D
ENCODING 77
SWIDTH 830 0
DWIDTH 90 0
BBX 74 78 8 0
BITMAP
F00000000000000003C0
F80000000000000007C0
F80000000000000007C0
FC000000000000000FC0
FC000000000000000FC0
FC000000000000001FC0
FE000000000000001FC0
FE000000000000001FC0
FF000000000000003FC0
FF000000000000003FC0
FF800000000000007FC0
FF800000000000007FC0
F7C0000000000000FBC0
F7C0000000000000FBC0
F3E0000000000001F3C0
F3E0000000000001F3C0
F1E0000000000003E3C0
F1F0000000000003E3C0
F0F0000000000003C3C0
F0F8000000000007C3C0
F0F8000000000007C3C0
F07C00000000000F83C0
F07C00000000000F83C0
F03E00000000001F03C0
F03E00000000001F03C0
F01F00000000003E03C0
F01F00000000003E03C0
F00F00000000007C03C0
F00F80000000007C03C0
F00780000000007C03C0
F007C000000000F803C0
F007C000000000F803C0
F003E000000001F003C0
F003E000000001F003C0
F001F000000003E003C0
F001F000000003E003C0
F000F800000007C003C0
F000F800000007C003C0
F0007C0000000F8003C0
F0007C0000000F8003C0
F0007C0000000F8003C0
F0003E0000001F0003C0
F0003E0000001F0003C0
F0001F0000003E0003C0
F0001F0000003E0003C0
F0000F8000007C0003C0
F0000F8000007C0003C0
F00007C00000F80003C0
F00007C00000F80003C0
F00003E00001F00003C0
F00003E00001F00003C0
F00003E00001F00003C0
F00001F00003E00003C0
F00001F00003E00003C0
F00000F80007C00003C0
F00000F80007C00003C0
F000007C000F800003C0
F000007C000F800003C0
F000003E001F000003C0
F000003E001F000003C0
F000001F003E000003C0
F000001F003E000003C0
F000001F803E000003C0
F000000F807C000003C0
F000000F807C000003C0
F0000007C0F8000003C0
F0000007C0F8000003C0
F0000003E1F0000003C0
F0000003E1F0000003C0
F0000001F3E0000003C0
F0000001F3E0000003C0
F0000001FFC0000003C0
F0000000FFC0000003C0
F0000000FFC0000003C0
F00000007F80000003C0
F00000007F80000003C0
F00000003F00000003C0
F00000003F00000003C0
ENDCHAR
STARTCHAR 004E
ENCODING 78
SWIDTH 664 0
DWIDTH 72 0
BBX 56 78 8 0
BITMAP
F000000000000F
F800000000000F
FC00000000000F
FE00000000000F
FE00000000000F
FF00000000000F
FF80000000000F
FF80000000000F
FFC0000000000F
F7E0000000000F
F3E0000000000F
F3F0000000000F
F1F8000000000F
F0F8000000000F
F07C000000000F
F07E000000000F
F03E000000000F
F01F000000000F
F01F800000000F
F00F800000000F
F007C00000000F
F007E00000000F
F003E00000000F
F001F00000000F
F001F80000000F
F000F80000000F
F0007C0000000F
F0007E0000000F
F0003F0000000F
F0001F0000000F
F0001F8000000F
F0000FC000000F
F00007C000000F
F00007E000000F
F00003F000000F
F00001F000000F
F00001F800000F
F00000FC00000F
F000007C00000F
F000007E00000F
F000003F00000F
F000001F00000F
F000001F80000F
F000000FC0000F
F0000007C0000F
F0000003E0000F
F0000003F0000F
F0000001F0000F
F0000000F8000F
F0000000FC000F
F00000007C000F
F00000003E000F
F00000003F000F
F00000001F000F
F00000000F800F
F00000000FC00F
F000000007E00F
F000000003E00F
F000000003F00F
F000000001F80F
F000000000F80F
F000000000FC0F
F0000000007E0F
F0000000003E0F
F0000000003F0F
F0000000001F8F
F0000000000F8F
F0000000000FCF
F00000000007EF
F00000000003EF
F00000000003FF
F00000000001FF
F00000000000FF
F000000000007F
F000000000007F
F000000000003F
F000000000001F
F000000000001F
ENDCHAR
STARTCHAR 004F
ENCODING 79
SWIDTH 701 0
DWIDTH 76 0
BBX 70 82 3 -2
BITMAP
00000007FFC0000000
000000FFFFFC000000
000007FFFFFF800000
00001FFFFFFFE00000
00007FFFFFFFF80000
0001FFE0001FFE0000
0003FF000003FF0000
0007FC0000007FC000
000FF00000001FE000
001FC00000000FF000
003F8000000003F800
007F0000000001F800
00FE0000000000FC00
01FC00000000007E00
01F800000000003F00
03F000000000003F00
03F000000000001F80
07E000000000000F80
07C000000000000FC0
0FC0000000000007C0
0F80000000000007E0
1F80000000000003E0
1F00000000000003E0
1F00000000000001F0
3F00000000000001F0
3E00000000000001F0
3E00000000000001F8
3E00000000000000F8
7C00000000000000F8
7C00000000000000F8
7C00000000000000F8
7C000000000000007C
7C000000000000007C
7C000000000000007C
78000000000000007C
F8000000000000007C
F8000000000000007C
F8000000000000007C
F8000000000000007C
F8000000000000007C
F8000000000000007C
F8000000000000007C
F8000000000000007C
F8000000000000007C
F8000000000000007C
F8000000000000007C
F8000000000000007C
78000000000000007C
7C000000000000007C
7C000000000000007C
7C000000000000007C
7C00000000000000F8
7C00000000000000F8
7C00000000000000F8
3E00000000000000F8
3E00000000000000F8
3E00000000000001F0
3E00000000000001F0
1F00000000000001F0
1F00000000000003E0
1F80000000000003E0
0F80000000000007E0
0FC0000000000007C0
07C000000000000FC0
07E000000000000F80
03E000000000001F80
03F000000000003F00
01F800000000003F00
01FC00000000007E00
00FE0000000000FC00
007F0000000001FC00
003F8000000003F800
001FC00000000FF000
000FF00000001FE000
0007F80000007FC000
0003FF000001FF0000
0001FFE0001FFE0000
00007FFFFFFFF80000
00001FFFFFFFF00000
000007FFFFFF800000
000000FFFFFE000000
00000007FFC0000000
ENDCHAR
STARTCHAR 0050
ENCODING 80
SWIDTH 581 0
DWIDTH 63 0
BBX 52 78 8 0
BITMAP
FFFFFFFFC00000
FFFFFFFFF80000
FFFFFFFFFF0000
FFFFFFFFFFC000
FFFFFFFFFFE000
F00000001FF000
F000000007F800
F000000001FC00
F000000000FE00
F0000000003F00
F0000000003F00
F0000000001F80
F0000000000F80
F0000000000FC0
F00000000007C0
F00000000007E0
F00000000003E0
F00000000003E0
F00000000003E0
F00000000003E0
F00000000001F0
F00000000001F0
F00000000001F0
F00000000001F0
F00000000001F0
F00000000001F0
F00000000001F0
F00000000003E0
F00000000003E0
F00000000003E0
F00000000003E0
F00000000007C0
F00000000007C0
F0000000000FC0
F0000000000F80
F0000000001F80
F0000000003F00
F0000000003F00
F000000000FE00
F000000001FC00
F000000007F800
F00000001FF000
FFFFFFFFFFE000
FFFFFFFFFFC000
FFFFFFFFFF0000
FFFFFFFFFC0000
FFFFFFFFC00000
F0000000000000
F0000000000000
F0000000000000
F0000000000000
F0000000000000
F0000000000000
F0000000000000
F0000000000000
F0000000000000
F0000000000000
F0000000000000
F0000000000000
F0000000000000
F0000000000000
F0000000000000
F0000000000000
F0000000000000
F0000000000000
F0000000000000
F0000000000000
F0000000000000
F0000000000000
F0000000000000
F0000000000000
F0000000000000
F0000000000000
F0000000000000
F0000000000000
F0000000000000
F0000000000000
F0000000000000
ENDCHAR
STARTCHAR 0051
ENCODING 81
SWIDTH 701 0
DWIDTH 76 0
BBX 70 82 3 -2
BITMAP
00000007FFC0000000
000000FFFFFC000000
000007FFFFFF800000
00001FFFFFFFE00000
00007FFFFFFFF80000
0001FFE0001FFE0000
0003FF000003FF0000
0007FC0000007FC000
000FF00000001FE000
001FC00000000FF000
003F8000000003F800
007F0000000001F800
00FE0000000000FC00
01FC00000000007E00
01F800000000003F00
03F000000000003F00
03F000000000001F80
07E000000000000F80
07C000000000000FC0
0FC0000000000007C0
0F80000000000007E0
1F80000000000003E0
1F00000000000003E0
1F00000000000001F0
3F00000000000001F0
3E00000000000001F0
3E00000000000001F8
3E00000000000000F8
7C00000000000000F8
7C00000000000000F8
7C00000000000000F8
7C000000000000007C
7C000000000000007C
7C000000000000007C
78000000000000007C
F8000000000000007C
F8000000000000007C
F8000000000000007C
F8000000000000007C
F8000000000000007C
F8000000000000007C
F8000000000000007C
F8000000000000007C
F8000000000000007C
F8000000000000007C
F8000000000000007C
F8000000000000007C
78000000000000007C
7C000000000000007C
7C000000000000007C
7C000000000000007C
7C00000000000000F8
7C00000000000000F8
7C00000000000000F8
3E00000000000000F8
3E00000000000000F8
3E00000000000001F0
3E00000000000001F0
1F00000000000001F0
1F00000000006003E0
1F8000000000F003E0
0F8000000001F807E0
0FC000000001FC07C0
07C000000000FE0FC0
07E0000000007F0F80
03E0000000003F9F80
03F0000000001FFF00
01F8000000000FFF00
01FC0000000007FE00
00FE0000000003FC00
007F0000000001FC00
003F8000000003FE00
001FC00000000FFF00
000FF00000001FFF80
0007F80000007FDFC0
0003FF000001FF0FE0
0001FFE0001FFE07F0
00007FFFFFFFF803F8
00001FFFFFFFF001F8
000007FFFFFF8000F0
000000FFFFFC000060
00000007FFC0000000
ENDCHAR
STARTCHAR 0052
ENCODING 82
SWIDTH 609 0
DWIDTH 66 0
BBX 54 78 8 0
BITMAP
FFFFFFFFC00000
FFFFFFFFF80000
FFFFFFFFFF0000
FFFFFFFFFFC000
FFFFFFFFFFE000
F00000001FF000
F000000007F800
F000000001FC00
F000000000FE00
F0000000003F00
F0000000003F00
F0000000001F80
F0000000000F80
F0000000000FC0
F00000000007C0
F00000000007E0
F00000000003E0
F00000000003E0
F00000000003E0
F00000000003E0
F00000000001F0
F00000000001F0
F00000000001F0
F00000000001F0
F00000000001F0
F00000000001F0
F00000000001F0
F00000000003E0
F00000000003E0
F00000000003E0
F00000000003E0
F00000000007C0
F00000000007C0
F0000000000FC0
F0000000000F80
F0000000001F80
F0000000003F00
F0000000003F00
F000000000FE00
F000000001FC00
F000000007F800
F00000001FF000
FFFFFFFFFFE000
FFFFFFFFFFC000
FFFFFFFFFF0000
FFFFFFFFFC0000
FFFFFFFFFC0000
F00000003E0000
F00000003E0000
F00000001F0000
F00000001F0000
F00000000F8000
F00000000F8000
F00000000FC000
F000000007C000
F000000007E000
F000000003E000
F000000003F000
F000000001F000
F000000001F800
F000000000F800
F000000000FC00
F0000000007C00
F0000000007E00
F0000000003E00
F0000000003F00
F0000000001F00
F0000000001F80
F0000000000F80
F0000000000FC0
F00000000007C0
F00000000007E0
F00000000003E0
F00000000003F0
F00000000001F0
F00000000001F8
F00000000000F8
F00000000000FC
ENDCHAR
STARTCHAR 0053
ENCODING 83
SWIDTH 590 0
DWIDTH 64 0
BBX 58 82 3 -2
BITMAP
000001FFE0000000
00003FFFFE000000
0000FFFFFFC00000
0003FFFFFFF00000
000FFFFFFFF80000
001FF8000FFE0000
003FC00001FF0000
00FF0000007F8000
00FE0000001FC000
01F80000000FE000
03F000000003F000
03E000000001F800
07E000000000F800
07C000000000FC00
0FC0000000007E00
0F80000000003E00
0F80000000003F00
0F00000000001F00
1F00000000001F00
1F00000000000F80
1F00000000000F80
1F00000000000F80
1F00000000000F80
1F00000000000400
0F80000000000000
0F80000000000000
0FC0000000000000
07C0000000000000
07E0000000000000
03F0000000000000
03F8000000000000
01FE000000000000
00FF800000000000
007FE00000000000
003FFC0000000000
000FFF8000000000
0003FFF800000000
0000FFFF00000000
00001FFFE0000000
000003FFFE000000
0000007FFFC00000
00000007FFF00000
00000000FFFE0000
000000001FFF8000
0000000003FFC000
00000000003FE000
00000000000FF000
000000000003F800
000000000000FC00
0000000000007E00
0000000000003E00
0000000000001F00
0000000000001F00
0000000000000F80
0000000000000F80
0000000000000F80
0000000000000780
0000000000000780
00000000000007C0
00000000000007C0
38000000000007C0
F800000000000780
7C00000000000780
7C00000000000780
7C00000000000F80
3E00000000000F80
3F00000000000F80
1F00000000001F00
1F80000000001F00
0FC0000000003E00
07E0000000007E00
07F000000000FC00
03F800000001FC00
01FE00000003F800
00FF8000000FF000
007FE000003FE000
001FFC0001FFC000
000FFFFFFFFF0000
0003FFFFFFFC0000
00007FFFFFF00000
00001FFFFFC00000
000000FFF8000000
ENDCHAR
STARTCHAR 0054
ENCODING 84
SWIDTH 590 0
DWIDTH 64 0
BBX 62 78 1 0
BITMAP
FFFFFFFFFFFFFFFC
FFFFFFFFFFFFFFFC
FFFFFFFFFFFFFFFC
FFFFFFFFFFFFFFFC
FFFFFFFFFFFFFFFC
0000000780000000
0000000780000000
0000000780000000
0000000780000000
0000000780000000
0000000780000000
0000000780000000
0000000780000000
0000000780000000
0000000780000000
0000000780000000
0000000780000000
0000000780000000
0000000780000000
0000000780000000
0000000780000000
0000000780000000
0000000780000000
0000000780000000
0000000780000000
0000000780000000
0000000780000000
0000000780000000
0000000780000000
0000000780000000
0000000780000000
0000000780000000
0000000780000000
0000000780000000
0000000780000000
0000000780000000
0000000780000000
0000000780000000
0000000780000000
0000000780000000
0000000780000000
0000000780000000
0000000780000000
0000000780000000
0000000780000000
0000000780000000
0000000780000000
0000000780000000
0000000780000000
0000000780000000
0000000780000000
0000000780000000
0000000780000000
0000000780000000
0000000780000000
0000000780000000
0000000780000000
0000000780000000
0000000780000000
0000000780000000
0000000780000000
0000000780000000
0000000780000000
0000000780000000
0000000780000000
0000000780000000
0000000780000000
0000000780000000
0000000780000000
0000000780000000
0000000780000000
0000000780000000
0000000780000000
0000000780000000
0000000780000000
0000000780000000
0000000780000000
0000000780000000
ENDCHAR
STARTCHAR 0055
ENCODING 85
SWIDTH 692 0
DWIDTH 75 0
BBX 59 80 8 -2
BITMAP
F0000000000001E0
F0000000000001E0
F0000000000001E0
F0000000000001E0
F0000000000001E0
F0000000000001E0
F0000000000001E0
F0000000000001E0
F0000000000001E0
F0000000000001E0
F0000000000001E0
F0000000000001E0
F0000000000001E0
F0000000000001E0
F0000000000001E0
F0000000000001E0
F0000000000001E0
F0000000000001E0
F0000000000001E0
F0000000000001E0
F0000000000001E0
F0000000000001E0
F0000000000001E0
F0000000000001E0
F0000000000001E0
F0000000000001E0
F0000000000001E0
F0000000000001E0
F0000000000001E0
F0000000000001E0
F0000000000001E0
F0000000000001E0
F0000000000001E0
F0000000000001E0
F0000000000001E0
F0000000000001E0
F0000000000001E0
F0000000000001E0
F0000000000001E0
F0000000000001E0
F0000000000001E0
F0000000000001E0
F0000000000001E0
F0000000000001E0
F0000000000001E0
F0000000000001E0
F0000000000001E0
F0000000000001E0
F0000000000001E0
F0000000000001E0
F0000000000001E0
F0000000000001E0
F0000000000003E0
F0000000000003E0
F8000000000003E0
F8000000000003E0
F8000000000003E0
F8000000000003C0
F8000000000007C0
7C000000000007C0
7C00000000000FC0
7E00000000000F80
3E00000000000F80
3F00000000001F80
1F00000000003F00
1F80000000003F00
0FC0000000007E00
0FE000000000FC00
07F000000001FC00
03F800000003F800
01FC00000007F000
01FE0000001FE000
007F8000003FC000
003FE00000FF8000
001FFC0007FF0000
000FFFE1FFFC0000
0003FFFFFFF80000
0000FFFFFFC00000
00001FFFFF000000
000001FFF0000000
ENDCHAR
STARTCHAR 0056
ENCODING 86
SWIDTH 581 0
DWIDTH 63 0
BBX 61 78 1 0
BITMAP
F8000000000000F8
F8000000000000F8
F8000000000001F0
7C000000000001F0
7C000000000001F0
3C000000000003E0
3E000000000003E0
3E000000000003C0
1F000000000007C0
1F000000000007C0
1F00000000000F80
0F80000000000F80
0F80000000000F80
0F80000000001F00
07C0000000001F00
07C0000000001F00
03C0000000003E00
03E0000000003E00
03E0000000003C00
01E0000000007C00
01F0000000007C00
01F000000000F800
00F800000000F800
00F800000000F800
00F800000001F000
007C00000001F000
007C00000001F000
003C00000003E000
003E00000003E000
003E00000003C000
001E00000007C000
001F00000007C000
001F0000000F8000
000F8000000F8000
000F8000000F8000
000F8000001F0000
0007C000001F0000
0007C000001F0000
0003C000003E0000
0003E000003E0000
0003E000003C0000
0001E000007C0000
0001F000007C0000
0001F00000F80000
0000F80000F80000
0000F80000F80000
0000F80001F00000
00007C0001F00000
00007C0001F00000
00003C0003E00000
00003E0003E00000
00003E0003C00000
00001E0007C00000
00001F0007C00000
00001F000F800000
00000F800F800000
00000F800F800000
00000F801F000000
000007C01F000000
000007C01F000000
000003C03E000000
000003E03E000000
000003E03C000000
000001E07C000000
000001F07C000000
000001F0F8000000
000000F8F8000000
000000F8F8000000
000000F9F0000000
0000007DF0000000
0000007DF0000000
0000003FE0000000
0000003FE0000000
0000003FC0000000
0000001FC0000000
0000001FC0000000
0000001F80000000
0000000F80000000
ENDCHAR
STARTCHAR 0057
ENCODING 87
SWIDTH 904 0
DWIDTH 98 0
BBX 94 78 2 0
BITMAP
F80000000007C0000000007C
78000000000FC0000000007C
7C000000000FC0000000007C
7C000000000FE00000000078
7C000000000FE000000000F8
3C000000001FE000000000F8
3E000000001FE000000000F0
3E000000001FF000000001F0
1E000000003FF000000001F0
1F000000003FF000000001F0
1F000000003EF800000001E0
1F000000003CF800000003E0
0F000000007CF800000003E0
0F800000007C7800000003C0
0F80000000787C00000007C0
0780000000F87C00000007C0
07C0000000F83C00000007C0
07C0000000F83E0000000780
07C0000000F03E0000000F80
03C0000001F03E0000000F80
03E0000001F01E0000000F00
03E0000001E01F0000001F00
01E0000003E01F0000001F00
01F0000003E00F0000001F00
01F0000003E00F8000001E00
01F0000003C00F8000003E00
00F0000007C00F8000003E00
00F8000007C0078000003C00
00F80000078007C000007C00
007800000F8007C000007C00
007C00000F8003C000007C00
007C00000F8003E000007800
007C00000F0003E00000F800
003C00001F0003E00000F800
003E00001F0001E00000F000
003E00001E0001F00001F000
001E00003E0001F00001F000
001F00003E0000F00001F000
001F00003E0000F80001E000
001F00003C0000F80003E000
000F00007C0000F80003E000
000F80007C00007C0003C000
000F80007800007C0007C000
00078000F800007C0007C000
0007C000F800003C0007C000
0007C000F800003E00078000
0007C000F000003E000F8000
0003C001F000003E000F8000
0003E001F000001F000F0000
0003E001E000001F001F0000
0001E003E000001F001F0000
0001F003E000000F001F0000
0001F003E000000F801E0000
0001F003C000000F803E0000
0000F007C000000F803E0000
0000F807C0000007C03C0000
0000F80780000007C07C0000
0000780F80000007C07C0000
00007C0F80000003C07C0000
00007C0F80000003E0780000
00007C0F00000003E0F80000
00003C1F00000003E0F80000
00003E1F00000001F0F00000
00003E1E00000001F1F00000
00001E3E00000001F1F00000
00001F3E00000000F1F00000
00001F3E00000000F9E00000
00001F3C00000000FBE00000
00000FFC00000000FBE00000
00000FFC000000007FC00000
00000FF8000000007FC00000
000007F8000000007FC00000
000007F8000000003FC00000
000007F8000000003F800000
000007F0000000003F800000
000003F0000000003F800000
000003F0000000001F000000
000003E0000000001F000000
ENDCHAR
STARTCHAR 0058
ENCODING 88
SWIDTH 572 0
DWIDTH 62 0
BBX 60 78 1 0
BITMAP
7E000000000003E0
3E000000000007C0
3F00000000000FC0
1F80000000001F80
0F80000000001F00
07C0000000003F00
07E0000000007E00
03E0000000007C00
01F000000000F800
01F800000001F800
00F800000001F000
007C00000003E000
007E00000007E000
003E00000007C000
001F0000000F8000
001F8000001F8000
000F8000001F0000
0007C000003E0000
0003E000007C0000
0003F000007C0000
0001F00000F80000
0000F80001F00000
0000FC0003F00000
00007C0003E00000
00003E0007C00000
00003F000FC00000
00001F000F800000
00000F801F000000
000007C03F000000
000007C03E000000
000003E07C000000
000001F0F8000000
000001F0F8000000
000000F9F0000000
0000007FE0000000
0000007FE0000000
0000003FC0000000
0000001F80000000
0000001F80000000
0000001F80000000
0000003FC0000000
0000007FE0000000
0000007FE0000000
000000F9F0000000
000001F0F8000000
000001F0F8000000
000003E07C000000
000007C03E000000
000007C03F000000
00000F801F000000
00001F000F800000
00003F000FC00000
00003E0007C00000
00007C0003E00000
0000FC0003F00000
0000F80001F00000
0001F00000F80000
0003F00000FC0000
0003E000007C0000
0007C000003E0000
000F8000001F0000
000F8000001F8000
001F0000000F8000
003E00000007C000
007E00000007E000
007C00000003E000
00F800000001F000
01F800000001F800
01F000000000F800
03E0000000007C00
07E0000000007E00
07C0000000003E00
0F80000000001F00
1F80000000001F80
3F00000000000FC0
3E000000000007C0
7E000000000003E0
FC000000000003F0
ENDCHAR
STARTCHAR 0059
ENCODING 89
SWIDTH 516 0
DWIDTH 56 0
BBX 56 78 0 0
BITMAP
F800000000001F
7C00000000003E
7E00000000003E
3E00000000007C
1F0000000000FC
1F0000000000F8
0F8000000001F0
0FC000000001F0
07C000000003E0
07E000000003E0
03E000000007C0
01F00000000FC0
01F00000000F80
00F80000001F00
00FC0000001F00
007C0000003E00
003E0000007E00
003E0000007C00
001F000000FC00
001F000000F800
000F800001F000
000FC00001F000
0007C00003E000
0003E00007E000
0003E00007C000
0001F0000FC000
0001F8000F8000
0000F8001F0000
0000FC001F0000
00007C003E0000
00003E007E0000
00003E007C0000
00001F00FC0000
00001F80F80000
00000F81F00000
00000FC1F00000
000007C3E00000
000003E7E00000
000003E7C00000
000001FFC00000
000001FF800000
000000FF000000
0000007F000000
0000007E000000
0000003E000000
0000003C000000
0000003C000000
0000003C000000
0000003C000000
0000003C000000
0000003C000000
0000003C000000
0000003C000000
0000003C000000
0000003C000000
0000003C000000
0000003C000000
0000003C000000
0000003C000000
0000003C000000
0000003C000000
0000003C000000
0000003C000000
0000003C000000
0000003C000000
0000003C000000
0000003C000000
0000003C000000
0000003C000000
0000003C000000
0000003C000000
0000003C000000
0000003C000000
0000003C000000
0000003C000000
0000003C000000
0000003C000000
0000003C000000
ENDCHAR
STARTCHAR 005A
ENCODING 90
SWIDTH 581 0
DWIDTH 63 0
BBX 53 78 5 0
BITMAP
FFFFFFFFFFFFF8
FFFFFFFFFFFFF8
FFFFFFFFFFFFF0
FFFFFFFFFFFFE0
FFFFFFFFFFFFE0
000000000007C0
000000000007C0
00000000000F80
00000000001F00
00000000001F00
00000000003E00
00000000007C00
00000000007C00
0000000000F800
0000000000F800
0000000001F000
0000000003E000
0000000003E000
0000000007C000
000000000F8000
000000000F8000
000000001F0000
000000003F0000
000000003E0000
000000007C0000
000000007C0000
00000000F80000
00000001F00000
00000001F00000
00000003E00000
00000007C00000
00000007C00000
0000000F800000
0000001F800000
0000001F000000
0000003E000000
0000003E000000
0000007C000000
000000F8000000
000000F8000000
000001F0000000
000003F0000000
000003E0000000
000007C0000000
000007C0000000
00000F80000000
00001F00000000
00001F00000000
00003E00000000
00007E00000000
00007C00000000
0000F800000000
0001F800000000
0001F000000000
0003E000000000
0003E000000000
0007C000000000
000F8000000000
000F8000000000
001F0000000000
003F0000000000
003E0000000000
007C0000000000
007C0000000000
00F80000000000
01F00000000000
01F00000000000
03E00000000000
07E00000000000
07C00000000000
0F800000000000
1F800000000000
1F000000000000
3E000000000000
3FFFFFFFFFFFF8
7FFFFFFFFFFFF8
FFFFFFFFFFFFF8
FFFFFFFFFFFFF8
ENDCHAR
STARTCHAR 005B
ENCODING 91
SWIDTH 396 0
DWIDTH 43 0
BBX 18 120 15 -24
BITMAP
FFFFC0
FFFFC0
FFFFC0
FFFFC0
FFFFC0
F80000
F80000
F80000
F80000
F80000
F80000
F80000
F80000
F80000
F80000
F80000
F80000
F80000
F80000
F80000
F80000
F80000
F80000
F80000
F80000
F80000
F80000
F80000
F80000
F80000
F80000
F80000
F80000
F80000
F80000
F80000
F80000
F80000
F80000
F80000
F80000
F80000
F80000
F80000
F80000
F80000
F80000
F80000
F80000
F80000
F80000
F80000
F80000
F80000
F80000
F80000
F80000
F80000
F80000
F80000
F80000
F80000
F80000
F80000
F80000
F80000
F80000
F80000
F80000
F80000
F80000
F80000
F80000
F80000
F80000
F80000
F80000
F80000
F80000
F80000
F80000
F80000
F80000
F80000
F80000
F80000
F80000
F80000
F80000
F80000
F80000
F80000
F80000
F80000
F80000
F80000
F80000
F80000
F80000
F80000
F80000
F80000
F80000
F80000
F80000
F80000
F80000
F80000
F80000
F80000
F80000
F80000
F80000
F80000
F80000
FFFFC0
FFFFC0
FFFFC0
FFFFC0
FFFFC0
ENDCHAR
STARTCHAR 005C
ENCODING 92
SWIDTH 360 0
DWIDTH 39 0
BBX 25 78 7 0
BITMAP
F8000000
F8000000
F8000000
F8000000
7C000000
7C000000
7C000000
7C000000
3E000000
3E000000
3E000000
1E000000
1F000000
1F000000
1F000000
0F800000
0F800000
0F800000
0F800000
07C00000
07C00000
07C00000
07C00000
03E00000
03E00000
03E00000
01E00000
01F00000
01F00000
01F00000
00F80000
00F80000
00F80000
00F80000
007C0000
007C0000
007C0000
007C0000
003E0000
003E0000
003E0000
001E0000
001F0000
001F0000
001F0000
000F8000
000F8000
000F8000
000F8000
0007C000
0007C000
0007C000
0007C000
0003E000
0003E000
0003E000
0001E000
0001F000
0001F000
0001F000
0000F800
0000F800
0000F800
0000F800
00007C00
00007C00
00007C00
00007C00
00003E00
00003E00
00003E00
00001E00
00001F00
00001F00
00001F00
00000F80
00000F80
00000F80
ENDCHAR
STARTCHAR 005D
ENCODING 93
SWIDTH 396 0
DWIDTH 43 0
BBX 18 120 10 -24
BITMAP
FFFFC0
FFFFC0
FFFFC0
FFFFC0
FFFFC0
0007C0
0007C0
0007C0
0007C0
0007C0
0007C0
0007C0
0007C0
0007C0
0007C0
0007C0
0007C0
0007C0
0007C0
0007C0
0007C0
0007C0
0007C0
0007C0
0007C0
0007C0
0007C0
0007C0
0007C0
0007C0
0007C0
0007C0
0007C0
0007C0
0007C0
0007C0
0007C0
0007C0
0007C0
0007C0
0007C0
0007C0
0007C0
0007C0
0007C0
0007C0
0007C0
0007C0
0007C0
0007C0
0007C0
0007C0
0007C0
0007C0
0007C0
0007C0
0007C0
0007C0
0007C0
0007C0
0007C0
0007C0
0007C0
0007C0
0007C0
0007C0
0007C0
0007C0
0007C0
0007C0
0007C0
0007C0
0007C0
0007C0
0007C0
0007C0
0007C0
0007C0
0007C0
0007C0
0007C0
0007C0
0007C0
0007C0
0007C0
0007C0
0007C0
0007C0
0007C0
0007C0
0007C0
0007C0
0007C0
0007C0
0007C0
0007C0
0007C0
0007C0
0007C0
0007C0
0007C0
0007C0
0007C0
0007C0
0007C0
0007C0
0007C0
0007C0
0007C0
0007C0
0007C0
0007C0
0007C0
0007C0
0007C0
FFFFC0
FFFFC0
FFFFC0
FFFFC0
FFFFC0
ENDCHAR
STARTCHAR 005E
ENCODING 94
SWIDTH 664 0
DWIDTH 72 0
BBX 49 28 12 52
BITMAP
00000080000000
000001C0000000
000003E0000000
000007F0000000
00000FF8000000
00001FFC000000
00003F7E000000
00007E3F000000
0000FC1F800000
0001F80FC00000
0003F007E00000
0007E003F00000
000FC001F80000
001F8000FC0000
003F00007E0000
007E00003F0000
00FC00001F8000
01F800000FC000
03F0000007E000
07E0000003F000
0FC0000001F800
1F80000000FC00
3F000000007E00
7E000000003F00
FC000000001F80
F8000000000F80
70000000000700
20000000000200
ENDCHAR
STARTCHAR 005F
ENCODING 95
SWIDTH 664 0
DWIDTH 72 0
BBX 72 5 0 -11
BITMAP
FFFFFFFFFFFFFFFFFF
FFFFFFFFFFFFFFFFFF
FFFFFFFFFFFFFFFFFF
FFFFFFFFFFFFFFFFFF
FFFFFFFFFFFFFFFFFF
ENDCHAR
STARTCHAR 0060
ENCODING 96
SWIDTH 461 0
DWIDTH 50 0
BBX 10 15 19 88
BITMAP
F800
7800
7C00
7C00
3C00
3E00
3E00
1F00
1F00
1F00
0F80
0F80
0780
07C0
07C0
ENDCHAR
STARTCHAR 0061
ENCODING 97
SWIDTH 544 0
DWIDTH 59 0
BBX 48 62 4 -2
BITMAP
00000FFF0000
0000FFFFE000
0003FFFFFC00
000FFFFFFF00
003FFFFFFF80
007FE0007FC0
00FF00000FE0
01FC000007F0
03F8000001F8
03F0000000F8
07E0000000FC
0FC00000007C
0FC00000003E
0F800000003E
1F800000003E
1F000000001F
1F000000001F
07000000001F
00000000001F
00000000001F
00000000001F
00000000000F
00000000000F
00000000000F
00000000001F
000000003FFF
0000001FFFFF
00000FFFFFFF
0001FFFFFFFF
000FFFFFF80F
007FFFF8000F
00FFFC00000F
03FF8000000F
07FC0000000F
0FF00000000F
1FC00000001F
1F800000001F
3F000000001F
7E000000001F
7C000000001F
7C000000001F
7C000000001F
F8000000003F
F8000000003F
F8000000003F
F8000000007F
F8000000007F
F800000000FF
7C00000001FF
7C00000001FF
7C00000003FF
3E00000007EF
3F0000000FCF
1F8000003F8F
1FC000007F0F
0FE00001FE0F
07FC000FFC0F
03FFFFFFF80F
01FFFFFFE00F
007FFFFF800F
001FFFFE0000
0001FFC00000
ENDCHAR
STARTCHAR 0062
ENCODING 98
SWIDTH 572 0
DWIDTH 62 0
BBX 50 80 8 -2
BITMAP
F0000000000000
F0000000000000
F0000000000000
F0000000000000
F0000000000000
F0000000000000
F0000000000000
F0000000000000
F0000000000000
F0000000000000
F0000000000000
F0000000000000
F0000000000000
F0000000000000
F0000000000000
F0000000000000
F0000000000000
F0000000000000
F0000FFC000000
F0007FFFC00000
F003FFFFF00000
F00FFFFFFC0000
F01FFFFFFE0000
F03FC001FF0000
F07F00003F8000
F0FC00001FC000
F1F0000007E000
F3E0000003F000
F7C0000001F800
F780000000F800
FF80000000FC00
FF000000007C00
FE000000003E00
FE000000003E00
FC000000001F00
FC000000001F00
FC000000001F00
F8000000000F80
F8000000000F80
F8000000000F80
F8000000000F80
F0000000000780
F00000000007C0
F00000000007C0
F00000000007C0
F00000000007C0
F00000000007C0
F00000000007C0
F00000000007C0
F00000000007C0
F00000000007C0
F00000000007C0
F00000000007C0
F00000000007C0
F00000000007C0
F00000000007C0
F0000000000F80
F8000000000F80
F8000000000F80
F8000000000F80
F8000000000F80
FC000000001F00
FC000000001F00
FE000000003F00
FE000000003E00
FE000000007E00
FF000000007C00
F780000000FC00
F7C0000001F800
F3C0000001F800
F3E0000003F000
F1F000000FE000
F0FC00001FC000
F07F00007F8000
F03FC001FF0000
F01FFFFFFE0000
F00FFFFFFC0000
F003FFFFF00000
0000FFFFC00000
00001FFC000000
ENDCHAR
STARTCHAR 0063
ENCODING 99
SWIDTH 535 0
DWIDTH 58 0
BBX 51 62 4 -2
BITMAP
000007FF000000
00007FFFF00000
0001FFFFFE0000
0007FFFFFF8000
001FFFFFFFC000
003FF0003FF000
007FC0000FF800
00FF000003FC00
01FC000000FE00
03F80000007F00
03F00000003F00
07E00000001F80
07C00000000FC0
0FC000000007C0
0F8000000007E0
1F000000000300
1F000000000000
3F000000000000
3E000000000000
3E000000000000
3E000000000000
7C000000000000
7C000000000000
7C000000000000
7C000000000000
7C000000000000
78000000000000
F8000000000000
F8000000000000
F8000000000000
F8000000000000
F8000000000000
F8000000000000
F8000000000000
F8000000000000
78000000000000
7C000000000000
7C000000000000
7C000000000000
7C000000000000
7C000000000000
3E000000000000
3E000000000000
3E000000000000
3F000000000000
1F000000000000
1F000000000300
0F8000000007C0
0FC000000007C0
07C00000000FC0
07E00000001F80
03F00000003F00
01F80000007F00
01FC000000FE00
00FF000003FC00
007F80000FF800
003FF0003FF000
000FFFFFFFC000
0007FFFFFF8000
0001FFFFFE0000
00003FFFF80000
000003FF800000
ENDCHAR
STARTCHAR 0064
ENCODING 100
SWIDTH 572 0
DWIDTH 62 0
BBX 51 80 4 -2
BITMAP
000000000003E0
000000000003E0
000000000003E0
000000000003E0
000000000003E0
000000000003E0
000000000003E0
000000000003E0
000000000003E0
000000000003E0
000000000003E0
000000000003E0
000000000003E0
000000000003E0
000000000003E0
000000000003E0
000000000003E0
000000000003E0
00000FFC0003E0
0000FFFFC003E0
0003FFFFF003E0
000FFFFFFC03E0
001FFFFFFE03E0
003FE000FF83E0
007F80001FC3E0
00FE000007E3E0
01FC000003E3E0
03F8000001F3E0
03F0000000FBE0
07E00000007BE0
0FC00000003FE0
0F800000003FE0
1F800000001FE0
1F000000001FE0
1F000000000FE0
3E000000000FE0
3E0000000007E0
3E0000000007E0
7C0000000007E0
7C0000000003E0
7C0000000003E0
7C0000000003E0
7C0000000003E0
780000000003E0
F80000000003E0
F80000000003E0
F80000000003E0
F80000000001E0
F80000000001E0
F80000000001E0
F80000000001E0
F80000000003E0
F80000000003E0
780000000003E0
7C0000000003E0
7C0000000003E0
7C0000000003E0
7C0000000003E0
7C0000000007E0
3E0000000007E0
3E0000000007E0
3E0000000007E0
3E000000000FE0
1F000000000FE0
1F000000001FE0
0F800000001FE0
0F800000003DE0
07C00000003DE0
07E000000079E0
03F0000000F9E0
03F8000001F1E0
01FC000003E1E0
00FE00000FE1E0
007F80001FC1E0
003FE000FF81E0
001FFFFFFE01E0
0007FFFFFC01E0
0001FFFFF001E0
00007FFFC00000
000007FE000000
ENDCHAR
STARTCHAR 0065
ENCODING 101
SWIDTH 572 0
DWIDTH 62 0
BBX 54 62 4 -2
BITMAP
000007FF800000
00007FFFF80000
0001FFFFFE0000
0007FFFFFF8000
000FFFFFFFC000
003FF0003FF000
007FC00007F800
00FF000003FC00
01FC000000FE00
03F80000007E00
03F00000003F00
07E00000001F80
07C00000000F80
0FC00000000FC0
0F8000000007C0
1F0000000007E0
1F0000000003E0
3E0000000003F0
3E0000000001F0
3E0000000001F0
7C0000000001F0
7C0000000000F8
7C0000000000F8
7C0000000000F8
7C0000000000F8
7C0000000000F8
78000000000078
F800000000007C
FFFFFFFFFFFFFC
FFFFFFFFFFFFFC
FFFFFFFFFFFFFC
FFFFFFFFFFFFFC
FFFFFFFFFFFFFC
F8000000000000
F8000000000000
F8000000000000
78000000000000
7C000000000000
7C000000000000
7C000000000000
7C000000000000
7C000000000000
3E000000000000
3E000000000000
3E000000000080
1F0000000000E0
1F0000000001F0
1F8000000001F0
0F8000000003E0
0FC000000007E0
07E00000000FC0
03F00000001F80
03F80000003F00
01FC0000007F00
00FE000001FE00
007F800007FC00
003FF0003FF000
000FFFFFFFE000
0007FFFFFF8000
0001FFFFFE0000
00003FFFF80000
000003FF800000
ENDCHAR
STARTCHAR 0066
ENCODING 102
SWIDTH 341 0
DWIDTH 37 0
BBX 33 80 3 0
BITMAP
00000FFF80
00007FFF80
0000FFFF80
0003FFFF80
0003FC0000
0007E00000
000FC00000
000F800000
000F800000
001F000000
001F000000
001F000000
001F000000
001E000000
001E000000
001E000000
001E000000
001E000000
001E000000
001E000000
001E000000
FFFFFFFF80
FFFFFFFF80
FFFFFFFF80
FFFFFFFF80
FFFFFFFF80
001E000000
001E000000
001E000000
001E000000
001E000000
001E000000
001E000000
001E000000
001E000000
001E000000
001E000000
001E000000
001E000000
001E000000
001E000000
001E000000
001E000000
001E000000
001E000000
001E000000
001E000000
001E000000
001E000000
001E000000
001E000000
001E000000
001E000000
001E000000
001E000000
001E000000
001E000000
001E000000
001E000000
001E000000
001E000000
001E000000
001E000000
001E000000
001E000000
001E000000
001E000000
001E000000
001E000000
001E000000
001E000000
001E000000
001E000000
001E000000
001E000000
001E000000
001E000000
001E000000
001E000000
001E000000
ENDCHAR
STARTCHAR 0067
ENCODING 103
SWIDTH 572 0
DWIDTH 62 0
BBX 51 88 4 -28
BITMAP
00000FFC000000
0000FFFFC001E0
0003FFFFF001E0
000FFFFFFC01E0
001FFFFFFE01E0
003FE000FF81E0
007F80001FC1E0
00FE000007E1E0
01FC000003F1E0
03F8000001F1E0
03F0000000F9E0
07E00000007DE0
0FC00000003DE0
0F800000003FE0
1F800000001FE0
1F000000001FE0
1F000000000FE0
3E000000000FE0
3E0000000007E0
3E0000000007E0
7C0000000007E0
7C0000000003E0
7C0000000003E0
7C0000000003E0
7C0000000003E0
780000000003E0
F80000000003E0
F80000000003E0
F80000000003E0
F80000000001E0
F80000000001E0
F80000000001E0
F80000000001E0
F80000000003E0
F80000000003E0
780000000003E0
7C0000000003E0
7C0000000003E0
7C0000000003E0
7C0000000003E0
7C0000000007E0
3E0000000007E0
3E0000000007E0
3E0000000007E0
3E000000000FE0
1F000000000FE0
1F000000001FE0
0F800000001FE0
0F800000003FE0
07C00000003FE0
07E00000007BE0
03F0000000FBE0
03F8000001F3E0
01FC000003E3E0
00FE00000FE3E0
007F80001FC3E0
003FE000FF83E0
001FFFFFFE03E0
0007FFFFFC03E0
0001FFFFF003E0
00007FFFC003E0
000007FE0003E0
000000000003E0
000000000003E0
000000000003E0
000000000003C0
000000000003C0
000000000007C0
000000000007C0
000000000007C0
000000000007C0
00000000000F80
00000000000F80
07000000000F80
0F000000001F80
1F800000001F00
0FC00000003F00
0FE00000007E00
07F0000000FE00
03F8000001FC00
01FE000003F800
00FF80000FF800
007FE0007FF000
003FFFFFFFC000
000FFFFFFF8000
0003FFFFFE0000
0000FFFFF80000
00000FFF000000
ENDCHAR
STARTCHAR 0068
ENCODING 104
SWIDTH 572 0
DWIDTH 62 0
BBX 48 78 8 0
BITMAP
F00000000000
F00000000000
F00000000000
F00000000000
F00000000000
F00000000000
F00000000000
F00000000000
F00000000000
F00000000000
F00000000000
F00000000000
F00000000000
F00000000000
F00000000000
F00000000000
F00000000000
F00000000000
F0001FF80000
F001FFFF8000
F00FFFFFE000
F01FFFFFF800
F07FFEFFFC00
F0FF8001FE00
F1FC00007F00
F3F800001F80
F7E000000FC0
F7C0000007E0
FF80000003E0
FF80000001F0
FF00000001F0
FE00000000F8
FE00000000F8
FC000000007C
FC000000007C
FC000000003C
F8000000003E
F8000000003E
F8000000003E
F8000000003E
F0000000001E
F0000000001E
F0000000001E
F0000000001E
F0000000001F
F0000000001F
F0000000001F
F0000000001F
F0000000001F
F0000000001F
F0000000001F
F0000000001F
F0000000001F
F0000000001F
F0000000001F
F0000000001F
F0000000001F
F0000000001F
F0000000001F
F0000000001F
F0000000001F
F0000000001F
F0000000001F
F0000000001F
F0000000001F
F0000000001F
F0000000001F
F0000000001F
F0000000001F
F0000000001F
F0000000001F
F0000000001F
F0000000001F
F0000000001F
F0000000001F
F0000000001F
F0000000001F
F0000000001F
ENDCHAR
STARTCHAR 0069
ENCODING 105
SWIDTH 203 0
DWIDTH 22 0
BBX 4 78 9 0
BITMAP
F0
F0
F0
F0
F0
F0
F0
00
00
00
00
00
00
00
00
00
00
00
00
F0
F0
F0
F0
F0
F0
F0
F0
F0
F0
F0
F0
F0
F0
F0
F0
F0
F0
F0
F0
F0
F0
F0
F0
F0
F0
F0
F0
F0
F0
F0
F0
F0
F0
F0
F0
F0
F0
F0
F0
F0
F0
F0
F0
F0
F0
F0
F0
F0
F0
F0
F0
F0
F0
F0
F0
F0
F0
F0
ENDCHAR
STARTCHAR 006A
ENCODING 106
SWIDTH 221 0
DWIDTH 24 0
BBX 17 104 -1 -26
BITMAP
000F80
000F80
000F80
000F80
000F80
000F80
000F80
000000
000000
000000
000000
000000
000000
000000
000000
000000
000000
000000
000000
000F80
000F80
000F80
000F80
000F80
000F80
000F80
000F80
000F80
000F80
000F80
000F80
000F80
000F80
000F80
000F80
000F80
000F80
000F80
000F80
000F80
000F80
000F80
000F80
000F80
000F80
000F80
000F80
000F80
000F80
000F80
000F80
000F80
000F80
000F80
000F80
000F80
000F80
000F80
000F80
000F80
000F80
000F80
000F80
000F80
000F80
000F80
000F80
000F80
000F80
000F80
000F80
000F80
000F80
000F80
000F80
000F80
000F80
000F80
000F80
000F80
000F80
000F80
000F80
000F80
000F80
000F80
000F80
000F80
000F80
000F80
000F80
000F80
000F80
000F00
001F00
001F00
003F00
007F00
00FE00
FFFE00
FFFC00
FFF800
FFE000
FF0000
ENDCHAR
STARTCHAR 006B
ENCODING 107
SWIDTH 470 0
DWIDTH 51 0
BBX 44 78 8 0
BITMAP
F00000000000
F00000000000
F00000000000
F00000000000
F00000000000
F00000000000
F00000000000
F00000000000
F00000000000
F00000000000
F00000000000
F00000000000
F00000000000
F00000000000
F00000000000
F00000000000
F00000000000
F00000000000
F00000000000
F00000007F00
F0000000FE00
F0000001FC00
F0000003F800
F0000007F000
F000000FE000
F000001F8000
F000003F0000
F000007E0000
F00000FC0000
F00001F80000
F00003F00000
F0000FE00000
F0001FC00000
F0003F800000
F0007F000000
F000FE000000
F001FC000000
F003F8000000
F007F0000000
F00FE0000000
F01FC0000000
F03F80000000
F07F00000000
F0FE00000000
F1FC00000000
F3F800000000
F7F000000000
FFE000000000
FFC000000000
FFE000000000
F7F000000000
F3F800000000
F1FC00000000
F07F00000000
F03F80000000
F01FC0000000
F00FE0000000
F007F0000000
F003FC000000
F000FE000000
F0007F000000
F0003F800000
F0001FC00000
F0000FF00000
F00007F80000
F00001FC0000
F00000FE0000
F000007F0000
F000003FC000
F000001FE000
F000000FF000
F0000003F800
F0000001FC00
F0000000FF00
F00000007F80
F00000003FC0
F00000001FE0
F00000000FF0
ENDCHAR
STARTCHAR 006C
ENCODING 108
SWIDTH 203 0
DWIDTH 22 0
BBX 4 78 9 0
BITMAP
F0
F0
F0
F0
F0
F0
F0
F0
F0
F0
F0
F0
F0
F0
F0
F0
F0
F0
F0
F0
F0
F0
F0
F0
F0
F0
F0
F0
F0
F0
F0
F0
F0
F0
F0
F0
F0
F0
F0
F0
F0
F0
F0
F0
F0
F0
F0
F0
F0
F0
F0
F0
F0
F0
F0
F0
F0
F0
F0
F0
F0
F0
F0
F0
F0
F0
F0
F0
F0
F0
F0
F0
F0
F0
F0
F0
F0
F0
ENDCHAR
STARTCHAR 006D
ENCODING 109
SWIDTH 812 0
DWIDTH 88 0
BBX 74 60 8 0
BITMAP
0001FF8000003FE00000
F00FFFF00003FFFE0000
F03FFFFC000FFFFF8000
F0FFFFFF001FFFFFC000
F1FF01FF807FE03FE000
F3F8003FC0FF0007F800
F7E0000FE1FC0001F800
FFC00007E1F00000FC00
FF800003F3E000007E00
FF000001FFC000003E00
FE000000FFC000001F00
FC000000FF8000001F00
FC0000007F8000000F80
F80000007F0000000F80
F80000003F0000000F80
F80000003F0000000780
F80000003E0000000780
F00000003E00000007C0
F00000003E00000007C0
F00000003E00000007C0
F00000003E00000007C0
F00000003E00000007C0
F00000003E00000007C0
F00000003E00000007C0
F00000003E00000007C0
F00000003E00000007C0
F00000003E00000007C0
F00000003E00000007C0
F00000003E00000007C0
F00000003E00000007C0
F00000003E00000007C0
F00000003E00000007C0
F00000003E00000007C0
F00000003E00000007C0
F00000003E00000007C0
F00000003E00000007C0
F00000003E00000007C0
F00000003E00000007C0
F00000003E00000007C0
F00000003E00000007C0
F00000003E00000007C0
F00000003E00000007C0
F00000003E00000007C0
F00000003E00000007C0
F00000003E00000007C0
F00000003E00000007C0
F00000003E00000007C0
F00000003E00000007C0
F00000003E00000007C0
F00000003E00000007C0
F00000003E00000007C0
F00000003E00000007C0
F00000003E00000007C0
F00000003E00000007C0
F00000003E00000007C0
F00000003E00000007C0
F00000003E00000007C0
F00000003E00000007C0
F00000003E00000007C0
F00000003E00000007C0
ENDCHAR
STARTCHAR 006E
ENCODING 110
SWIDTH 572 0
DWIDTH 62 0
BBX 48 60 8 0
BITMAP
00001FF80000
F001FFFF8000
F00FFFFFE000
F01FFFFFF800
F07FFEFFFC00
F0FF8001FE00
F1FC00007F00
F3F800001F80
F7E000000FC0
F7C0000007E0
FF80000003E0
FF80000001F0
FF00000001F0
FE00000000F8
FE00000000F8
FC000000007C
FC000000007C
FC000000003C
F8000000003E
F8000000003E
F8000000003E
F8000000003E
F0000000001E
F0000000001E
F0000000001E
F0000000001E
F0000000001F
F0000000001F
F0000000001F
F0000000001F
F0000000001F
F0000000001F
F0000000001F
F0000000001F
F0000000001F
F0000000001F
F0000000001F
F0000000001F
F0000000001F
F0000000001F
F0000000001F
F0000000001F
F0000000001F
F0000000001F
F0000000001F
F0000000001F
F0000000001F
F0000000001F
F0000000001F
F0000000001F
F0000000001F
F0000000001F
F0000000001F
F0000000001F
F0000000001F
F0000000001F
F0000000001F
F0000000001F
F0000000001F
F0000000001F
ENDCHAR
STARTCHAR 006F
ENCODING 111
SWIDTH 572 0
DWIDTH 62 0
BBX 54 62 4 -2
BITMAP
000007FF800000
00003FFFF80000
0001FFFFFE0000
0007FFFFFF8000
000FFFFFFFC000
003FF0003FF000
007F800007F800
00FF000001FC00
01FC000000FE00
01F80000007F00
03F00000003F00
07E00000001F80
07C00000000FC0
0F8000000007C0
0F8000000007E0
1F0000000003E0
1F0000000003E0
3E0000000001F0
3E0000000001F0
3E0000000001F0
7C0000000000F8
7C0000000000F8
7C0000000000F8
7C0000000000F8
7C000000000078
7C00000000007C
F800000000007C
F800000000007C
F800000000007C
F800000000007C
F800000000007C
F800000000007C
F800000000007C
F800000000007C
F800000000007C
7800000000007C
7C00000000007C
7C0000000000F8
7C0000000000F8
7C0000000000F8
7C0000000000F8
7C0000000000F8
3E0000000001F0
3E0000000001F0
3E0000000001F0
1F0000000003E0
1F0000000003E0
0F8000000007E0
0FC000000007C0
07C00000000FC0
07E00000001F80
03F00000003F00
01F80000007F00
01FC000000FE00
00FF000001FC00
007F800007F800
003FF0003FF000
000FFFFFFFE000
0007FFFFFF8000
0001FFFFFE0000
00007FFFF80000
000003FF800000
ENDCHAR
STARTCHAR 0070
ENCODING 112
SWIDTH 572 0
DWIDTH 62 0
BBX 50 86 8 -26
BITMAP
00000FFC000000
F0007FFFC00000
F003FFFFF00000
F00FFFFFFC0000
F01FFFFFFE0000
F03FC001FF0000
F07F00003F8000
F0FC00001FC000
F1F0000007E000
F3E0000003F000
F7C0000001F800
F780000000F800
FF80000000FC00
FF000000007C00
FE000000003E00
FE000000003E00
FC000000001F00
FC000000001F00
FC000000001F00
F8000000000F80
F8000000000F80
F8000000000F80
F8000000000F80
F0000000000780
F00000000007C0
F00000000007C0
F00000000007C0
F00000000007C0
F00000000007C0
F00000000007C0
F00000000007C0
F00000000007C0
F00000000007C0
F00000000007C0
F00000000007C0
F00000000007C0
F00000000007C0
F00000000007C0
F0000000000F80
F8000000000F80
F8000000000F80
F8000000000F80
F8000000000F80
FC000000001F00
FC000000001F00
FE000000003F00
FE000000003E00
FE000000007E00
FF000000007C00
FF80000000FC00
F7C0000001F800
F3C0000001F800
F3E0000003F000
F1F000000FE000
F0FC00001FC000
F07F00007F8000
F03FC001FF0000
F01FFFFFFE0000
F00FFFFFFC0000
F003FFFFF00000
F000FFFFC00000
F0001FFC000000
F0000000000000
F0000000000000
F0000000000000
F0000000000000
F0000000000000
F0000000000000
F0000000000000
F0000000000000
F0000000000000
F0000000000000
F0000000000000
F0000000000000
F0000000000000
F0000000000000
F0000000000000
F0000000000000
F0000000000000
F0000000000000
F0000000000000
F0000000000000
F0000000000000
F0000000000000
F0000000000000
F0000000000000
ENDCHAR
STARTCHAR 0071
ENCODING 113
SWIDTH 572 0
DWIDTH 62 0
BBX 51 86 4 -26
BITMAP
00000FFC000000
0000FFFFC001E0
0003FFFFF001E0
000FFFFFFC01E0
001FFFFFFE01E0
003FE000FF81E0
007F80001FC1E0
00FE000007E1E0
01FC000003F1E0
03F8000001F1E0
03F0000000F9E0
07E00000007DE0
0FC00000003DE0
0F800000003FE0
1F800000001FE0
1F000000001FE0
1F000000000FE0
3E000000000FE0
3E0000000007E0
3E0000000007E0
7C0000000007E0
7C0000000003E0
7C0000000003E0
7C0000000003E0
7C0000000003E0
780000000003E0
F80000000003E0
F80000000003E0
F80000000003E0
F80000000001E0
F80000000001E0
F80000000001E0
F80000000001E0
F80000000003E0
F80000000003E0
780000000003E0
7C0000000003E0
7C0000000003E0
7C0000000003E0
7C0000000003E0
7C0000000007E0
3E0000000007E0
3E0000000007E0
3E0000000007E0
3E000000000FE0
1F000000000FE0
1F000000001FE0
0F800000001FE0
0F800000003FE0
07C00000003FE0
07E00000007BE0
03F0000000FBE0
03F8000001F3E0
01FC000003E3E0
00FE00000FE3E0
007F80001FC3E0
003FE000FF83E0
001FFFFFFE03E0
0007FFFFFC03E0
0001FFFFF003E0
00007FFFC003E0
000007FE0003E0
000000000003E0
000000000003E0
000000000003E0
000000000003E0
000000000003E0
000000000003E0
000000000003E0
000000000003E0
000000000003E0
000000000003E0
000000000003E0
000000000003E0
000000000003E0
000000000003E0
000000000003E0
000000000003E0
000000000003E0
000000000003E0
000000000003E0
000000000003E0
000000000003E0
000000000003E0
000000000003E0
000000000003E0
ENDCHAR
STARTCHAR 0072
ENCODING 114
SWIDTH 332 0
DWIDTH 36 0
BBX 26 59 8 1
BITMAP
F000FFC0
F007FFC0
F01FFFC0
F07FFFC0
F0FFF3C0
F1FE0000
F3F80000
F7E00000
F7C00000
FF800000
FF000000
FF000000
FE000000
FE000000
FC000000
FC000000
F8000000
F8000000
F8000000
F8000000
F8000000
F0000000
F0000000
F0000000
F0000000
F0000000
F0000000
F0000000
F0000000
F0000000
F0000000
F0000000
F0000000
F0000000
F0000000
F0000000
F0000000
F0000000
F0000000
F0000000
F0000000
F0000000
F0000000
F0000000
F0000000
F0000000
F0000000
F0000000
F0000000
F0000000
F0000000
F0000000
F0000000
F0000000
F0000000
F0000000
F0000000
F0000000
F0000000
ENDCHAR
STARTCHAR 0073
ENCODING 115
SWIDTH 516 0
DWIDTH 56 0
BBX 47 62 4 -2
BITMAP
00003FF80000
0003FFFFC000
001FFFFFF000
007FFFFFFC00
00FFFFFFFF00
01FF0001FF80
03F800007FC0
07F000001FE0
0FC0000007F0
0F80000003F8
1F00000001F8
1F00000000FC
3E000000007C
3E000000007E
3E000000003E
3E000000003E
3E000000003E
3E0000000018
3E0000000000
3F0000000000
1F0000000000
1F8000000000
0FE000000000
07F800000000
03FE00000000
01FFC0000000
007FF8000000
001FFF800000
0007FFF80000
0000FFFF0000
00001FFFE000
000003FFF800
0000003FFE00
00000007FF80
00000000FFE0
000000001FF0
0000000007F8
0000000001F8
0000000000FC
00000000007C
00000000003E
00000000003E
00000000003E
00000000003E
00000000003E
00000000003E
F8000000003E
7C000000003E
7C000000003E
7E000000007E
3F000000007C
3F00000000FC
1F80000001F8
0FE0000003F8
0FF0000007F0
07FC00001FE0
03FF8000FFC0
00FFFFFFFF80
007FFFFFFF00
001FFFFFFC00
0003FFFFE000
00001FFE0000
ENDCHAR
STARTCHAR 0074
ENCODING 116
SWIDTH 378 0
DWIDTH 41 0
BBX 37 76 1 -2
BITMAP
0003C00000
0003C00000
0003C00000
0003C00000
0003C00000
0003C00000
0003C00000
0003C00000
0003C00000
0003C00000
0003C00000
0003C00000
0003C00000
0003C00000
0003C00000
0003C00000
FFFFFFFFF8
FFFFFFFFF8
FFFFFFFFF8
FFFFFFFFF8
FFFFFFFFF8
0003C00000
0003C00000
0003C00000
0003C00000
0003C00000
0003C00000
0003C00000
0003C00000
0003C00000
0003C00000
0003C00000
0003C00000
0003C00000
0003C00000
0003C00000
0003C00000
0003C00000
0003C00000
0003C00000
0003C00000
0003C00000
0003C00000
0003C00000
0003C00000
0003C00000
0003C00000
0003C00000
0003C00000
0003C00000
0003C00000
0003C00000
0003C00000
0003C00000
0003C00000
0003C00000
0003C00000
0003C00000
0003C00000
0003C00000
0003C00000
0003C00000
0003E00000
0003E00000
0003E00000
0003E00000
0001F00000
0001F00000
0000F80000
0000FC0000
00007F0000
00003FF9F8
00001FFFF8
00000FFFF8
000003FFF8
0000007FE0
ENDCHAR
STARTCHAR 0075
ENCODING 117
SWIDTH 572 0
DWIDTH 62 0
BBX 48 60 6 -1
BITMAP
F8000000000F
F8000000000F
F8000000000F
F8000000000F
F8000000000F
F8000000000F
F8000000000F
F8000000000F
F8000000000F
F8000000000F
F8000000000F
F8000000000F
F8000000000F
F8000000000F
F8000000000F
F8000000000F
F8000000000F
F8000000000F
F8000000000F
F8000000000F
F8000000000F
F8000000000F
F8000000000F
F8000000000F
F8000000000F
F8000000000F
F8000000000F
F8000000000F
F8000000000F
F8000000000F
F8000000000F
F8000000000F
F8000000000F
F8000000000F
78000000000F
78000000000F
78000000000F
78000000000F
7C000000001F
7C000000001F
7C000000001F
7C000000001F
3E000000003F
3E000000003F
3E000000003F
1F000000007F
1F000000007F
0F80000000FF
0F80000001FF
07C0000001FF
07E0000003EF
03F0000007EF
01F800001FCF
00FE00003F8F
007F8001FF0F
003FFE7FFE0F
001FFFFFF80F
0007FFFFF00F
0001FFFF800F
00001FFC0000
ENDCHAR
STARTCHAR 0076
ENCODING 118
SWIDTH 480 0
DWIDTH 52 0
BBX 47 59 2 0
BITMAP
F8000000001E
78000000003E
7C000000003E
7C000000007C
3E000000007C
3E000000007C
3E00000000F8
1F00000000F8
1F00000000F8
0F00000001F0
0F80000001F0
0F80000001E0
0780000003E0
07C0000003E0
07C0000003C0
03E0000007C0
03E0000007C0
03E000000F80
01F000000F80
01F000000F80
00F000001F00
00F800001F00
00F800001F00
007800003E00
007C00003E00
007C00003C00
003E00007C00
003E00007C00
003E0000F800
001F0000F800
001F0000F800
001F0001F000
000F8001F000
000F8001F000
00078003E000
0007C003E000
0007C003C000
0003E007C000
0003E007C000
0003E0078000
0001F00F8000
0001F00F8000
0001F01F0000
0000F81F0000
0000F81F0000
0000783E0000
00007C3E0000
00007C3E0000
00003E7C0000
00003E7C0000
00003E780000
00001FF80000
00001FF80000
00001FF00000
00000FF00000
00000FF00000
00000FE00000
000007E00000
000007E00000
ENDCHAR
STARTCHAR 0077
ENCODING 119
SWIDTH 747 0
DWIDTH 81 0
BBX 76 59 2 0
BITMAP
F80000000F80000000F0
780000001F80000001F0
7C0000001F80000001F0
7C0000001FC0000001E0
3C0000001FC0000003E0
3E0000003FC0000003E0
3E0000003FE0000003C0
3E0000003FE0000007C0
1F0000007DE0000007C0
1F0000007DF0000007C0
1F00000079F000000780
0F000000F9F000000F80
0F800000F8F000000F80
0F800000F8F800000F00
07800000F0F800001F00
07C00001F07800001F00
07C00001F07C00001E00
07C00001E07C00003E00
03E00003E03C00003E00
03E00003E03E00003E00
03E00003C03E00003C00
01E00007C03E00007C00
01F00007C01E00007C00
01F00007C01F00007800
00F0000F801F0000F800
00F8000F800F0000F800
00F8000F800F8000F000
00F8000F000F8001F000
007C001F00078001F000
007C001F0007C001E000
007C001E0007C003E000
003C003E0007C003E000
003E003E0003E003E000
003E003E0003E003C000
001E007C0003E007C000
001F007C0001E007C000
001F007C0001F0078000
000F00780001F00F8000
000F80F80000F00F8000
000F80F80000F80F0000
000F80F00000F81F0000
000781F00000F81F0000
0007C1F000007C1F0000
0007C1E000007C1E0000
0003C3E000007C3E0000
0003E3E000003C3E0000
0003E3E000003E3C0000
0001E3C000003E7C0000
0001F7C000001E7C0000
0001F7C000001F780000
0001F78000001FF80000
0000FF8000001FF80000
0000FF8000000FF80000
0000FF0000000FF00000
00007F0000000FF00000
00007F00000007F00000
00007F00000007E00000
00003E00000007E00000
00003E00000003E00000
ENDCHAR
STARTCHAR 0078
ENCODING 120
SWIDTH 507 0
DWIDTH 55 0
BBX 53 59 1 0
BITMAP
7E0000000003F0
3E0000000003E0
1F0000000007E0
1F800000000FC0
0FC00000001F80
07E00000001F00
03E00000003E00
01F00000007E00
01F8000000FC00
00FC000001F800
007E000001F000
003E000003E000
001F000007E000
001F80000FC000
000FC0001F8000
0007E0001F0000
0003E0003E0000
0001F0007E0000
0001F800FC0000
0000FC00F80000
00007C01F00000
00003E03E00000
00001F07E00000
00001F8FC00000
00000FCF800000
000007DF000000
000003FE000000
000001FE000000
000001FC000000
000000F8000000
000001FC000000
000003FE000000
000007FF000000
00000FDF800000
00000F8F800000
00001F07C00000
00003F03E00000
00007E03F00000
0000FC01F80000
0000F800F80000
0001F0007C0000
0003F0003E0000
0007E0003F0000
000FC0001F8000
000F80000F8000
001F000007C000
003F000003E000
007E000003F000
00FC000001F800
00F8000000F800
01F80000007C00
03F00000007E00
07E00000003F00
0FC00000001F80
0F800000000F80
1F8000000007C0
3F0000000007E0
7E0000000003F0
FC0000000001F8
ENDCHAR
STARTCHAR 0079
ENCODING 121
SWIDTH 507 0
DWIDTH 55 0
BBX 50 85 2 -26
BITMAP
F80000000007C0
7C0000000007C0
7C000000000F80
3E000000000F80
3E000000000F00
3E000000001F00
1F000000001F00
1F000000001E00
0F800000003E00
0F800000003E00
0F800000007C00
07C00000007C00
07C00000007C00
03E0000000F800
03E0000000F800
03E0000000F000
01F0000001F000
01F0000001F000
00F8000001E000
00F8000003E000
00F8000003E000
007C000007C000
007C000007C000
003E000007C000
003E00000F8000
001E00000F8000
001F00000F0000
001F00001F0000
000F80001F0000
000F80001E0000
000780003E0000
0007C0003E0000
0007C0007C0000
0003E0007C0000
0003E0007C0000
0001F000F80000
0001F000F80000
0001F000F00000
0000F801F00000
0000F801F00000
00007C01E00000
00007C03E00000
00007C03E00000
00003E07C00000
00003E07C00000
00001F07C00000
00001F0F800000
00001F0F800000
00000F8F800000
00000F9F000000
000007DF000000
000007DE000000
000003FE000000
000003FE000000
000003FC000000
000001FC000000
000001FC000000
000000F8000000
000000F8000000
000000F8000000
000001F0000000
000001F0000000
000001E0000000
000003E0000000
000003E0000000
000007C0000000
000007C0000000
000007C0000000
00000F80000000
00000F80000000
00000F80000000
00001F00000000
00001F00000000
00003E00000000
00003E00000000
00003E00000000
00007C00000000
00007C00000000
00007C00000000
0000F800000000
0000F800000000
0001F800000000
0001F000000000
0001F000000000
0003E000000000
ENDCHAR
STARTCHAR 007A
ENCODING 122
SWIDTH 526 0
DWIDTH 57 0
BBX 51 59 2 0
BITMAP
1FFFFFFFFFFFE0
1FFFFFFFFFFFE0
1FFFFFFFFFFFC0
1FFFFFFFFFFF80
1FFFFFFFFFFF80
00000000003F00
00000000007E00
0000000000FC00
0000000001F800
0000000001F800
0000000003F000
0000000007E000
000000000FC000
000000001F8000
000000001F8000
000000003F0000
000000007E0000
00000000FC0000
00000001F80000
00000001F80000
00000003F00000
00000007E00000
0000000FC00000
0000001F800000
0000001F000000
0000003F000000
0000007E000000
000000FC000000
000001F8000000
000001F0000000
000003F0000000
000007E0000000
00000FC0000000
00001F80000000
00001F00000000
00003F00000000
00007E00000000
0000FC00000000
0001F800000000
0001F000000000
0003F000000000
0007E000000000
000FC000000000
001F8000000000
003F0000000000
003F0000000000
007E0000000000
00FC0000000000
01F80000000000
03F00000000000
03F00000000000
07E00000000000
0FC00000000000
1F800000000000
3FFFFFFFFFFF00
3FFFFFFFFFFF00
7FFFFFFFFFFF00
FFFFFFFFFFFF00
FFFFFFFFFFFF00
ENDCHAR
STARTCHAR 007B
ENCODING 123
SWIDTH 396 0
DWIDTH 43 0
BBX 23 120 15 -24
BITMAP
00007E
0007FE
001FFE
003FFE
007FFE
00FE00
01F800
01F000
01F000
03E000
03E000
03E000
03E000
03E000
03E000
03E000
03E000
03E000
03E000
03E000
03E000
03E000
03E000
03E000
03E000
03E000
03E000
03E000
03E000
03E000
03E000
03E000
03E000
03E000
03E000
03E000
03E000
03E000
03E000
03E000
03E000
03E000
03E000
03E000
03E000
03E000
03E000
03E000
03E000
03E000
03E000
03C000
07C000
0FC000
0F8000
1F8000
3F0000
3E0000
7C0000
FC0000
F80000
FC0000
7E0000
3F0000
1F0000
1F8000
0FC000
07C000
07C000
03E000
03E000
03E000
03E000
03E000
03E000
03E000
03E000
03E000
03E000
03E000
03E000
03E000
03E000
03E000
03E000
03E000
03E000
03E000
03E000
03E000
03E000
03E000
03E000
03E000
03E000
03E000
03E000
03E000
03E000
03E000
03E000
03E000
03E000
03E000
03E000
03E000
03E000
03E000
03E000
03E000
03E000
03E000
01F000
01F800
00FC00
00FFFE
007FFE
003FFE
000FFE
0003FE
ENDCHAR
STARTCHAR 007C
ENCODING 124
SWIDTH 221 0
DWIDTH 24 0
BBX 4 78 10 0
BITMAP
F0
F0
F0
F0
F0
F0
F0
F0
F0
F0
F0
F0
F0
F0
F0
F0
F0
F0
F0
F0
F0
F0
F0
F0
F0
F0
F0
F0
F0
F0
F0
F0
F0
F0
F0
F0
F0
F0
F0
F0
F0
F0
F0
F0
F0
F0
F0
F0
F0
F0
F0
F0
F0
F0
F0
F0
F0
F0
F0
F0
F0
F0
F0
F0
F0
F0
F0
F0
F0
F0
F0
F0
F0
F0
F0
F0
F0
F0
ENDCHAR
STARTCHAR 007D
ENCODING 125
SWIDTH 396 0
DWIDTH 43 0
BBX 23 120 5 -24
BITMAP
FC0000
FFC000
FFF000
FFF800
FFFC00
00FE00
003F00
001F00
000F80
000F80
000F80
000780
000780
000780
000780
000780
000780
000780
000780
000780
000780
000780
000780
000780
000780
000780
000780
000780
000780
000780
000780
000780
000780
000780
000780
000780
000780
000780
000780
000780
000780
000780
000780
000780
000780
000780
000780
000780
000780
000780
000780
0007C0
0007C0
0007E0
0003F0
0001F0
0001F8
0000FC
00007C
00003E
00003E
00007E
0000FC
0000F8
0001F8
0003F0
0003E0
0007C0
0007C0
000780
000780
000780
000780
000780
000780
000780
000780
000780
000780
000780
000780
000780
000780
000780
000780
000780
000780
000780
000780
000780
000780
000780
000780
000780
000780
000780
000780
000780
000780
000780
000780
000780
000780
000780
000780
000780
000780
000780
000780
000F80
000F80
000F80
001F00
001F00
007E00
FFFE00
FFFC00
FFF800
FFE000
FF8000
ENDCHAR
STARTCHAR 007E
ENCODING 126
SWIDTH 627 0
DWIDTH 68 0
BBX 42 14 13 27
BITMAP
01FC00000F80
0FFF80000FC0
1FFFE0000FC0
3FFFF8000FC0
7FFFFE000FC0
7FFFFF800FC0
FF0FFFE01FC0
FE01FFF83F80
FC007FFFFF80
FC001FFFFF00
F80007FFFF00
F80001FFFE00
FC00007FF800
0000000FE000
ENDCHAR
STARTCHAR 00A0
ENCODING 160
SWIDTH 203 0
DWIDTH 22 0
BBX 0 0 0 0
BITMAP
ENDCHAR
STARTCHAR 00A1
ENCODING 161
SWIDTH 286 0
DWIDTH 31 0
BBX 5 78 13 -19
BITMAP
F8
F8
F8
F8
F8
F8
F8
00
00
00
00
00
00
00
00
00
00
00
00
00
F8
F8
F8
F8
F8
F8
F8
F8
F8
F8
F8
F8
F8
F8
F8
F8
F8
F8
F8
F8
F8
F8
F8
F8
F8
F8
F8
F8
F8
F8
F8
F8
F8
F8
F8
F8
F8
F8
F8
F8
F8
F8
F8
F8
F8
F8
F8
F8
F8
F8
F8
F8
F8
F8
F8
F8
F8
F8
ENDCHAR
STARTCHAR 00A2
ENCODING 162
SWIDTH 535 0
DWIDTH 58 0
BBX 50 81 4 -3
BITMAP
00000078000000
00000078000000
00000078000000
00000078000000
00000078000000
00000078000000
00000078000000
00000078000000
00000078000000
00000078000000
000007FF800000
00007FFFF80000
0001FFFFFE0000
0007FFFFFF8000
001FFFCFFFE000
003FF0003FF000
007F800007F800
00FE000001FC00
01FC000000FE00
03F80000007F00
03F00000003F80
07E00000001F80
0FC00000000FC0
0F8000000007C0
1F8000000007C0
1F000000000300
1F000000000000
3E000000000000
3E000000000000
3E000000000000
7C000000000000
7C000000000000
7C000000000000
7C000000000000
7C000000000000
7C000000000000
78000000000000
F8000000000000
F8000000000000
F8000000000000
F8000000000000
F8000000000000
F8000000000000
F8000000000000
F8000000000000
78000000000000
7C000000000000
7C000000000000
7C000000000000
7C000000000000
7C000000000000
3E000000000000
3E000000000000
3E000000000000
1F000000000000
1F000000000200
1F800000000380
0F8000000007C0
0FC00000000FC0
07E00000000F80
07E00000001F80
03F00000003F00
01F80000007E00
00FE000001FC00
007F000003F800
003FC0001FF000
001FFC00FFE000
000FFFFFFFC000
0003FFFFFF0000
0000FFFFFC0000
00001FFFE00000
00000078000000
00000078000000
00000078000000
00000078000000
00000078000000
00000078000000
00000078000000
00000078000000
00000078000000
00000078000000
ENDCHAR
STARTCHAR 00A3
ENCODING 163
SWIDTH 572 0
DWIDTH 62 0
BBX 55 80 3 0
BITMAP
00000001FF0000
0000001FFFE000
0000007FFFF800
000000FFFFFC00
000001FFFFFE00
000007FC00FF00
000007E0003F80
00000FC0000FC0
00001F800007E0
00003F000003E0
00003E000001F0
00003E000001F0
00007C000000F8
00007C000000F8
0000780000007C
0000F80000007C
0000F80000003E
0000F80000003E
0000F80000001E
0000F80000001C
0000F800000000
0000F800000000
0000F800000000
0000F800000000
0000F800000000
0000F800000000
0000F800000000
0000F800000000
0000F800000000
0000F800000000
0000F800000000
0000F800000000
0000F800000000
0000F800000000
0000F800000000
0000F800000000
0000F800000000
FFFFFFFFFFC000
FFFFFFFFFFC000
FFFFFFFFFFC000
FFFFFFFFFFC000
FFFFFFFFFFC000
0000F800000000
0000F800000000
0000F800000000
0000F800000000
0000F800000000
0000F800000000
0000F800000000
0000F800000000
0000F800000000
0000F800000000
0000F800000000
0000F800000000
0000F800000000
0000F800000000
0000F800000000
0000F800000000
0000F800000000
0000F800000000
0000F800000000
0000F800000000
0000F800000000
0000F800000000
0000F800000000
0000F800000000
0000F800000000
0000F800000000
0000F800000000
0000F800000000
0001F800000000
0001F800000000
0003F800000000
0007F800000000
000FF800000000
FFFFFFFFFFFFFC
FFFFFFFFFFFFFC
FFFFFFFFFFFFFC
FFFFFFFFFFFFFC
FFFFFFFFFFFFFC
ENDCHAR
STARTCHAR 00A4
ENCODING 164
SWIDTH 618 0
DWIDTH 67 0
BBX 61 61 3 8
BITMAP
1000000000000060
38000002000000F0
FC0001FFFC0001F8
7E000FFFFF8003F0
3F003FFFFFE007E0
1F80FFFFFFF80FC0
0FC1FFC01FFE1F80
07E7FC0001FF3F00
03FFF000007FFE00
01FFC000001FFC00
00FF8000000FF800
007F00000003F000
00FC00000001F800
01F800000000FC00
01F0000000007E00
03F0000000003E00
03E0000000003F00
07C0000000001F00
07C0000000000F80
0F80000000000F80
0F800000000007C0
0F000000000007C0
1F000000000007C0
1F000000000003C0
1E000000000003E0
1E000000000003E0
3E000000000003E0
3E000000000003E0
3E000000000001E0
3E000000000001E0
3E000000000001E0
3E000000000001E0
3E000000000003E0
3E000000000003E0
1E000000000003E0
1E000000000003E0
1F000000000003C0
1F000000000007C0
0F000000000007C0
0F800000000007C0
0F80000000000F80
07C0000000000F80
07C0000000001F00
03E0000000003F00
03F0000000003E00
01F8000000007E00
01F800000000FC00
00FC00000001F800
007F00000003F000
00FF8000000FF800
01FFC000001FFC00
03FFF000007FFE00
07F7FC0001FF3F00
0FE1FFC01FFE1F80
1FC0FFFFFFF80FC0
3F803FFFFFF007E0
7F000FFFFF8003F0
FE0001FFFC0001F8
7C00000A000000F0
3800000000000060
1000000000000000
ENDCHAR
STARTCHAR 00A5
ENCODING 165
SWIDTH 516 0
DWIDTH 56 0
BBX 56 78 0 0
BITMAP
FC00000000001F
7C00000000003E
7E00000000003E
3E00000000007C
1F0000000000FC
1F0000000000F8
0F8000000001F0
0FC000000001F0
07C000000003E0
03E000000007E0
03E000000007C0
01F00000000FC0
01F00000000F80
00F80000001F00
00FC0000001F00
007C0000003E00
003E0000007E00
003E0000007C00
001F000000FC00
001F800000F800
000F800001F000
000FC00001F000
0007C00003E000
0003E00007E000
0003E00007C000
0001F0000F8000
0001F8000F8000
0000F8001F0000
00007C003F0000
00007C003E0000
00003E007E0000
00003F007C0000
00001F00F80000
00001F80F80000
00000F81F00000
000007C3F00000
000007C3E00000
000003E7E00000
000003F7C00000
000001FF800000
000000FF800000
000000FF000000
0000007F000000
0000007E000000
0000003C000000
007FFFFFFFFF00
007FFFFFFFFF00
007FFFFFFFFF00
007FFFFFFFFF00
007FFFFFFFFF00
0000003C000000
0000003C000000
0000003C000000
0000003C000000
0000003C000000
0000003C000000
0000003C000000
0000003C000000
0000003C000000
0000003C000000
007FFFFFFFFF00
007FFFFFFFFF00
007FFFFFFFFF00
007FFFFFFFFF00
007FFFFFFFFF00
0000003C000000
0000003C000000
0000003C000000
0000003C000000
0000003C000000
0000003C000000
0000003C000000
0000003C000000
0000003C000000
0000003C000000
0000003C000000
0000003C000000
0000003C000000
ENDCHAR
STARTCHAR 00A6
ENCODING 166
SWIDTH 221 0
DWIDTH 24 0
BBX 4 91 10 -13
BITMAP
F0
F0
F0
F0
F0
F0
F0
F0
F0
F0
F0
F0
F0
F0
F0
F0
F0
F0
F0
F0
F0
F0
F0
F0
F0
F0
F0
F0
F0
F0
F0
F0
F0
F0
F0
F0
F0
00
00
00
00
00
00
00
00
00
00
00
00
00
00
00
00
00
F0
F0
F0
F0
F0
F0
F0
F0
F0
F0
F0
F0
F0
F0
F0
F0
F0
F0
F0
F0
F0
F0
F0
F0
F0
F0
F0
F0
F0
F0
F0
F0
F0
F0
F0
F0
F0
ENDCHAR
STARTCHAR 00A7
ENCODING 167
SWIDTH 516 0
DWIDTH 56 0
BBX 47 89 5 -18
BITMAP
00007FF00000
0007FFFE0000
001FFFFF8000
007FFFFFE000
00FFFFFFF800
01FF000FFC00
03F80001FE00
07F000007F00
0FC000003F80
0F8000001FC0
1F0000000FC0
1F00000007E0
3E00000003E0
3E00000003E0
3E00000001F0
3E00000001F0
3E00000001F0
3E0000000180
3E0000000000
1F0000000000
1F8000000000
1FC000000000
0FE000000000
07F800000000
03FE00000000
01FFC0000000
007FFC000000
001FFFC00000
0007FFF80000
003FFFFF8000
00FF9FFFF000
03FC01FFFC00
07F0001FFF00
0FC00003FFC0
1F8000007FE0
3F0000000FF0
7E00000003F8
7C00000001FC
7C00000000FC
F8000000007C
F8000000003E
F8000000003E
F8000000003E
F8000000003E
F8000000003E
F8000000003E
FC000000003E
7C000000003E
7E000000003E
3F800000007E
1FE00000007C
0FF8000000FC
07FF000001F8
01FFF00003F8
007FFE0007F0
001FFFE01FE0
0003FFFEFFC0
00007FFFFF00
000007FFFC00
000000FFFC00
0000000FFF00
00000001FF80
000000003FC0
000000000FE0
0000000007E0
0000000003F0
0000000001F0
0000000000F8
0000000000F8
0000000000F8
0000000000F8
0000000000F8
0C00000000F8
3E00000000F8
3E00000000F8
3F00000000F8
1F00000001F0
1F80000001F0
0FC0000003F0
0FE0000007E0
07F000000FE0
03FC00003FC0
01FF0000FF80
00FFF007FF00
007FFFFFFE00
001FFFFFF800
0007FFFFE000
0000FFFF0000
000001A00000
ENDCHAR
STARTCHAR 00A8
ENCODING 168
SWIDTH 480 0
DWIDTH 52 0
BBX 26 7 13 91
BITMAP
FE001FC0
FE001FC0
FE001FC0
FE001FC0
FE001FC0
FE001FC0
FE001FC0
ENDCHAR
STARTCHAR 00A9
ENCODING 169
SWIDTH 747 0
DWIDTH 81 0
BBX 75 76 3 -1
BITMAP
000000007FC000000000
0000000FFFFE00000000
0000007FFFFFC0000000
000003FFFFFFF8000000
00000FFFFFFFFE000000
00001FFF001FFF000000
00007FF00001FFC00000
0000FF8000003FE00000
0003FE0000000FF80000
0007F800000003FC0000
000FF000000001FE0000
001FC0000000007F0000
003F80000000003F8000
007F00000000001FC000
00FE00000000000FE000
00FC00007FE00007E000
01F80003FFFC0003F000
03F0000FFFFF0001F800
03E0003FFFFFC000F800
07E0007FF9FFE000FC00
0FC000FF001FF0007C00
0F8001FC0007F8003E00
0F8003F80001FC003E00
1F0007F00000FC001F00
1F0007E000007E001F00
3E000FC000003E001F80
3E000F8000003E000F80
3E001F80000018000F80
7C001F00000000000FC0
7C001F000000000007C0
7C001F000000000007C0
7C003E000000000007C0
78003E000000000007C0
78003E000000000003C0
F8003E000000000003E0
F8003E000000000003E0
F8003E000000000003E0
F8003E000000000003E0
F8003E000000000003E0
F8003E000000000003E0
F8003E000000000003E0
F8003E000000000003E0
F8003E000000000003E0
78003E000000000007C0
7C003F000000000007C0
7C003F000000000007C0
7C001F000000000007C0
7C001F000000000007C0
3E001F80000010000F80
3E000F8000003E000F80
3E000FC000003E001F80
1F0007E000007E001F00
1F0007F00000FC001F00
1F8003F80001F8003F00
0F8001FC0003F8003E00
0FC000FF001FF0007E00
07C0007FF9FFE000FC00
07E0003FFFFF8000FC00
03F0000FFFFF0001F800
01F80003FFFC0003F000
01FC00007FE00007F000
00FC00000000000FE000
007E00000000001FC000
003F80000000003F8000
001FC0000000007F0000
000FE000000000FE0000
0007F800000003FC0000
0003FC0000000FF80000
0001FF0000003FF00000
00007FE00000FFC00000
00003FFE000FFF800000
00000FFFFFFFFE000000
000003FFFFFFF8000000
000000FFFFFFE0000000
0000001FFFFF00000000
00000000FFF000000000
ENDCHAR
STARTCHAR 00AA
ENCODING 170
SWIDTH 313 0
DWIDTH 34 0
BBX 25 31 4 29
BITMAP
007FC000
01FFF000
07FFFC00
0FFFFE00
1FFBFF00
3F803F00
3F001F80
3E000F80
3C000F80
00000F80
00000780
00001F80
000FFF80
01FFFF80
07FFFF80
1FFFF780
3FF80780
7F800780
7E000F80
7C000F80
F8000F80
F8000F80
F8001F80
F8003F80
7C007F80
7E00FF80
3FC7F780
3FFFE780
1FFFC780
07FF0780
00F80000
ENDCHAR
STARTCHAR 00AB
ENCODING 171
SWIDTH 498 0
DWIDTH 54 0
BBX 38 46 9 6
BITMAP
0000600030
0000780078
0000F800FC
0001F001F8
0003F003F0
0007E003E0
0007C007C0
000F800FC0
001F001F80
003F003F00
007E003E00
007C007C00
00F800FC00
01F001F800
03F003F000
07E003E000
07C007C000
0F800FC000
1F001F8000
3F003F0000
7E003E0000
7C007C0000
F800FC0000
FC007C0000
7E007E0000
3E003F0000
1F001F0000
1F800F8000
0FC00FC000
07C007E000
03E003F000
01F001F000
01F800F800
00FC00FC00
007C007E00
003E003F00
001F001F00
001F800F80
000FC00FC0
0007C007E0
0003E003F0
0001F001F0
0001F800F8
0000F800FC
0000700070
0000200020
ENDCHAR
STARTCHAR 00AC
ENCODING 172
SWIDTH 600 0
DWIDTH 65 0
BBX 53 18 6 22
BITMAP
FFFFFFFFFFFFF8
FFFFFFFFFFFFF8
FFFFFFFFFFFFF8
FFFFFFFFFFFFF8
FFFFFFFFFFFFF8
000000000000F8
000000000000F8
000000000000F8
000000000000F8
000000000000F8
000000000000F8
000000000000F8
000000000000F8
000000000000F8
000000000000F8
000000000000F8
000000000000F8
000000000000F8
ENDCHAR
STARTCHAR 00AD
ENCODING 173
SWIDTH 424 0
DWIDTH 46 0
BBX 33 5 6 32
BITMAP
FFFFFFFF80
FFFFFFFF80
FFFFFFFF80
FFFFFFFF80
FFFFFFFF80
ENDCHAR
STARTCHAR 00AE
ENCODING 174
SWIDTH 609 0
DWIDTH 66 0
BBX 50 51 8 32
BITMAP
000001C0000000
00003FFF000000
0001FFFFE00000
0007FFFFF80000
001FFFFFFC0000
003FF007FF0000
00FF8000FF8000
01FE00001FC000
03F800000FE000
07F0000003F000
07E0000001F800
0FC0000000FC00
1F800000007C00
1F00FFFC007E00
3E00FFFF003E00
3E00FFFF801F00
7C00FFFFC01F00
7C00F007C00F80
7800F003E00F80
F800F001E00F80
F800F001E00780
F800F001E007C0
F000F001E007C0
F000F003E007C0
F000F007C007C0
F000FFFFC007C0
F000FFFF8007C0
F000FFFF0007C0
F000FFFE0007C0
F000F01E0007C0
F800F01F000780
F800F00F000780
F800F00F800F80
7C00F007800F80
7C00F007C01F00
3E00F003C01F00
3E00F003E03F00
3F00F001E03E00
1F000000007C00
0F80000000FC00
0FC0000001F800
07E0000003F000
03F8000007F000
01FC00001FE000
00FF00007FC000
007FE001FF0000
003FFFFFFE0000
000FFFFFFC0000
0003FFFFF00000
0000FFFF800000
00000FFC000000
ENDCHAR
STARTCHAR 00AF
ENCODING 175
SWIDTH 480 0
DWIDTH 52 0
BBX 26 5 13 91
BITMAP
FFFFFFC0
FFFFFFC0
FFFFFFC0
FFFFFFC0
FFFFFFC0
ENDCHAR
STARTCHAR 00B0
ENCODING 176
SWIDTH 452 0
DWIDTH 49 0
BBX 39 39 3 41
BITMAP
0001FF0000
000FFFE000
003FFFF800
007FFFFE00
01FFFFFF00
03FE007F80
07F8001FC0
0FE0000FE0
0FC00003F0
1F800001F8
1F000000F8
3E000000FC
3E0000007C
7C0000007C
7C0000003E
780000003E
F80000003E
F80000001E
F80000001E
F80000001E
F80000001E
F80000001E
F80000003E
780000003E
7C0000003E
7C0000007C
3E0000007C
3E000000FC
3F000000F8
1F800001F0
0FC00003F0
0FE00007E0
07F0001FC0
03FE007F80
01FFFFFF00
007FFFFE00
003FFFF800
000FFFE000
0001FF0000
ENDCHAR
STARTCHAR 00B1
ENCODING 177
SWIDTH 600 0
DWIDTH 65 0
BBX 53 50 6 9
BITMAP
000000F8000000
000000F8000000
000000F8000000
000000F8000000
000000F8000000
000000F8000000
000000F8000000
000000F8000000
000000F8000000
000000F8000000
000000F8000000
000000F8000000
000000F8000000
000000F8000000
000000F8000000
FFFFFFFFFFFFF8
FFFFFFFFFFFFF8
FFFFFFFFFFFFF8
FFFFFFFFFFFFF8
FFFFFFFFFFFFF8
000000F8000000
000000F8000000
000000F8000000
000000F8000000
000000F8000000
000000F8000000
000000F8000000
000000F8000000
000000F8000000
000000F8000000
000000F8000000
000000F8000000
000000F8000000
000000F8000000
000000F8000000
00000000000000
00000000000000
00000000000000
00000000000000
00000000000000
00000000000000
00000000000000
00000000000000
00000000000000
00000000000000
FFFFFFFFFFFFF8
FFFFFFFFFFFFF8
FFFFFFFFFFFFF8
FFFFFFFFFFFFF8
FFFFFFFFFFFFF8
ENDCHAR
STARTCHAR 00B2
ENCODING 178
SWIDTH 387 0
DWIDTH 42 0
BBX 32 50 5 29
BITMAP
000FF000
007FFE00
00FFFF80
03FFFFC0
07FC1FF0
0FE003F0
1FC001F8
1F8000FC
3F00007C
3E00003E
7C00003E
7C00001F
7C00001F
7800001F
7800001F
0000001F
0000001F
0000001F
0000001F
0000001F
0000001E
0000003E
0000007E
0000007C
000000FC
000001F8
000003F0
000007E0
00001FC0
00003F80
00007F00
0000FE00
0001FC00
0003F800
0007E000
000FC000
001F8000
003F0000
007E0000
01FC0000
03F80000
07F00000
0FE00000
1FC00000
3F800000
7E000000
FFFFFFFF
FFFFFFFF
FFFFFFFF
FFFFFFFF
ENDCHAR
STARTCHAR 00B3
ENCODING 179
SWIDTH 378 0
DWIDTH 41 0
BBX 30 49 5 29
BITMAP
7FFFFFF8
7FFFFFF8
7FFFFFF8
7FFFFFF8
000001F8
000003F0
000007E0
00000FC0
00001F80
00003F00
0000FC00
0001F800
0003F000
0007E000
000FC000
001F8000
003F0000
007E0000
00FFE000
01FFFC00
01FFFE00
01FFFF80
00E07FC0
00000FE0
000007E0
000003F0
000001F0
000000F8
000000F8
00000078
00000078
0000007C
0000007C
0000007C
0000007C
0000007C
00000078
10000078
F00000F8
F00000F8
F80001F0
FC0003F0
7E0007E0
3F000FE0
1FC03FC0
0FFFFF80
07FFFF00
01FFFC00
007FF000
ENDCHAR
STARTCHAR 00B4
ENCODING 180
SWIDTH 461 0
DWIDTH 50 0
BBX 10 15 20 88
BITMAP
07C0
07C0
07C0
0F80
0F80
0F00
1F00
1F00
1E00
3E00
3E00
3C00
7C00
7C00
F800
ENDCHAR
STARTCHAR 00B5
ENCODING 181
SWIDTH 581 0
DWIDTH 63 0
BBX 48 85 8 -26
BITMAP
F0000000001F
F0000000001F
F0000000001F
F0000000001F
F0000000001F
F0000000001F
F0000000001F
F0000000001F
F0000000001F
F0000000001F
F0000000001F
F0000000001F
F0000000001F
F0000000001F
F0000000001F
F0000000001F
F0000000001F
F0000000001F
F0000000001F
F0000000001F
F0000000001F
F0000000001F
F0000000001F
F0000000001F
F0000000001F
F0000000001F
F0000000001F
F0000000001F
F0000000001F
F0000000001F
F0000000001F
F0000000001F
F0000000001F
F0000000001F
F0000000001F
F0000000001F
F0000000001F
F8000000001F
F8000000003F
F8000000003F
F8000000003F
F8000000003F
FC000000007F
FC000000007F
FC000000007F
FE00000000FF
FE00000000FF
FF00000001FF
FF00000001FF
FF80000003FF
FFC0000007FF
F7E000000FDF
F3F000003F9F
F1FC00007F1F
F0FF0003FE1F
F07FFEFFFC1F
F03FFFFFF01F
F00FFFFFE01F
F003FFFF001F
F0003FF80000
F00000000000
F00000000000
F00000000000
F00000000000
F00000000000
F00000000000
F00000000000
F00000000000
F00000000000
F00000000000
F00000000000
F00000000000
F00000000000
F00000000000
F00000000000
F00000000000
F00000000000
F00000000000
F00000000000
F00000000000
F00000000000
F00000000000
F00000000000
F00000000000
F00000000000
ENDCHAR
STARTCHAR 00B6
ENCODING 182
SWIDTH 581 0
DWIDTH 63 0
BBX 43 93 10 -15
BITMAP
00003FFF01E0
0003FFFF01E0
000FFFFF01E0
003FFFFF01E0
00FFFFFF01E0
01FFFFFF01E0
03FFFFFF01E0
07FFFFFF01E0
0FFFFFFF01E0
0FFFFFFF01E0
1FFFFFFF01E0
1FFFFFFF01E0
3FFFFFFF01E0
3FFFFFFF01E0
7FFFFFFF01E0
7FFFFFFF01E0
7FFFFFFF01E0
FFFFFFFF01E0
FFFFFFFF01E0
FFFFFFFF01E0
FFFFFFFF01E0
FFFFFFFF01E0
FFFFFFFF01E0
FFFFFFFF01E0
FFFFFFFF01E0
FFFFFFFF01E0
FFFFFFFF01E0
FFFFFFFF01E0
FFFFFFFF01E0
FFFFFFFF01E0
7FFFFFFF01E0
7FFFFFFF01E0
7FFFFFFF01E0
3FFFFFFF01E0
3FFFFFFF01E0
1FFFFFFF01E0
1FFFFFFF01E0
0FFFFFFF01E0
07FFFFFF01E0
07FFFFFF01E0
03FFFFFF01E0
00FFFFFF01E0
007FFFFF01E0
003FFFFF01E0
000FFFFF01E0
0003FFFF01E0
00000FFF01E0
0000000F01E0
0000000F01E0
0000000F01E0
0000000F01E0
0000000F01E0
0000000F01E0
0000000F01E0
0000000F01E0
0000000F01E0
0000000F01E0
0000000F01E0
0000000F01E0
0000000F01E0
0000000F01E0
0000000F01E0
0000000F01E0
0000000F01E0
0000000F01E0
0000000F01E0
0000000F01E0
0000000F01E0
0000000F01E0
0000000F01E0
0000000F01E0
0000000F01E0
0000000F01E0
0000000F01E0
0000000F01E0
0000000F01E0
0000000F01E0
0000000F01E0
0000000F01E0
0000000F01E0
0000000F01E0
0000000F01E0
0000000F01E0
0000000F01E0
0000000F01E0
0000000F01E0
0000000F01E0
0000000F01E0
0000000F01E0
0000000F01E0
0000000F01E0
0000000F01E0
0000000F01E0
ENDCHAR
STARTCHAR 00B7
ENCODING 183
SWIDTH 203 0
DWIDTH 22 0
BBX 8 9 7 30
BITMAP
18
7E
FF
FF
FF
FF
FF
FE
3C
ENDCHAR
STARTCHAR 00B8
ENCODING 184
SWIDTH 387 0
DWIDTH 42 0
BBX 16 27 13 -26
BITMAP
00F8
00F0
01F0
01E0
01E0
03E0
03C0
07C0
07C0
07E0
0FF0
0FFC
01FC
007E
003F
001F
001F
001F
001F
001F
003F
007E
7FFE
7FFC
FFF8
FFF0
1FC0
ENDCHAR
STARTCHAR 00B9
ENCODING 185
SWIDTH 304 0
DWIDTH 33 0
BBX 14 49 6 29
BITMAP
007C
01FC
03FC
0FFC
3FFC
7FBC
FE3C
FC3C
F03C
C03C
803C
003C
003C
003C
003C
003C
003C
003C
003C
003C
003C
003C
003C
003C
003C
003C
003C
003C
003C
003C
003C
003C
003C
003C
003C
003C
003C
003C
003C
003C
003C
003C
003C
003C
003C
003C
003C
003C
003C
ENDCHAR
STARTCHAR 00BA
ENCODING 186
SWIDTH 341 0
DWIDTH 37 0
BBX 29 31 4 29
BITMAP
003FC000
00FFF800
03FFFE00
07FFFF00
0FFFFF80
1FC01FC0
1F800FC0
3F0007E0
3E0003E0
7E0003F0
7C0001F0
7C0001F0
7C0001F0
FC0001F0
F80001F8
F80001F8
F80001F8
FC0001F0
7C0001F0
7C0001F0
7C0001F0
7E0003F0
3E0003E0
3F0007E0
1F800FC0
1FC01FC0
0FFFFF80
07FFFF00
03FFFE00
00FFF800
003FC000
ENDCHAR
STARTCHAR 00BB
ENCODING 187
SWIDTH 498 0
DWIDTH 54 0
BBX 38 46 8 6
BITMAP
3000300000
F800780000
F800FC0000
7C007C0000
7E003E0000
3F001F0000
1F801F8000
0F800FC000
07C007C000
07E003E000
03F001F000
01F801F800
00F800FC00
007C007C00
007E003E00
003F001F00
001F801F80
000F800FC0
0007C007C0
0007E003E0
0003F001F0
0001F001F8
0000F800FC
0001F800F8
0001F001F0
0003E003F0
0007C007E0
000FC00FC0
001F800F80
001F001F00
003E003F00
007C007E00
00FC00FC00
01F800F800
01F001F000
03E003F000
07E007E000
0FC007C000
1F800F8000
1F001F0000
3E003F0000
7E007E0000
FC007C0000
F800F80000
7000700000
2000100000
ENDCHAR
STARTCHAR 00BC
ENCODING 188
SWIDTH 932 0
DWIDTH 101 0
BBX 82 78 6 0
BITMAP
007C000000000000800000
01FC000000000000E00000
03FC000000000001F00000
0FFC000000000003F00000
3FFC000000000007F00000
7FBC00000000000FE00000
FE3C00000000000FC00000
FC3C00000000001F800000
F03C00000000003F000000
C03C00000000007F000000
803C0000000000FE000000
003C0000000000FC000000
003C0000000001F8000000
003C0000000003F0000000
003C0000000007F0000000
003C000000000FE0000000
003C000000000FC0000000
003C000000001F80000000
003C000000003F80000000
003C000000007F00000000
003C00000000FE00000000
003C00000000FC00000000
003C00000001F800000000
003C00000003F800000000
003C00000007F000000000
003C00000007E000000000
003C0000000FC000000000
003C0000001F8000000000
003C0000003F8000000000
003C0000007F00007C0000
003C0000007E00007C0000
003C000000FC0000F80000
003C000001F80000F80000
003C000003F80001F00000
003C000007F00001F00000
003C000007E00001F00000
003C00000FC00003E00000
003C00001FC00003E00000
003C00003F800007C00000
003C00007F000007C00000
003C00007E00000F800000
003C0000FC00000F800000
003C0001FC00001F000000
003C0003F800001F000000
003C0007F000003E000000
003C0007E000003E000000
003C000FC000007C000000
003C001FC000007C000000
003C003F800000F8000000
0000007F000000F800F800
0000007E000001F000F800
000000FC000001F000F800
000001FC000003E000F800
000003F8000003E000F800
000003F0000003E000F800
000007E0000007C000F800
00000FC0000007C000F800
00001FC000000F8000F800
00003F8000000F8000F800
00003F0000001F0000F800
00007E0000001F0000F800
0000FE0000003E0000F800
0001FC0000003E0000F800
0003F80000007C0000F800
0003F00000007FFFFFFFC0
0007E00000007FFFFFFFC0
000FE00000007FFFFFFFC0
001FC00000007FFFFFFFC0
003F80000000000000F800
003F00000000000000F800
007E00000000000000F800
00FE00000000000000F800
01FC00000000000000F800
03F800000000000000F800
03F000000000000000F800
03E000000000000000F800
00E000000000000000F800
004000000000000000F800
ENDCHAR
STARTCHAR 00BD
ENCODING 189
SWIDTH 876 0
DWIDTH 95 0
BBX 84 78 6 0
BITMAP
007C000000000000800000
01FC000000000000E00000
07FC000000000001F00000
0FFC000000000003F00000
3FFC000000000007F00000
FFBC00000000000FE00000
FE3C00000000000FC00000
F83C00000000001F800000
F03C00000000003F000000
C03C00000000007F000000
003C0000000000FE000000
003C0000000000FC000000
003C0000000001F8000000
003C0000000003F0000000
003C0000000007F0000000
003C000000000FE0000000
003C000000000FC0000000
003C000000001F80000000
003C000000003F80000000
003C000000007F00000000
003C00000000FE00000000
003C00000000FC00000000
003C00000001F800000000
003C00000003F800000000
003C00000007F000000000
003C00000007E000000000
003C0000000FC000000000
003C0000001F8000000000
003C0000003F8000FF0000
003C0000007F0007FFE000
003C0000007E000FFFF800
003C000000FC003FFFFC00
003C000001F8007FC1FE00
003C000003F800FE007F00
003C000007F001FC001F80
003C000007E001F8000FC0
003C00000FC003F00007C0
003C00001F8003E00003E0
003C00003F8007C00003E0
003C00007F0007C00001E0
003C00007E0007C00001F0
003C0000FC0007800001F0
003C0001FC0007800001F0
003C0003F80000000001F0
003C0007F00000000001F0
003C0007E00000000001F0
003C000FC00000000001F0
003C001FC00000000001F0
003C003F800000000001E0
0000007F000000000003E0
0000007E000000000007E0
000000FC000000000007C0
000001FC00000000000F80
000003F800000000001F80
000003F000000000003F00
000007E000000000007E00
00000FC00000000001FC00
00001FC00000000003F800
00003F800000000007F000
00003F00000000000FE000
00007E00000000001FC000
0000FE00000000003F8000
0001FC00000000007E0000
0003F80000000000FC0000
0003F00000000001F80000
0007E00000000003F00000
000FE00000000007E00000
001FC0000000001FC00000
003F80000000003F800000
003F00000000007F000000
007E0000000000FE000000
00FE0000000001FC000000
01FC0000000003F0000000
03F80000000007E0000000
03F0000000000FFFFFFFF0
03E0000000000FFFFFFFF0
00E0000000000FFFFFFFF0
0040000000000FFFFFFFF0
ENDCHAR
STARTCHAR 00BE
ENCODING 190
SWIDTH 950 0
DWIDTH 103 0
BBX 91 78 5 0
BITMAP
7FFFFFF80000000000400000
7FFFFFF80000000000700000
7FFFFFF80000000000F80000
7FFFFFF80000000001F80000
000001F80000000003F80000
000003F00000000007F00000
000007E00000000007E00000
00000FC0000000000FC00000
00001F80000000001F800000
00003F00000000003F800000
0000FC00000000007F000000
0001F800000000007E000000
0003F00000000000FC000000
0007E00000000001F8000000
000FC00000000003F8000000
001F800000000007F0000000
003F000000000007E0000000
007E00000000000FC0000000
00FFE0000000001FC0000000
01FFFC000000003F80000000
01FFFE000000003F00000000
01FFFF800000007E00000000
00E07FC0000000FC00000000
00000FE0000001FC00000000
000007E0000003F800000000
000003F0000003F000000000
000001F0000007E000000000
000000F800000FC000000000
000000F800001FC000000000
0000007800003F80003E0000
0000007800003F00003E0000
0000007C00007E00007C0000
0000007C0000FC00007C0000
0000007C0001FC0000F80000
0000007C0003F80000F80000
0000007C0003F00001F00000
000000780007E00001F00000
10000078000FE00001F00000
F00000F8001FC00003E00000
F00000F8003F800003E00000
F80001F0003F000007C00000
FC0003F0007E000007C00000
7E0007E000FE00000F800000
3F000FE001FC00000F800000
1FC03FC003F800001F000000
0FFFFF8003F000001F000000
07FFFF0007E000003E000000
01FFFC000FE000003E000000
007FF0001FC000007C000000
000000003F8000007C007C00
000000003F000000F8007C00
000000007E000000F8007C00
00000000FE000000F8007C00
00000001FC000001F0007C00
00000001F8000001F0007C00
00000003F0000003E0007C00
00000007F0000003E0007C00
0000000FE0000007C0007C00
0000001FC0000007C0007C00
0000001F8000000F80007C00
0000003F0000000F80007C00
0000007F0000001F00007C00
000000FE0000001F00007C00
000001FC0000003E00007C00
000001F80000003FFFFFFFE0
000003F00000003FFFFFFFE0
000007F00000003FFFFFFFE0
00000FE00000003FFFFFFFE0
00001FC00000000000007C00
00001F800000000000007C00
00003F000000000000007C00
00007F000000000000007C00
0000FE000000000000007C00
0001FC000000000000007C00
0001F8000000000000007C00
0001F0000000000000007C00
000070000000000000007C00
000020000000000000007C00
ENDCHAR
STARTCHAR 00BF
ENCODING 191
SWIDTH 507 0
DWIDTH 55 0
BBX 44 80 5 -21
BITMAP
000007C00000
000007C00000
000007C00000
000007C00000
000007C00000
000007C00000
000007C00000
000007C00000
000000000000
000000000000
000000000000
000000000000
000000000000
000000000000
000000000000
000000000000
000000000000
000000000000
000000000000
000000000000
000000000000
000007C00000
000007C00000
000007C00000
000007C00000
000007C00000
000007C00000
000007C00000
000007C00000
000007C00000
000007C00000
00000F800000
00000F800000
00000F800000
00001F000000
00003F000000
00007E000000
0000FE000000
0001FC000000
0003F8000000
0007F0000000
001FE0000000
003FC0000000
00FF00000000
01FE00000000
03F800000000
07F000000000
0FE000000000
0FC000000000
1F8000000000
3F0000000000
3E0000000000
3E0000000000
7C0000000000
7C0000000000
7C0000000000
7C0000000000
F80000000000
F80000000000
F80000000000
F800000000F0
F800000000F0
7800000001F0
7C00000001F0
7C00000001F0
7C00000001E0
7C00000003E0
3E00000003E0
3E00000007E0
3F00000007C0
1F8000000FC0
0FC000001F80
0FE000003F00
07F80000FE00
03FE0007FC00
01FFFFFFF800
007FFFFFF000
001FFFFFC000
0007FFFF0000
00007FF00000
ENDCHAR
STARTCHAR 00C0
ENCODING 192
SWIDTH 609 0
DWIDTH 66 0
BBX 62 103 2 0
BITMAP
000001F000000000
000001F000000000
000000F800000000
000000F800000000
000000F800000000
0000007C00000000
0000007C00000000
0000003C00000000
0000003E00000000
0000003E00000000
0000001E00000000
0000001F00000000
0000001F00000000
0000000F00000000
0000000F80000000
0000000000000000
0000000000000000
0000000000000000
0000000000000000
0000000000000000
0000000000000000
0000000000000000
0000000000000000
0000000000000000
0000000000000000
0000000FC0000000
0000000FC0000000
0000000FC0000000
0000001FE0000000
0000001FE0000000
0000001FE0000000
0000003FF0000000
0000003FF0000000
0000007CF8000000
0000007CF8000000
0000007CF8000000
000000F87C000000
000000F87C000000
000000F83C000000
000001F03E000000
000001F03E000000
000001E01E000000
000003E01F000000
000003E01F000000
000007C00F800000
000007C00F800000
000007C00F800000
00000F8007C00000
00000F8007C00000
00000F8007C00000
00001F0003E00000
00001F0003E00000
00001E0001E00000
00003E0001F00000
00003E0001F00000
00007C0000F80000
00007C0000F80000
00007C0000F80000
0000F800007C0000
0000F800007C0000
0000F800007C0000
0001F000003E0000
0001F000003E0000
0001E000001E0000
0003E000001F0000
0003E000001F0000
0007C000000F8000
0007C000000F8000
0007C000000F8000
000F80000007C000
000F80000007C000
000F80000007C000
001F00000003E000
001F00000003E000
001E00000003E000
003E00000001F000
003E00000001F000
007C00000000F800
007C00000000F800
007FFFFFFFFFF800
00FFFFFFFFFFFC00
00FFFFFFFFFFFC00
00FFFFFFFFFFFC00
01F0000000003E00
01F0000000003E00
01E0000000003E00
03E0000000001F00
03E0000000001F00
07C0000000000F80
07C0000000000F80
07C0000000000F80
0F800000000007C0
0F800000000007C0
0F800000000007C0
1F000000000003E0
1F000000000003E0
1E000000000001E0
3E000000000001F0
3E000000000001F0
7C000000000000F8
7C000000000000F8
7C000000000000F8
F80000000000007C
ENDCHAR
STARTCHAR 00C1
ENCODING 193
SWIDTH 609 0
DWIDTH 66 0
BBX 62 102 2 0
BITMAP
000000003E000000
000000003C000000
000000007C000000
000000007C000000
00000000F8000000
00000000F8000000
00000000F0000000
00000001F0000000
00000001F0000000
00000001E0000000
00000003E0000000
00000003E0000000
00000003C0000000
00000007C0000000
0000000000000000
0000000000000000
0000000000000000
0000000000000000
0000000000000000
0000000000000000
0000000000000000
0000000000000000
0000000000000000
0000000000000000
0000000FC0000000
0000000FC0000000
0000000FC0000000
0000001FE0000000
0000001FE0000000
0000001FE0000000
0000003FF0000000
0000003FF0000000
0000007CF8000000
0000007CF8000000
0000007CF8000000
000000F87C000000
000000F87C000000
000000F07C000000
000001F03E000000
000001F03E000000
000001E03E000000
000003E01F000000
000003E01F000000
000007C00F800000
000007C00F800000
000007C00F800000
00000F8007C00000
00000F8007C00000
00000F0007C00000
00001F0003E00000
00001F0003E00000
00001E0003E00000
00003E0001F00000
00003E0001F00000
00007C0000F80000
00007C0000F80000
00007C0000F80000
0000F800007C0000
0000F800007C0000
0000F800007C0000
0001F000003E0000
0001F000003E0000
0001E000003E0000
0003E000001F0000
0003E000001F0000
0007C000000F8000
0007C000000F8000
0007C000000F8000
000F80000007C000
000F80000007C000
000F80000007C000
001F00000003E000
001F00000003E000
001E00000003E000
003E00000001F000
003E00000001F000
007C00000000F800
007C00000000F800
007FFFFFFFFFF800
00FFFFFFFFFFFC00
00FFFFFFFFFFFC00
00FFFFFFFFFFFC00
01F0000000003E00
01F0000000003E00
01E0000000003E00
03E0000000001F00
03E0000000001F00
07C0000000000F80
07C0000000000F80
07C0000000000F80
0F800000000007C0
0F800000000007C0
0F800000000007C0
1F000000000003E0
1F000000000003E0
1E000000000001E0
3E000000000001F0
3E000000000001F0
7C000000000000F8
7C000000000000F8
7C000000000000F8
F80000000000007C
ENDCHAR
STARTCHAR 00C2
ENCODING 194
SWIDTH 609 0
DWIDTH 66 0
BBX 62 101 2 0
BITMAP
0000000FC0000000
0000001FE0000000
0000001FE0000000
0000003FF0000000
0000007FF8000000
000000FCFC000000
000001F87E000000
000003F03F000000
000003E01F000000
000007C00F800000
00000F8007C00000
00001F8007E00000
00003F0003F00000
0000000000000000
0000000000000000
0000000000000000
0000000000000000
0000000000000000
0000000000000000
0000000000000000
0000000000000000
0000000000000000
0000000000000000
0000000FC0000000
0000000FC0000000
0000000FC0000000
0000001FE0000000
0000001FE0000000
0000001FE0000000
0000003FF0000000
0000003FF0000000
0000007CF8000000
0000007CF8000000
0000007CF8000000
000000F87C000000
000000F87C000000
000000F07C000000
000001F03E000000
000001F03E000000
000001E03E000000
000003E01F000000
000003E01F000000
000007C00F800000
000007C00F800000
000007C00F800000
00000F8007C00000
00000F8007C00000
00000F0007C00000
00001F0003E00000
00001F0003E00000
00001E0003E00000
00003E0001F00000
00003E0001F00000
00007C0000F80000
00007C0000F80000
00007C0000F80000
0000F800007C0000
0000F800007C0000
0000F800007C0000
0001F000003E0000
0001F000003E0000
0001E000003E0000
0003E000001F0000
0003E000001F0000
0007C000000F8000
0007C000000F8000
0007C000000F8000
000F80000007C000
000F80000007C000
000F80000007C000
001F00000003E000
001F00000003E000
001E00000003E000
003E00000001F000
003E00000001F000
007C00000000F800
007C00000000F800
007FFFFFFFFFF800
00FFFFFFFFFFFC00
00FFFFFFFFFFFC00
00FFFFFFFFFFFC00
01F0000000003E00
01F0000000003E00
01E0000000003E00
03E0000000001F00
03E0000000001F00
07C0000000000F80
07C0000000000F80
07C0000000000F80
0F800000000007C0
0F800000000007C0
0F800000000007C0
1F000000000003E0
1F000000000003E0
1E000000000001E0
3E000000000001F0
3E000000000001F0
7C000000000000F8
7C000000000000F8
7C000000000000F8
F80000000000007C
ENDCHAR
STARTCHAR 00C3
ENCODING 195
SWIDTH 609 0
DWIDTH 66 0
BBX 62 100 2 0
BITMAP
00000FE0003C0000
00001FF8003C0000
00003FFF003C0000
00007FFFC03C0000
0000FEFFF07C0000
0000F01FFFF80000
0000F003FFF80000
0000F000FFF00000
0000F0003FC00000
0000000000000000
0000000000000000
0000000000000000
0000000000000000
0000000000000000
0000000000000000
0000000000000000
0000000000000000
0000000000000000
0000000000000000
0000000000000000
0000000000000000
0000000000000000
0000000FC0000000
0000000FC0000000
0000000FC0000000
0000001FE0000000
0000001FE0000000
0000001FE0000000
0000003FF0000000
0000003FF0000000
0000007CF8000000
0000007CF8000000
0000007CF8000000
000000F87C000000
000000F87C000000
000000F07C000000
000001F03E000000
000001F03E000000
000001E03E000000
000003E01F000000
000003E01F000000
000007C00F800000
000007C00F800000
000007C00F800000
00000F8007C00000
00000F8007C00000
00000F0007C00000
00001F0003E00000
00001F0003E00000
00001E0003E00000
00003E0001F00000
00003E0001F00000
00007C0000F80000
00007C0000F80000
00007C0000F80000
0000F800007C0000
0000F800007C0000
0000F800007C0000
0001F000003E0000
0001F000003E0000
0001E000003E0000
0003E000001F0000
0003E000001F0000
0007C000000F8000
0007C000000F8000
0007C000000F8000
000F80000007C000
000F80000007C000
000F80000007C000
001F00000003E000
001F00000003E000
001E00000003E000
003E00000001F000
003E00000001F000
007C00000000F800
007C00000000F800
007FFFFFFFFFF800
00FFFFFFFFFFFC00
00FFFFFFFFFFFC00
00FFFFFFFFFFFC00
01F0000000003E00
01F0000000003E00
01E0000000003E00
03E0000000001F00
03E0000000001F00
07C0000000000F80
07C0000000000F80
07C0000000000F80
0F800000000007C0
0F800000000007C0
0F800000000007C0
1F000000000003E0
1F000000000003E0
1E000000000001E0
3E000000000001F0
3E000000000001F0
7C000000000000F8
7C000000000000F8
7C000000000000F8
F80000000000007C
ENDCHAR
STARTCHAR 00C4
ENCODING 196
SWIDTH 609 0
DWIDTH 66 0
BBX 62 98 2 0
BITMAP
00003F8003F00000
00003F8003F00000
00003F8003F00000
00003F8003F00000
00003F8003F00000
00003F8003F00000
00003F8003F00000
0000000000000000
0000000000000000
0000000000000000
0000000000000000
0000000000000000
0000000000000000
0000000000000000
0000000000000000
0000000000000000
0000000000000000
0000000000000000
0000000000000000
0000000000000000
0000000FC0000000
0000000FC0000000
0000000FC0000000
0000001FE0000000
0000001FE0000000
0000001FE0000000
0000003FF0000000
0000003FF0000000
0000007CF8000000
0000007CF8000000
0000007CF8000000
000000F87C000000
000000F87C000000
000000F07C000000
000001F03E000000
000001F03E000000
000001E03E000000
000003E01F000000
000003E01F000000
000007C00F800000
000007C00F800000
000007C00F800000
00000F8007C00000
00000F8007C00000
00000F0007C00000
00001F0003E00000
00001F0003E00000
00001E0003E00000
00003E0001F00000
00003E0001F00000
00007C0000F80000
00007C0000F80000
00007C0000F80000
0000F800007C0000
0000F800007C0000
0000F800007C0000
0001F000003E0000
0001F000003E0000
0001E000003E0000
0003E000001F0000
0003E000001F0000
0007C000000F8000
0007C000000F8000
0007C000000F8000
000F80000007C000
000F80000007C000
000F80000007C000
001F00000003E000
001F00000003E000
001E00000003E000
003E00000001F000
003E00000001F000
007C00000000F800
007C00000000F800
007FFFFFFFFFF800
00FFFFFFFFFFFC00
00FFFFFFFFFFFC00
00FFFFFFFFFFFC00
01F0000000003E00
01F0000000003E00
01E0000000003E00
03E0000000001F00
03E0000000001F00
07C0000000000F80
07C0000000000F80
07C0000000000F80
0F800000000007C0
0F800000000007C0
0F800000000007C0
1F000000000003E0
1F000000000003E0
1E000000000001E0
3E000000000001F0
3E000000000001F0
7C000000000000F8
7C000000000000F8
7C000000000000F8
F80000000000007C
ENDCHAR
STARTCHAR 00C5
ENCODING 197
SWIDTH 609 0
DWIDTH 66 0
BBX 62 105 2 1
BITMAP
0000003FF0000000
0000007FF8000000
000000FFFC000000
000001FFFE000000
000003F87F000000
000003E01F800000
000007C00F800000
000007C00F800000
0000078007800000
0000078007C00000
0000078007C00000
0000078007800000
000007C00F800000
000007C00F800000
000003E01F800000
000003F87F000000
000001FFFE000000
000000FFFC000000
0000007FF8000000
0000003FF0000000
0000000300000000
0000000000000000
0000000000000000
0000000000000000
0000000000000000
0000000000000000
0000000000000000
0000000FC0000000
0000000FC0000000
0000000FC0000000
0000001FE0000000
0000001FE0000000
0000001FE0000000
0000003FF0000000
0000003FF0000000
0000007CF8000000
0000007CF8000000
0000007CF8000000
000000F87C000000
000000F87C000000
000000F07C000000
000001F03E000000
000001F03E000000
000001E03E000000
000003E01F000000
000003E01F000000
000007C00F800000
000007C00F800000
000007C00F800000
00000F8007C00000
00000F8007C00000
00000F0007C00000
00001F0003E00000
00001F0003E00000
00001E0003E00000
00003E0001F00000
00003E0001F00000
00007C0000F80000
00007C0000F80000
00007C0000F80000
0000F800007C0000
0000F800007C0000
0000F800007C0000
0001F000003E0000
0001F000003E0000
0001E000003E0000
0003E000001F0000
0003E000001F0000
0007C000000F8000
0007C000000F8000
0007C000000F8000
000F80000007C000
000F80000007C000
000F80000007C000
001F00000003E000
001F00000003E000
001E00000003E000
003E00000001F000
003E00000001F000
007C00000000F800
007C00000000F800
007FFFFFFFFFF800
00FFFFFFFFFFFC00
00FFFFFFFFFFFC00
00FFFFFFFFFFFC00
01F0000000003E00
01F0000000003E00
01E0000000003E00
03E0000000001F00
03E0000000001F00
07C0000000000F80
07C0000000000F80
07C0000000000F80
0F800000000007C0
0F800000000007C0
0F800000000007C0
1F000000000003E0
1F000000000003E0
1E000000000001E0
3E000000000001F0
3E000000000001F0
7C000000000000F8
7C000000000000F8
7C000000000000F8
F80000000000007C
ENDCHAR
STARTCHAR 00C6
ENCODING 198
SWIDTH 904 0
DWIDTH 98 0
BBX 91 78 2 0
BITMAP
0000000FFFFFFFFFFFFFFFE0
0000000FFFFFFFFFFFFFFFE0
0000000FFFFFFFFFFFFFFFE0
0000001FFFFFFFFFFFFFFFE0
0000001FFFFFFFFFFFFFFFE0
0000001E001F000000000000
0000003E001F000000000000
0000003E001F000000000000
0000007C001F000000000000
0000007C001F000000000000
00000078001F000000000000
000000F8001F000000000000
000000F8001F000000000000
000000F0001F000000000000
000001F0001F000000000000
000001F0001F000000000000
000001E0001F000000000000
000003E0001F000000000000
000003E0001F000000000000
000007C0001F000000000000
000007C0001F000000000000
000007C0001F000000000000
00000F80001F000000000000
00000F80001F000000000000
00000F00001F000000000000
00001F00001F000000000000
00001F00001F000000000000
00001E00001F000000000000
00003E00001F000000000000
00003E00001F000000000000
00007C00001F000000000000
00007C00001F000000000000
00007C00001F000000000000
0000F800001F000000000000
0000F800001F000000000000
0000F000001F000000000000
0001F000001FFFFFFFFFF000
0001F000001FFFFFFFFFF000
0001E000001FFFFFFFFFF000
0003E000001FFFFFFFFFF000
0003E000001FFFFFFFFFF000
0007C000001F000000000000
0007C000001F000000000000
0007C000001F000000000000
000F8000001F000000000000
000F8000001F000000000000
000F8000001F000000000000
001F0000001F000000000000
001F0000001F000000000000
001E0000001F000000000000
003E0000001F000000000000
003E0000001F000000000000
007C0000001F000000000000
007C0000001F000000000000
007FFFFFFFFF000000000000
00FFFFFFFFFF000000000000
00FFFFFFFFFF000000000000
00FFFFFFFFFF000000000000
01F00000001F000000000000
01F00000001F000000000000
01E00000001F000000000000
03E00000001F000000000000
03E00000001F000000000000
07C00000001F000000000000
07C00000001F000000000000
07C00000001F000000000000
0F800000001F000000000000
0F800000001F000000000000
0F800000001F000000000000
1F000000001F000000000000
1F000000001F000000000000
1E000000001F000000000000
3E000000001F000000000000
3E000000001FFFFFFFFFFFE0
7C000000001FFFFFFFFFFFE0
7C000000001FFFFFFFFFFFE0
7C000000001FFFFFFFFFFFE0
F8000000001FFFFFFFFFFFE0
ENDCHAR
STARTCHAR 00C7
ENCODING 199
SWIDTH 701 0
DWIDTH 76 0
BBX 68 106 3 -26
BITMAP
00000007FFC0000000
000000FFFFFC000000
000007FFFFFF800000
00001FFFFFFFF00000
00007FFFFFFFF80000
0001FFE0001FFE0000
0003FF000001FF0000
0007FC0000007FC000
000FF00000001FE000
001FC00000000FF000
003F8000000003F800
007F0000000001F800
00FE0000000000FC00
01FC00000000007E00
01F800000000003F00
03F000000000003F00
03F000000000001F80
07E000000000000F80
07C000000000000FC0
0FC0000000000007C0
0F80000000000007E0
1F80000000000003E0
1F00000000000003E0
1F00000000000001F0
3F00000000000001F0
3E00000000000001F0
3E00000000000001F0
3E0000000000000000
7C0000000000000000
7C0000000000000000
7C0000000000000000
7C0000000000000000
7C0000000000000000
7C0000000000000000
780000000000000000
F80000000000000000
F80000000000000000
F80000000000000000
F80000000000000000
F80000000000000000
F80000000000000000
F80000000000000000
F80000000000000000
F80000000000000000
F80000000000000000
F80000000000000000
F80000000000000000
780000000000000000
7C0000000000000000
7C0000000000000000
7C0000000000000000
7C0000000000000000
7C0000000000000000
7C0000000000000000
3E0000000000000000
3E00000000000001F0
3E00000000000001F0
3E00000000000001F0
1F00000000000001F0
1F00000000000003E0
1F80000000000003E0
0F80000000000007E0
0FC0000000000007C0
07C000000000000FC0
07E000000000000F80
03E000000000001F80
03F000000000003F00
01F800000000003F00
01FC00000000007E00
00FE0000000000FC00
007F0000000001FC00
003F8000000003F800
001FC00000000FF000
000FF00000001FE000
0007F80000007FC000
0003FF000001FF0000
0001FFE0001FFE0000
00007FFFFFFFF80000
00001FFFFFFFF00000
000007FFFFFF800000
000000FFFFFC000000
00000007FFC0000000
000000001F00000000
000000001E00000000
000000001E00000000
000000003E00000000
000000003C00000000
000000007C00000000
000000007E00000000
000000007F00000000
00000000FF80000000
000000003FC0000000
000000000FE0000000
0000000003F0000000
0000000001F0000000
0000000001F0000000
0000000001F0000000
0000000001F0000000
0000000001F0000000
0000000001F0000000
0000000003F0000000
0000000607E0000000
00000007FFC0000000
00000007FFC0000000
0000000FFF80000000
00000003FE00000000
ENDCHAR
STARTCHAR 00C8
ENCODING 200
SWIDTH 563 0
DWIDTH 61 0
BBX 47 103 8 0
BITMAP
00003E000000
00003E000000
00001E000000
00001F000000
00001F000000
00000F800000
00000F800000
00000F800000
000007C00000
000007C00000
000007C00000
000003E00000
000003E00000
000001E00000
000001F00000
000000000000
000000000000
000000000000
000000000000
000000000000
000000000000
000000000000
000000000000
000000000000
000000000000
FFFFFFFFFFFE
FFFFFFFFFFFE
FFFFFFFFFFFE
FFFFFFFFFFFE
FFFFFFFFFFFE
F00000000000
F00000000000
F00000000000
F00000000000
F00000000000
F00000000000
F00000000000
F00000000000
F00000000000
F00000000000
F00000000000
F00000000000
F00000000000
F00000000000
F00000000000
F00000000000
F00000000000
F00000000000
F00000000000
F00000000000
F00000000000
F00000000000
F00000000000
F00000000000
F00000000000
F00000000000
F00000000000
F00000000000
F00000000000
F00000000000
F00000000000
FFFFFFFFFF80
FFFFFFFFFF80
FFFFFFFFFF80
FFFFFFFFFF80
FFFFFFFFFF80
F00000000000
F00000000000
F00000000000
F00000000000
F00000000000
F00000000000
F00000000000
F00000000000
F00000000000
F00000000000
F00000000000
F00000000000
F00000000000
F00000000000
F00000000000
F00000000000
F00000000000
F00000000000
F00000000000
F00000000000
F00000000000
F00000000000
F00000000000
F00000000000
F00000000000
F00000000000
F00000000000
F00000000000
F00000000000
F00000000000
F00000000000
F00000000000
FFFFFFFFFFFE
FFFFFFFFFFFE
FFFFFFFFFFFE
FFFFFFFFFFFE
FFFFFFFFFFFE
ENDCHAR
STARTCHAR 00C9
ENCODING 201
SWIDTH 563 0
DWIDTH 61 0
BBX 47 102 8 0
BITMAP
0000001F0000
0000001F0000
0000003E0000
0000003E0000
0000003C0000
0000007C0000
0000007C0000
000000780000
000000F80000
000000F80000
000000F00000
000001F00000
000001F00000
000003E00000
000000000000
000000000000
000000000000
000000000000
000000000000
000000000000
000000000000
000000000000
000000000000
000000000000
FFFFFFFFFFFE
FFFFFFFFFFFE
FFFFFFFFFFFE
FFFFFFFFFFFE
FFFFFFFFFFFE
F00000000000
F00000000000
F00000000000
F00000000000
F00000000000
F00000000000
F00000000000
F00000000000
F00000000000
F00000000000
F00000000000
F00000000000
F00000000000
F00000000000
F00000000000
F00000000000
F00000000000
F00000000000
F00000000000
F00000000000
F00000000000
F00000000000
F00000000000
F00000000000
F00000000000
F00000000000
F00000000000
F00000000000
F00000000000
F00000000000
F00000000000
FFFFFFFFFF80
FFFFFFFFFF80
FFFFFFFFFF80
FFFFFFFFFF80
FFFFFFFFFF80
F00000000000
F00000000000
F00000000000
F00000000000
F00000000000
F00000000000
F00000000000
F00000000000
F00000000000
F00000000000
F00000000000
F00000000000
F00000000000
F00000000000
F00000000000
F00000000000
F00000000000
F00000000000
F00000000000
F00000000000
F00000000000
F00000000000
F00000000000
F00000000000
F00000000000
F00000000000
F00000000000
F00000000000
F00000000000
F00000000000
F00000000000
F00000000000
FFFFFFFFFFFE
FFFFFFFFFFFE
FFFFFFFFFFFE
FFFFFFFFFFFE
FFFFFFFFFFFE
ENDCHAR
STARTCHAR 00CA
ENCODING 202
SWIDTH 563 0
DWIDTH 61 0
BBX 47 101 8 0
BITMAP
00000FC00000
00001FC00000
00003FE00000
00003FF00000
00007DF80000
0000FCFC0000
0001F87E0000
0003F03E0000
0007E01F0000
0007C00F8000
000F800FC000
001F0007E000
003F0003F000
000000000000
000000000000
000000000000
000000000000
000000000000
000000000000
000000000000
000000000000
000000000000
000000000000
FFFFFFFFFFFE
FFFFFFFFFFFE
FFFFFFFFFFFE
FFFFFFFFFFFE
FFFFFFFFFFFE
F00000000000
F00000000000
F00000000000
F00000000000
F00000000000
F00000000000
F00000000000
F00000000000
F00000000000
F00000000000
F00000000000
F00000000000
F00000000000
F00000000000
F00000000000
F00000000000
F00000000000
F00000000000
F00000000000
F00000000000
F00000000000
F00000000000
F00000000000
F00000000000
F00000000000
F00000000000
F00000000000
F00000000000
F00000000000
F00000000000
F00000000000
FFFFFFFFFF80
FFFFFFFFFF80
FFFFFFFFFF80
FFFFFFFFFF80
FFFFFFFFFF80
F00000000000
F00000000000
F00000000000
F00000000000
F00000000000
F00000000000
F00000000000
F00000000000
F00000000000
F00000000000
F00000000000
F00000000000
F00000000000
F00000000000
F00000000000
F00000000000
F00000000000
F00000000000
F00000000000
F00000000000
F00000000000
F00000000000
F00000000000
F00000000000
F00000000000
F00000000000
F00000000000
F00000000000
F00000000000
F00000000000
F00000000000
F00000000000
FFFFFFFFFFFE
FFFFFFFFFFFE
FFFFFFFFFFFE
FFFFFFFFFFFE
FFFFFFFFFFFE
ENDCHAR
STARTCHAR 00CB
ENCODING 203
SWIDTH 563 0
DWIDTH 61 0
BBX 47 98 8 0
BITMAP
007E000FE000
007E000FE000
007E000FE000
007E000FE000
007E000FE000
007E000FE000
007E000FE000
000000000000
000000000000
000000000000
000000000000
000000000000
000000000000
000000000000
000000000000
000000000000
000000000000
000000000000
000000000000
000000000000
FFFFFFFFFFFE
FFFFFFFFFFFE
FFFFFFFFFFFE
FFFFFFFFFFFE
FFFFFFFFFFFE
F00000000000
F00000000000
F00000000000
F00000000000
F00000000000
F00000000000
F00000000000
F00000000000
F00000000000
F00000000000
F00000000000
F00000000000
F00000000000
F00000000000
F00000000000
F00000000000
F00000000000
F00000000000
F00000000000
F00000000000
F00000000000
F00000000000
F00000000000
F00000000000
F00000000000
F00000000000
F00000000000
F00000000000
F00000000000
F00000000000
F00000000000
FFFFFFFFFF80
FFFFFFFFFF80
FFFFFFFFFF80
FFFFFFFFFF80
FFFFFFFFFF80
F00000000000
F00000000000
F00000000000
F00000000000
F00000000000
F00000000000
F00000000000
F00000000000
F00000000000
F00000000000
F00000000000
F00000000000
F00000000000
F00000000000
F00000000000
F00000000000
F00000000000
F00000000000
F00000000000
F00000000000
F00000000000
F00000000000
F00000000000
F00000000000
F00000000000
F00000000000
F00000000000
F00000000000
F00000000000
F00000000000
F00000000000
F00000000000
FFFFFFFFFFFE
FFFFFFFFFFFE
FFFFFFFFFFFE
FFFFFFFFFFFE
FFFFFFFFFFFE
ENDCHAR
STARTCHAR 00CC
ENCODING 204
SWIDTH 203 0
DWIDTH 22 0
BBX 10 103 3 0
BITMAP
F800
7800
7C00
7C00
3C00
3E00
3E00
1F00
1F00
1F00
0F80
0F80
0780
07C0
07C0
0000
0000
0000
0000
0000
0000
0000
0000
0000
0000
03C0
03C0
03C0
03C0
03C0
03C0
03C0
03C0
03C0
03C0
03C0
03C0
03C0
03C0
03C0
03C0
03C0
03C0
03C0
03C0
03C0
03C0
03C0
03C0
03C0
03C0
03C0
03C0
03C0
03C0
03C0
03C0
03C0
03C0
03C0
03C0
03C0
03C0
03C0
03C0
03C0
03C0
03C0
03C0
03C0
03C0
03C0
03C0
03C0
03C0
03C0
03C0
03C0
03C0
03C0
03C0
03C0
03C0
03C0
03C0
03C0
03C0
03C0
03C0
03C0
03C0
03C0
03C0
03C0
03C0
03C0
03C0
03C0
03C0
03C0
03C0
03C0
03C0
ENDCHAR
STARTCHAR 00CD
ENCODING 205
SWIDTH 203 0
DWIDTH 22 0
BBX 9 102 9 0
BITMAP
0780
0F80
0F80
1F00
1F00
1F00
3E00
3E00
3C00
7C00
7C00
7800
F800
F800
0000
0000
0000
0000
0000
0000
0000
0000
0000
0000
F000
F000
F000
F000
F000
F000
F000
F000
F000
F000
F000
F000
F000
F000
F000
F000
F000
F000
F000
F000
F000
F000
F000
F000
F000
F000
F000
F000
F000
F000
F000
F000
F000
F000
F000
F000
F000
F000
F000
F000
F000
F000
F000
F000
F000
F000
F000
F000
F000
F000
F000
F000
F000
F000
F000
F000
F000
F000
F000
F000
F000
F000
F000
F000
F000
F000
F000
F000
F000
F000
F000
F000
F000
F000
F000
F000
F000
F000
ENDCHAR
STARTCHAR 00CE
ENCODING 206
SWIDTH 203 0
DWIDTH 22 0
BBX 26 101 -2 0
BITMAP
003F0000
007F8000
007F8000
00FFC000
01FFE000
03F3F000
07E1F800
0FC0FC00
0F807C00
1F003E00
3E003F00
7E001F80
FC000FC0
00000000
00000000
00000000
00000000
00000000
00000000
00000000
00000000
00000000
00000000
001E0000
001E0000
001E0000
001E0000
001E0000
001E0000
001E0000
001E0000
001E0000
001E0000
001E0000
001E0000
001E0000
001E0000
001E0000
001E0000
001E0000
001E0000
001E0000
001E0000
001E0000
001E0000
001E0000
001E0000
001E0000
001E0000
001E0000
001E0000
001E0000
001E0000
001E0000
001E0000
001E0000
001E0000
001E0000
001E0000
001E0000
001E0000
001E0000
001E0000
001E0000
001E0000
001E0000
001E0000
001E0000
001E0000
001E0000
001E0000
001E0000
001E0000
001E0000
001E0000
001E0000
001E0000
001E0000
001E0000
001E0000
001E0000
001E0000
001E0000
001E0000
001E0000
001E0000
001E0000
001E0000
001E0000
001E0000
001E0000
001E0000
001E0000
001E0000
001E0000
001E0000
001E0000
001E0000
001E0000
001E0000
001E0000
ENDCHAR
STARTCHAR 00CF
ENCODING 207
SWIDTH 203 0
DWIDTH 22 0
BBX 26 98 -2 0
BITMAP
FC001FC0
FC001FC0
FC001FC0
FC001FC0
FC001FC0
FC001FC0
FC001FC0
00000000
00000000
00000000
00000000
00000000
00000000
00000000
00000000
00000000
00000000
00000000
00000000
00000000
001E0000
001E0000
001E0000
001E0000
001E0000
001E0000
001E0000
001E0000
001E0000
001E0000
001E0000
001E0000
001E0000
001E0000
001E0000
001E0000
001E0000
001E0000
001E0000
001E0000
001E0000
001E0000
001E0000
001E0000
001E0000
001E0000
001E0000
001E0000
001E0000
001E0000
001E0000
001E0000
001E0000
001E0000
001E0000
001E0000
001E0000
001E0000
001E0000
001E0000
001E0000
001E0000
001E0000
001E0000
001E0000
001E0000
001E0000
001E0000
001E0000
001E0000
001E0000
001E0000
001E0000
001E0000
001E0000
001E0000
001E0000
001E0000
001E0000
001E0000
001E0000
001E0000
001E0000
001E0000
001E0000
001E0000
001E0000
001E0000
001E0000
001E0000
001E0000
001E0000
001E0000
001E0000
001E0000
001E0000
001E0000
001E0000
ENDCHAR
STARTCHAR 00D0
ENCODING 208
SWIDTH 636 0
DWIDTH 69 0
BBX 64 78 1 0
BITMAP
07FFFFFFFC000000
07FFFFFFFFE00000
07FFFFFFFFFC0000
07FFFFFFFFFF0000
07FFFFFFFFFF8000
07C0000001FFE000
07C00000001FF000
07C000000007F800
07C000000001FC00
07C000000000FE00
07C0000000003F00
07C0000000001F80
07C0000000000F80
07C0000000000FC0
07C00000000007E0
07C00000000003E0
07C00000000003F0
07C00000000001F0
07C00000000001F8
07C00000000000F8
07C00000000000F8
07C000000000007C
07C000000000007C
07C000000000007C
07C000000000003C
07C000000000003E
07C000000000003E
07C000000000003E
07C000000000003E
07C000000000001E
07C000000000001F
07C000000000001F
07C000000000001F
07C000000000001F
07C000000000001F
07C000000000001F
FFFFFFFF8000001F
FFFFFFFF8000001F
FFFFFFFF8000001F
FFFFFFFF8000001F
FFFFFFFF8000001F
07C000000000001F
07C000000000001F
07C000000000001F
07C000000000001F
07C000000000001F
07C000000000001F
07C000000000001F
07C000000000001E
07C000000000003E
07C000000000003E
07C000000000003E
07C000000000003E
07C000000000007C
07C000000000007C
07C000000000007C
07C000000000007C
07C00000000000F8
07C00000000000F8
07C00000000001F0
07C00000000001F0
07C00000000003F0
07C00000000003E0
07C00000000007E0
07C0000000000FC0
07C0000000001F80
07C0000000003F80
07C0000000007F00
07C000000000FE00
07C000000001FC00
07C000000007F800
07C00000001FF000
07C0000001FFE000
07FFFFFFFFFF8000
07FFFFFFFFFF0000
07FFFFFFFFFC0000
07FFFFFFFFE00000
07FFFFFFFE000000
ENDCHAR
STARTCHAR 00D1
ENCODING 209
SWIDTH 664 0
DWIDTH 72 0
BBX 56 97 8 0
BITMAP
00003FC000F000
00007FF000F000
0000FFFC00F000
0001FFFF00F000
0001F0FFE1F000
0001E03FFFF000
0001C00FFFE000
0001C003FFC000
0001E0007F8000
00000000000000
00000000000000
00000000000000
00000000000000
00000000000000
00000000000000
00000000000000
00000000000000
00000000000000
00000000000000
F000000000000F
F800000000000F
FC00000000000F
FE00000000000F
FE00000000000F
FF00000000000F
FF80000000000F
FF80000000000F
FFC0000000000F
F7E0000000000F
F3E0000000000F
F3F0000000000F
F1F8000000000F
F0F8000000000F
F07C000000000F
F07E000000000F
F03E000000000F
F01F000000000F
F01F800000000F
F00F800000000F
F007C00000000F
F007E00000000F
F003E00000000F
F001F00000000F
F001F80000000F
F000F80000000F
F0007C0000000F
F0007E0000000F
F0003F0000000F
F0001F0000000F
F0001F8000000F
F0000FC000000F
F00007C000000F
F00007E000000F
F00003F000000F
F00001F000000F
F00001F800000F
F00000FC00000F
F000007C00000F
F000007E00000F
F000003F00000F
F000001F00000F
F000001F80000F
F000000FC0000F
F0000007C0000F
F0000003E0000F
F0000003F0000F
F0000001F0000F
F0000000F8000F
F0000000FC000F
F00000007C000F
F00000003E000F
F00000003F000F
F00000001F000F
F00000000F800F
F00000000FC00F
F000000007E00F
F000000003E00F
F000000003F00F
F000000001F80F
F000000000F80F
F000000000FC0F
F0000000007E0F
F0000000003E0F
F0000000003F0F
F0000000001F8F
F0000000000F8F
F0000000000FCF
F00000000007EF
F00000000003EF
F00000000003FF
F00000000001FF
F00000000000FF
F000000000007F
F000000000007F
F000000000003F
F000000000001F
F000000000001F
ENDCHAR
STARTCHAR 00D2
ENCODING 210
SWIDTH 701 0
DWIDTH 76 0
BBX 70 105 3 -2
BITMAP
0000000F8000000000
0000000F8000000000
00000007C000000000
00000007C000000000
00000003C000000000
00000003E000000000
00000003E000000000
00000001E000000000
00000001F000000000
00000001F000000000
00000000F000000000
00000000F800000000
00000000F800000000
000000007C00000000
000000007C00000000
000000000000000000
000000000000000000
000000000000000000
000000000000000000
000000000000000000
000000000000000000
000000000000000000
000000000000000000
00000007FFC0000000
000000FFFFFC000000
000007FFFFFF800000
00001FFFFFFFE00000
00007FFFFFFFF80000
0001FFE0001FFE0000
0003FF000003FF0000
0007FC0000007FC000
000FF00000001FE000
001FC00000000FF000
003F8000000003F800
007F0000000001F800
00FE0000000000FC00
01FC00000000007E00
01F800000000003F00
03F000000000003F00
03F000000000001F80
07E000000000000F80
07C000000000000FC0
0FC0000000000007C0
0F80000000000007E0
1F80000000000003E0
1F00000000000003E0
1F00000000000001F0
3F00000000000001F0
3E00000000000001F0
3E00000000000001F8
3E00000000000000F8
7C00000000000000F8
7C00000000000000F8
7C00000000000000F8
7C000000000000007C
7C000000000000007C
7C000000000000007C
78000000000000007C
F8000000000000007C
F8000000000000007C
F8000000000000007C
F8000000000000007C
F8000000000000007C
F8000000000000007C
F8000000000000007C
F8000000000000007C
F8000000000000007C
F8000000000000007C
F8000000000000007C
F8000000000000007C
78000000000000007C
7C000000000000007C
7C000000000000007C
7C000000000000007C
7C00000000000000F8
7C00000000000000F8
7C00000000000000F8
3E00000000000000F8
3E00000000000000F8
3E00000000000001F0
3E00000000000001F0
1F00000000000001F0
1F00000000000003E0
1F80000000000003E0
0F80000000000007E0
0FC0000000000007C0
07C000000000000FC0
07E000000000000F80
03E000000000001F80
03F000000000003F00
01F800000000003F00
01FC00000000007E00
00FE0000000000FC00
007F0000000001FC00
003F8000000003F800
001FC00000000FF000
000FF00000001FE000
0007F80000007FC000
0003FF000001FF0000
0001FFE0001FFE0000
00007FFFFFFFF80000
00001FFFFFFFF00000
000007FFFFFF800000
000000FFFFFE000000
00000007FFC0000000
ENDCHAR
STARTCHAR 00D3
ENCODING 211
SWIDTH 701 0
DWIDTH 76 0
BBX 70 105 3 -2
BITMAP
0000000001F0000000
0000000001F0000000
0000000003E0000000
0000000003E0000000
0000000003E0000000
0000000007C0000000
0000000007C0000000
000000000780000000
000000000F80000000
000000000F80000000
000000000F00000000
000000001F00000000
000000001F00000000
000000001E00000000
000000003E00000000
000000000000000000
000000000000000000
000000000000000000
000000000000000000
000000000000000000
000000000000000000
000000000000000000
000000000000000000
00000007FFC0000000
000000FFFFFC000000
000007FFFFFF800000
00001FFFFFFFE00000
00007FFFFFFFF80000
0001FFE0001FFE0000
0003FF000003FF0000
0007FC0000007FC000
000FF00000001FE000
001FC00000000FF000
003F8000000003F800
007F0000000001F800
00FE0000000000FC00
01FC00000000007E00
01F800000000003F00
03F000000000003F00
03F000000000001F80
07E000000000000F80
07C000000000000FC0
0FC0000000000007C0
0F80000000000007E0
1F80000000000003E0
1F00000000000003E0
1F00000000000001F0
3F00000000000001F0
3E00000000000001F0
3E00000000000001F8
3E00000000000000F8
7C00000000000000F8
7C00000000000000F8
7C00000000000000F8
7C000000000000007C
7C000000000000007C
7C000000000000007C
78000000000000007C
F8000000000000007C
F8000000000000007C
F8000000000000007C
F8000000000000007C
F8000000000000007C
F8000000000000007C
F8000000000000007C
F8000000000000007C
F8000000000000007C
F8000000000000007C
F8000000000000007C
F8000000000000007C
78000000000000007C
7C000000000000007C
7C000000000000007C
7C000000000000007C
7C00000000000000F8
7C00000000000000F8
7C00000000000000F8
3E00000000000000F8
3E00000000000000F8
3E00000000000001F0
3E00000000000001F0
1F00000000000001F0
1F00000000000003E0
1F80000000000003E0
0F80000000000007E0
0FC0000000000007C0
07C000000000000FC0
07E000000000000F80
03E000000000001F80
03F000000000003F00
01F800000000003F00
01FC00000000007E00
00FE0000000000FC00
007F0000000001FC00
003F8000000003F800
001FC00000000FF000
000FF00000001FE000
0007F80000007FC000
0003FF000001FF0000
0001FFE0001FFE0000
00007FFFFFFFF80000
00001FFFFFFFF00000
000007FFFFFF800000
000000FFFFFE000000
00000007FFC0000000
ENDCHAR
STARTCHAR 00D4
ENCODING 212
SWIDTH 701 0
DWIDTH 76 0
BBX 70 103 3 -2
BITMAP
00000000FC00000000
00000001FE00000000
00000001FF00000000
00000003FF80000000
00000007EFC0000000
0000000FC7C0000000
0000001F83E0000000
0000003F03F0000000
0000003E01F8000000
0000007C00FC000000
000000F8007E000000
000001F8003E000000
000003F0001F000000
000000000000000000
000000000000000000
000000000000000000
000000000000000000
000000000000000000
000000000000000000
000000000000000000
000000000000000000
00000007FFC0000000
000000FFFFFC000000
000007FFFFFF800000
00001FFFFFFFE00000
00007FFFFFFFF80000
0001FFE0001FFE0000
0003FF000003FF0000
0007FC0000007FC000
000FF00000001FE000
001FC00000000FF000
003F8000000003F800
007F0000000001F800
00FE0000000000FC00
01FC00000000007E00
01F800000000003F00
03F000000000003F00
03F000000000001F80
07E000000000000F80
07C000000000000FC0
0FC0000000000007C0
0F80000000000007E0
1F80000000000003E0
1F00000000000003E0
1F00000000000001F0
3F00000000000001F0
3E00000000000001F0
3E00000000000001F8
3E00000000000000F8
7C00000000000000F8
7C00000000000000F8
7C00000000000000F8
7C000000000000007C
7C000000000000007C
7C000000000000007C
78000000000000007C
F8000000000000007C
F8000000000000007C
F8000000000000007C
F8000000000000007C
F8000000000000007C
F8000000000000007C
F8000000000000007C
F8000000000000007C
F8000000000000007C
F8000000000000007C
F8000000000000007C
F8000000000000007C
78000000000000007C
7C000000000000007C
7C000000000000007C
7C000000000000007C
7C00000000000000F8
7C00000000000000F8
7C00000000000000F8
3E00000000000000F8
3E00000000000000F8
3E00000000000001F0
3E00000000000001F0
1F00000000000001F0
1F00000000000003E0
1F80000000000003E0
0F80000000000007E0
0FC0000000000007C0
07C000000000000FC0
07E000000000000F80
03E000000000001F80
03F000000000003F00
01F800000000003F00
01FC00000000007E00
00FE0000000000FC00
007F0000000001FC00
003F8000000003F800
001FC00000000FF000
000FF00000001FE000
0007F80000007FC000
0003FF000001FF0000
0001FFE0001FFE0000
00007FFFFFFFF80000
00001FFFFFFFF00000
000007FFFFFF800000
000000FFFFFE000000
00000007FFC0000000
ENDCHAR
STARTCHAR 00D5
ENCODING 213
SWIDTH 701 0
DWIDTH 76 0
BBX 70 99 3 -2
BITMAP
0000007F8001E00000
000001FFE001E00000
000003FFF801E00000
000003FFFF03E00000
000007C1FFC7E00000
000007807FFFC00000
000007801FFF800000
0000078003FF000000
0000000000FE000000
000000000000000000
000000000000000000
000000000000000000
000000000000000000
000000000000000000
000000000000000000
000000000000000000
000000000000000000
00000007FFC0000000
000000FFFFFC000000
000007FFFFFF800000
00001FFFFFFFE00000
00007FFFFFFFF80000
0001FFE0001FFE0000
0003FF000003FF0000
0007FC0000007FC000
000FF00000001FE000
001FC00000000FF000
003F8000000003F800
007F0000000001F800
00FE0000000000FC00
01FC00000000007E00
01F800000000003F00
03F000000000003F00
03F000000000001F80
07E000000000000F80
07C000000000000FC0
0FC0000000000007C0
0F80000000000007E0
1F80000000000003E0
1F00000000000003E0
1F00000000000001F0
3F00000000000001F0
3E00000000000001F0
3E00000000000001F8
3E00000000000000F8
7C00000000000000F8
7C00000000000000F8
7C00000000000000F8
7C000000000000007C
7C000000000000007C
7C000000000000007C
78000000000000007C
F8000000000000007C
F8000000000000007C
F8000000000000007C
F8000000000000007C
F8000000000000007C
F8000000000000007C
F8000000000000007C
F8000000000000007C
F8000000000000007C
F8000000000000007C
F8000000000000007C
F8000000000000007C
78000000000000007C
7C000000000000007C
7C000000000000007C
7C000000000000007C
7C00000000000000F8
7C00000000000000F8
7C00000000000000F8
3E00000000000000F8
3E00000000000000F8
3E00000000000001F0
3E00000000000001F0
1F00000000000001F0
1F00000000000003E0
1F80000000000003E0
0F80000000000007E0
0FC0000000000007C0
07C000000000000FC0
07E000000000000F80
03E000000000001F80
03F000000000003F00
01F800000000003F00
01FC00000000007E00
00FE0000000000FC00
007F0000000001FC00
003F8000000003F800
001FC00000000FF000
000FF00000001FE000
0007F80000007FC000
0003FF000001FF0000
0001FFE0001FFE0000
00007FFFFFFFF80000
00001FFFFFFFF00000
000007FFFFFF800000
000000FFFFFE000000
00000007FFC0000000
ENDCHAR
STARTCHAR 00D6
ENCODING 214
SWIDTH 701 0
DWIDTH 76 0
BBX 70 100 3 -2
BITMAP
000003F8003F000000
000003F8003F000000
000003F8003F000000
000003F8003F000000
000003F8003F000000
000003F8003F000000
000003F8003F000000
000000000000000000
000000000000000000
000000000000000000
000000000000000000
000000000000000000
000000000000000000
000000000000000000
000000000000000000
000000000000000000
000000000000000000
000000000000000000
00000007FFC0000000
000000FFFFFC000000
000007FFFFFF800000
00001FFFFFFFE00000
00007FFFFFFFF80000
0001FFE0001FFE0000
0003FF000003FF0000
0007FC0000007FC000
000FF00000001FE000
001FC00000000FF000
003F8000000003F800
007F0000000001F800
00FE0000000000FC00
01FC00000000007E00
01F800000000003F00
03F000000000003F00
03F000000000001F80
07E000000000000F80
07C000000000000FC0
0FC0000000000007C0
0F80000000000007E0
1F80000000000003E0
1F00000000000003E0
1F00000000000001F0
3F00000000000001F0
3E00000000000001F0
3E00000000000001F8
3E00000000000000F8
7C00000000000000F8
7C00000000000000F8
7C00000000000000F8
7C000000000000007C
7C000000000000007C
7C000000000000007C
78000000000000007C
F8000000000000007C
F8000000000000007C
F8000000000000007C
F8000000000000007C
F8000000000000007C
F8000000000000007C
F8000000000000007C
F8000000000000007C
F8000000000000007C
F8000000000000007C
F8000000000000007C
F8000000000000007C
78000000000000007C
7C000000000000007C
7C000000000000007C
7C000000000000007C
7C00000000000000F8
7C00000000000000F8
7C00000000000000F8
3E00000000000000F8
3E00000000000000F8
3E00000000000001F0
3E00000000000001F0
1F00000000000001F0
1F00000000000003E0
1F80000000000003E0
0F80000000000007E0
0FC0000000000007C0
07C000000000000FC0
07E000000000000F80
03E000000000001F80
03F000000000003F00
01F800000000003F00
01FC00000000007E00
00FE0000000000FC00
007F0000000001FC00
003F8000000003F800
001FC00000000FF000
000FF00000001FE000
0007F80000007FC000
0003FF000001FF0000
0001FFE0001FFE0000
00007FFFFFFFF80000
00001FFFFFFFF00000
000007FFFFFF800000
000000FFFFFE000000
00000007FFC0000000
ENDCHAR
STARTCHAR 00D7
ENCODING 215
SWIDTH 470 0
DWIDTH 51 0
BBX 38 38 7 20
BITMAP
2000000020
7000000070
F8000000F8
FC000001FC
7E000003F8
3F000007F0
1F80000FE0
0FC0001FC0
07E0003F80
03F0007F00
01F800FE00
00FC01FC00
007E03F800
003F07F000
001F8FE000
000FDFC000
0007FF8000
0003FF0000
0001FE0000
0001FC0000
0003FE0000
0007FF0000
000FFF8000
001FCFC000
003F87E000
007F03F000
00FE01F800
01FC00FC00
03F8007E00
07F0003F00
0FE0001F80
1FC0000FC0
3F800007E0
7F000003F0
FE000001F8
FC000000FC
7800000078
3000000030
ENDCHAR
STARTCHAR 00D8
ENCODING 216
SWIDTH 701 0
DWIDTH 76 0
BBX 75 82 1 -2
BITMAP
00000001FFF000000000
0000003FFFFF00000100
000001FFFFFFE00003C0
000007FFFFFFF80003E0
00001FFFFFFFFE0007E0
00007FF80007FF800FC0
0000FFC000007FC01F80
0001FF0000001FE03F00
0003FC00000007F07E00
0007F000000003F8FC00
000FE000000000FDF800
001FC0000000007FF000
003F80000000003FE000
007F00000000001FC000
007E00000000001FC000
00FC00000000003FC000
00F800000000007FE000
01F80000000000FFE000
01F00000000001FFF000
03F00000000003F9F000
03E00000000007F1F800
07E0000000000FE0F800
07C0000000001FC0F800
07C0000000003F807C00
0FC0000000007F007C00
0F80000000007E007C00
0F8000000000FC007E00
0F8000000001F8003E00
1F0000000003F0003E00
1F0000000007E0003E00
1F000000000FC0003E00
1F000000001F80001F00
1F000000003F80001F00
1F000000007F00001F00
3E00000000FE00001F00
3E00000001FC00001F00
3E00000003F800001F00
3E00000007F000001F00
3E0000000FE000001F00
3E0000001FC000001F00
3E0000003F8000001F00
3E0000003F0000001F00
3E0000007E0000001F00
3E000000FC0000001F00
3E000001F80000001F00
3E000003F80000001F00
3E000007F00000001F00
1E00000FE00000001F00
1F00001FC00000001F00
1F00003F800000001F00
1F00007F000000001F00
1F0000FE000000003E00
1F0001FC000000003E00
0F0003F8000000003E00
0F8007F0000000003E00
0F800FE0000000003E00
0F801FC0000000007C00
07C01F80000000007C00
07C03F80000000007C00
07C07F0000000000F800
03E0FE0000000000F800
03E1FC0000000001F800
03F3F80000000001F000
01F7F00000000003F000
01FFE00000000003E000
00FFC00000000007E000
007F80000000000FC000
007F00000000000FC000
00FF00000000001F8000
01FF80000000003F0000
03FFC0000000007F0000
07FFE000000000FE0000
07E7F000000003FC0000
0FC3FC00000007F80000
1F81FE0000001FF00000
3F00FFC000007FC00000
7E003FF80007FF800000
FC001FFFFFFFFE000000
F80007FFFFFFFC000000
700001FFFFFFE0000000
2000003FFFFF80000000
00000003FFF000000000
ENDCHAR
STARTCHAR 00D9
ENCODING 217
SWIDTH 692 0
DWIDTH 75 0
BBX 59 105 8 -2
BITMAP
000001F000000000
000001F000000000
000000F800000000
000000F800000000
000000F800000000
0000007C00000000
0000007C00000000
0000003C00000000
0000003E00000000
0000003E00000000
0000001E00000000
0000001F00000000
0000001F00000000
0000000F00000000
0000000F80000000
0000000000000000
0000000000000000
0000000000000000
0000000000000000
0000000000000000
0000000000000000
0000000000000000
0000000000000000
0000000000000000
0000000000000000
F0000000000001E0
F0000000000001E0
F0000000000001E0
F0000000000001E0
F0000000000001E0
F0000000000001E0
F0000000000001E0
F0000000000001E0
F0000000000001E0
F0000000000001E0
F0000000000001E0
F0000000000001E0
F0000000000001E0
F0000000000001E0
F0000000000001E0
F0000000000001E0
F0000000000001E0
F0000000000001E0
F0000000000001E0
F0000000000001E0
F0000000000001E0
F0000000000001E0
F0000000000001E0
F0000000000001E0
F0000000000001E0
F0000000000001E0
F0000000000001E0
F0000000000001E0
F0000000000001E0
F0000000000001E0
F0000000000001E0
F0000000000001E0
F0000000000001E0
F0000000000001E0
F0000000000001E0
F0000000000001E0
F0000000000001E0
F0000000000001E0
F0000000000001E0
F0000000000001E0
F0000000000001E0
F0000000000001E0
F0000000000001E0
F0000000000001E0
F0000000000001E0
F0000000000001E0
F0000000000001E0
F0000000000001E0
F0000000000001E0
F0000000000001E0
F0000000000001E0
F0000000000001E0
F0000000000003E0
F0000000000003E0
F8000000000003E0
F8000000000003E0
F8000000000003E0
F8000000000003C0
F8000000000007C0
7C000000000007C0
7C00000000000FC0
7E00000000000F80
3E00000000000F80
3F00000000001F80
1F00000000003F00
1F80000000003F00
0FC0000000007E00
0FE000000000FC00
07F000000001FC00
03F800000003F800
01FC00000007F000
01FE0000001FE000
007F8000003FC000
003FE00000FF8000
001FFC0007FF0000
000FFFE1FFFC0000
0003FFFFFFF80000
0000FFFFFFC00000
00001FFFFF000000
000001FFF0000000
ENDCHAR
STARTCHAR 00DA
ENCODING 218
SWIDTH 692 0
DWIDTH 75 0
BBX 59 104 8 -2
BITMAP
00000001E0000000
00000003E0000000
00000003E0000000
00000003C0000000
00000007C0000000
00000007C0000000
0000000F80000000
0000000F80000000
0000000F80000000
0000001F00000000
0000001F00000000
0000001E00000000
0000003E00000000
0000003E00000000
0000000000000000
0000000000000000
0000000000000000
0000000000000000
0000000000000000
0000000000000000
0000000000000000
0000000000000000
0000000000000000
0000000000000000
F0000000000001E0
F0000000000001E0
F0000000000001E0
F0000000000001E0
F0000000000001E0
F0000000000001E0
F0000000000001E0
F0000000000001E0
F0000000000001E0
F0000000000001E0
F0000000000001E0
F0000000000001E0
F0000000000001E0
F0000000000001E0
F0000000000001E0
F0000000000001E0
F0000000000001E0
F0000000000001E0
F0000000000001E0
F0000000000001E0
F0000000000001E0
F0000000000001E0
F0000000000001E0
F0000000000001E0
F0000000000001E0
F0000000000001E0
F0000000000001E0
F0000000000001E0
F0000000000001E0
F0000000000001E0
F0000000000001E0
F0000000000001E0
F0000000000001E0
F0000000000001E0
F0000000000001E0
F0000000000001E0
F0000000000001E0
F0000000000001E0
F0000000000001E0
F0000000000001E0
F0000000000001E0
F0000000000001E0
F0000000000001E0
F0000000000001E0
F0000000000001E0
F0000000000001E0
F0000000000001E0
F0000000000001E0
F0000000000001E0
F0000000000001E0
F0000000000001E0
F0000000000001E0
F0000000000003E0
F0000000000003E0
F8000000000003E0
F8000000000003E0
F8000000000003E0
F8000000000003C0
F8000000000007C0
7C000000000007C0
7C00000000000FC0
7E00000000000F80
3E00000000000F80
3F00000000001F80
1F00000000003F00
1F80000000003F00
0FC0000000007E00
0FE000000000FC00
07F000000001FC00
03F800000003F800
01FC00000007F000
01FE0000001FE000
007F8000003FC000
003FE00000FF8000
001FFC0007FF0000
000FFFE1FFFC0000
0003FFFFFFF80000
0000FFFFFFC00000
00001FFFFF000000
000001FFF0000000
ENDCHAR
STARTCHAR 00DB
ENCODING 219
SWIDTH 692 0
DWIDTH 75 0
BBX 59 103 8 -2
BITMAP
0000001F00000000
0000003F80000000
0000007FC0000000
000000FFE0000000
000001FBE0000000
000003F1F0000000
000003E1F8000000
000007C0FC000000
00000FC07E000000
00001F803F000000
00003F001F000000
00007E000F800000
00007C0007C00000
0000000000000000
0000000000000000
0000000000000000
0000000000000000
0000000000000000
0000000000000000
0000000000000000
0000000000000000
0000000000000000
0000000000000000
F0000000000001E0
F0000000000001E0
F0000000000001E0
F0000000000001E0
F0000000000001E0
F0000000000001E0
F0000000000001E0
F0000000000001E0
F0000000000001E0
F0000000000001E0
F0000000000001E0
F0000000000001E0
F0000000000001E0
F0000000000001E0
F0000000000001E0
F0000000000001E0
F0000000000001E0
F0000000000001E0
F0000000000001E0
F0000000000001E0
F0000000000001E0
F0000000000001E0
F0000000000001E0
F0000000000001E0
F0000000000001E0
F0000000000001E0
F0000000000001E0
F0000000000001E0
F0000000000001E0
F0000000000001E0
F0000000000001E0
F0000000000001E0
F0000000000001E0
F0000000000001E0
F0000000000001E0
F0000000000001E0
F0000000000001E0
F0000000000001E0
F0000000000001E0
F0000000000001E0
F0000000000001E0
F0000000000001E0
F0000000000001E0
F0000000000001E0
F0000000000001E0
F0000000000001E0
F0000000000001E0
F0000000000001E0
F0000000000001E0
F0000000000001E0
F0000000000001E0
F0000000000001E0
F0000000000003E0
F0000000000003E0
F8000000000003E0
F8000000000003E0
F8000000000003E0
F8000000000003C0
F8000000000007C0
7C000000000007C0
7C00000000000FC0
7E00000000000F80
3E00000000000F80
3F00000000001F80
1F00000000003F00
1F80000000003F00
0FC0000000007E00
0FE000000000FC00
07F000000001FC00
03F800000003F800
01FC00000007F000
01FE0000001FE000
007F8000003FC000
003FE00000FF8000
001FFC0007FF0000
000FFFE1FFFC0000
0003FFFFFFF80000
0000FFFFFFC00000
00001FFFFF000000
000001FFF0000000
ENDCHAR
STARTCHAR 00DC
ENCODING 220
SWIDTH 692 0
DWIDTH 75 0
BBX 59 100 8 -2
BITMAP
0000FE000FC00000
0000FE000FC00000
0000FE000FC00000
0000FE000FC00000
0000FE000FC00000
0000FE000FC00000
0000FE000FC00000
0000000000000000
0000000000000000
0000000000000000
0000000000000000
0000000000000000
0000000000000000
0000000000000000
0000000000000000
0000000000000000
0000000000000000
0000000000000000
0000000000000000
0000000000000000
F0000000000001E0
F0000000000001E0
F0000000000001E0
F0000000000001E0
F0000000000001E0
F0000000000001E0
F0000000000001E0
F0000000000001E0
F0000000000001E0
F0000000000001E0
F0000000000001E0
F0000000000001E0
F0000000000001E0
F0000000000001E0
F0000000000001E0
F0000000000001E0
F0000000000001E0
F0000000000001E0
F0000000000001E0
F0000000000001E0
F0000000000001E0
F0000000000001E0
F0000000000001E0
F0000000000001E0
F0000000000001E0
F0000000000001E0
F0000000000001E0
F0000000000001E0
F0000000000001E0
F0000000000001E0
F0000000000001E0
F0000000000001E0
F0000000000001E0
F0000000000001E0
F0000000000001E0
F0000000000001E0
F0000000000001E0
F0000000000001E0
F0000000000001E0
F0000000000001E0
F0000000000001E0
F0000000000001E0
F0000000000001E0
F0000000000001E0
F0000000000001E0
F0000000000001E0
F0000000000001E0
F0000000000001E0
F0000000000001E0
F0000000000001E0
F0000000000001E0
F0000000000001E0
F0000000000003E0
F0000000000003E0
F8000000000003E0
F8000000000003E0
F8000000000003E0
F8000000000003C0
F8000000000007C0
7C000000000007C0
7C00000000000FC0
7E00000000000F80
3E00000000000F80
3F00000000001F80
1F00000000003F00
1F80000000003F00
0FC0000000007E00
0FE000000000FC00
07F000000001FC00
03F800000003F800
01FC00000007F000
01FE0000001FE000
007F8000003FC000
003FE00000FF8000
001FFC0007FF0000
000FFFE1FFFC0000
0003FFFFFFF80000
0000FFFFFFC00000
00001FFFFF000000
000001FFF0000000
ENDCHAR
STARTCHAR 00DD
ENCODING 221
SWIDTH 516 0
DWIDTH 56 0
BBX 56 102 0 0
BITMAP
00000007C00000
00000007C00000
0000000F800000
0000000F800000
0000000F000000
0000001F000000
0000001F000000
0000001E000000
0000003E000000
0000003E000000
0000003C000000
0000007C000000
0000007C000000
000000F8000000
00000000000000
00000000000000
00000000000000
00000000000000
00000000000000
00000000000000
00000000000000
00000000000000
00000000000000
00000000000000
F800000000001F
7C00000000003E
7E00000000003E
3E00000000007C
1F0000000000FC
1F0000000000F8
0F8000000001F0
0FC000000001F0
07C000000003E0
07E000000003E0
03E000000007C0
01F00000000FC0
01F00000000F80
00F80000001F00
00FC0000001F00
007C0000003E00
003E0000007E00
003E0000007C00
001F000000FC00
001F000000F800
000F800001F000
000FC00001F000
0007C00003E000
0003E00007E000
0003E00007C000
0001F0000FC000
0001F8000F8000
0000F8001F0000
0000FC001F0000
00007C003E0000
00003E007E0000
00003E007C0000
00001F00FC0000
00001F80F80000
00000F81F00000
00000FC1F00000
000007C3E00000
000003E7E00000
000003E7C00000
000001FFC00000
000001FF800000
000000FF000000
0000007F000000
0000007E000000
0000003E000000
0000003C000000
0000003C000000
0000003C000000
0000003C000000
0000003C000000
0000003C000000
0000003C000000
0000003C000000
0000003C000000
0000003C000000
0000003C000000
0000003C000000
0000003C000000
0000003C000000
0000003C000000
0000003C000000
0000003C000000
0000003C000000
0000003C000000
0000003C000000
0000003C000000
0000003C000000
0000003C000000
0000003C000000
0000003C000000
0000003C000000
0000003C000000
0000003C000000
0000003C000000
0000003C000000
0000003C000000
0000003C000000
0000003C000000
ENDCHAR
STARTCHAR 00DE
ENCODING 222
SWIDTH 572 0
DWIDTH 62 0
BBX 51 78 8 0
BITMAP
F0000000000000
F0000000000000
F0000000000000
F0000000000000
F0000000000000
F0000000000000
F0000000000000
F0000000000000
F0000000000000
F0000000000000
F0000000000000
F0000000000000
F0000000000000
F0000000000000
F0000000000000
FFFFFFF0000000
FFFFFFFFC00000
FFFFFFFFF80000
FFFFFFFFFE0000
FFFFFFFFFF0000
F0000001FFC000
F00000003FE000
F00000000FF000
F000000003F800
F000000001FC00
F000000000FC00
F0000000007E00
F0000000003F00
F0000000003F00
F0000000001F80
F0000000000F80
F0000000000F80
F0000000000FC0
F00000000007C0
F00000000007C0
F00000000007C0
F00000000007C0
F00000000003E0
F00000000003E0
F00000000003E0
F00000000003E0
F00000000003C0
F00000000007C0
F00000000007C0
F00000000007C0
F00000000007C0
F0000000000F80
F0000000000F80
F0000000001F80
F0000000001F00
F0000000003F00
F0000000007E00
F000000000FC00
F000000001FC00
F000000003F800
F00000000FF000
F00000003FE000
F0000001FFC000
FFFFFFFFFF0000
FFFFFFFFFE0000
FFFFFFFFF80000
FFFFFFFFC00000
FFFFFFF0000000
F0000000000000
F0000000000000
F0000000000000
F0000000000000
F0000000000000
F0000000000000
F0000000000000
F0000000000000
F0000000000000
F0000000000000
F0000000000000
F0000000000000
F0000000000000
F0000000000000
F0000000000000
ENDCHAR
STARTCHAR 00DF
ENCODING 223
SWIDTH 572 0
DWIDTH 62 0
BBX 48 82 8 -2
BITMAP
0001FFC00000
001FFFF80000
007FFFFE0000
01FFFFFF8000
03FFFFFFC000
07FC003FE000
0FF00007F000
1FC00003F800
1F800001FC00
3F000000FC00
3E0000007E00
7E0000003E00
7C0000003E00
7C0000001F00
FC0000001F00
F80000001F00
F80000001F00
F80000000F00
F80000000F80
F80000000F80
F80000000F80
F80000000F80
F80000000F80
F80000001F00
F80000001F00
F80000001F00
F80000001F00
F80000003F00
F80000003E00
F80000007E00
F8000000FC00
F8000001FC00
F8000003F800
F8000007F000
F800001FF000
F80000FFC000
F8000FFF8000
F8000FFE0000
F8000FFF0000
F8000FFFE000
F8000FFFF800
F800003FFE00
F8000003FF00
F8000000FF80
F80000003FC0
F80000000FE0
F800000007F0
F800000003F8
F800000001F8
F800000000FC
F8000000007C
F8000000007E
F8000000003E
F8000000003E
F8000000003E
F8000000001F
F8000000001F
F8000000001F
F8000000001F
F8000000001F
F8000000001F
F8000000001F
F8000000001F
F8000000003E
F8000000003E
F8000000003E
F8000000007E
F8000000007C
F8000000007C
F800000000FC
F800000001F8
F800000003F8
F800000007F0
F80000000FE0
F80000001FE0
F80000007FC0
F8020003FF80
F803FFFFFE00
F803FFFFFC00
F803FFFFF000
0001FFFF8000
00007FFC0000
ENDCHAR
STARTCHAR 00E0
ENCODING 224
SWIDTH 544 0
DWIDTH 59 0
BBX 48 85 4 -2
BITMAP
00001F000000
00001F000000
00001F000000
00000F800000
00000F800000
000007800000
000007C00000
000007C00000
000003C00000
000003E00000
000003E00000
000001E00000
000001F00000
000001F00000
000000F80000
000000000000
000000000000
000000000000
000000000000
000000000000
000000000000
000000000000
000000000000
00000FFF0000
0000FFFFE000
0003FFFFFC00
000FFFFFFF00
003FFFFFFF80
007FE0007FC0
00FF00000FE0
01FC000007F0
03F8000001F8
03F0000000F8
07E0000000FC
0FC00000007C
0FC00000003E
0F800000003E
1F800000003E
1F000000001F
1F000000001F
07000000001F
00000000001F
00000000001F
00000000001F
00000000000F
00000000000F
00000000000F
00000000001F
000000003FFF
0000001FFFFF
00000FFFFFFF
0001FFFFFFFF
000FFFFFF80F
007FFFF8000F
00FFFC00000F
03FF8000000F
07FC0000000F
0FF00000000F
1FC00000001F
1F800000001F
3F000000001F
7E000000001F
7C000000001F
7C000000001F
7C000000001F
F8000000003F
F8000000003F
F8000000003F
F8000000007F
F8000000007F
F800000000FF
7C00000001FF
7C00000001FF
7C00000003FF
3E00000007EF
3F0000000FCF
1F8000003F8F
1FC000007F0F
0FE00001FE0F
07FC000FFC0F
03FFFFFFF80F
01FFFFFFE00F
007FFFFF800F
001FFFFE0000
0001FFC00000
ENDCHAR
STARTCHAR 00E1
ENCODING 225
SWIDTH 544 0
DWIDTH 59 0
BBX 48 85 4 -2
BITMAP
0000000F8000
0000000F8000
0000000F8000
0000001F0000
0000001F0000
0000001E0000
0000003E0000
0000003E0000
0000003C0000
0000007C0000
0000007C0000
000000780000
000000F80000
000000F80000
000000F00000
000000000000
000000000000
000000000000
000000000000
000000000000
000000000000
000000000000
000000000000
00000FFF0000
0000FFFFE000
0003FFFFFC00
000FFFFFFF00
003FFFFFFF80
007FE0007FC0
00FF00000FE0
01FC000007F0
03F8000001F8
03F0000000F8
07E0000000FC
0FC00000007C
0FC00000003E
0F800000003E
1F800000003E
1F000000001F
1F000000001F
07000000001F
00000000001F
00000000001F
00000000001F
00000000000F
00000000000F
00000000000F
00000000001F
000000003FFF
0000001FFFFF
00000FFFFFFF
0001FFFFFFFF
000FFFFFF80F
007FFFF8000F
00FFFC00000F
03FF8000000F
07FC0000000F
0FF00000000F
1FC00000001F
1F800000001F
3F000000001F
7E000000001F
7C000000001F
7C000000001F
7C000000001F
F8000000003F
F8000000003F
F8000000003F
F8000000007F
F8000000007F
F800000000FF
7C00000001FF
7C00000001FF
7C00000003FF
3E00000007EF
3F0000000FCF
1F8000003F8F
1FC000007F0F
0FE00001FE0F
07FC000FFC0F
03FFFFFFF80F
01FFFFFFE00F
007FFFFF800F
001FFFFE0000
0001FFC00000
ENDCHAR
STARTCHAR 00E2
ENCODING 226
SWIDTH 544 0
DWIDTH 59 0
BBX 48 83 4 -2
BITMAP
000001F80000
000003FC0000
000003FE0000
000007FF0000
00000FDF0000
00001F8F8000
00003F07C000
00007E07E000
00007C03F000
0000F801F800
0001F000F800
0003F0007C00
0007E0003E00
000000000000
000000000000
000000000000
000000000000
000000000000
000000000000
000000000000
000000000000
00000FFF0000
0000FFFFE000
0003FFFFFC00
000FFFFFFF00
003FFFFFFF80
007FE0007FC0
00FF00000FE0
01FC000007F0
03F8000001F8
03F0000000F8
07E0000000FC
0FC00000007C
0FC00000003E
0F800000003E
1F800000003E
1F000000001F
1F000000001F
07000000001F
00000000001F
00000000001F
00000000001F
00000000000F
00000000000F
00000000000F
00000000001F
000000003FFF
0000001FFFFF
00000FFFFFFF
0001FFFFFFFF
000FFFFFF80F
007FFFF8000F
00FFFC00000F
03FF8000000F
07FC0000000F
0FF00000000F
1FC00000001F
1F800000001F
3F000000001F
7E000000001F
7C000000001F
7C000000001F
7C000000001F
F8000000003F
F8000000003F
F8000000003F
F8000000007F
F8000000007F
F800000000FF
7C00000001FF
7C00000001FF
7C00000003FF
3E00000007EF
3F0000000FCF
1F8000003F8F
1FC000007F0F
0FE00001FE0F
07FC000FFC0F
03FFFFFFF80F
01FFFFFFE00F
007FFFFF800F
001FFFFE0000
0001FFC00000
ENDCHAR
STARTCHAR 00E3
ENCODING 227
SWIDTH 544 0
DWIDTH 59 0
BBX 48 79 4 -2
BITMAP
0001FE000780
0003FFC00780
0007FFF00780
000FFFFC0780
000F87FF9F80
000F00FFFF00
000F003FFF00
000F000FFE00
00000001F800
000000000000
000000000000
000000000000
000000000000
000000000000
000000000000
000000000000
000000000000
00000FFF0000
0000FFFFE000
0003FFFFFC00
000FFFFFFF00
003FFFFFFF80
007FE0007FC0
00FF00000FE0
01FC000007F0
03F8000001F8
03F0000000F8
07E0000000FC
0FC00000007C
0FC00000003E
0F800000003E
1F800000003E
1F000000001F
1F000000001F
07000000001F
00000000001F
00000000001F
00000000001F
00000000000F
00000000000F
00000000000F
00000000001F
000000003FFF
0000001FFFFF
00000FFFFFFF
0001FFFFFFFF
000FFFFFF80F
007FFFF8000F
00FFFC00000F
03FF8000000F
07FC0000000F
0FF00000000F
1FC00000001F
1F800000001F
3F000000001F
7E000000001F
7C000000001F
7C000000001F
7C000000001F
F8000000003F
F8000000003F
F8000000003F
F8000000007F
F8000000007F
F800000000FF
7C00000001FF
7C00000001FF
7C00000003FF
3E00000007EF
3F0000000FCF
1F8000003F8F
1FC000007F0F
0FE00001FE0F
07FC000FFC0F
03FFFFFFF80F
01FFFFFFE00F
007FFFFF800F
001FFFFE0000
0001FFC00000
ENDCHAR
STARTCHAR 00E4
ENCODING 228
SWIDTH 544 0
DWIDTH 59 0
BBX 48 80 4 -2
BITMAP
0003F0007F00
0003F0007F00
0003F0007F00
0003F0007F00
0003F0007F00
0003F0007F00
0003F0007F00
000000000000
000000000000
000000000000
000000000000
000000000000
000000000000
000000000000
000000000000
000000000000
000000000000
000000000000
00000FFF0000
0000FFFFE000
0003FFFFFC00
000FFFFFFF00
003FFFFFFF80
007FE0007FC0
00FF00000FE0
01FC000007F0
03F8000001F8
03F0000000F8
07E0000000FC
0FC00000007C
0FC00000003E
0F800000003E
1F800000003E
1F000000001F
1F000000001F
07000000001F
00000000001F
00000000001F
00000000001F
00000000000F
00000000000F
00000000000F
00000000001F
000000003FFF
0000001FFFFF
00000FFFFFFF
0001FFFFFFFF
000FFFFFF80F
007FFFF8000F
00FFFC00000F
03FF8000000F
07FC0000000F
0FF00000000F
1FC00000001F
1F800000001F
3F000000001F
7E000000001F
7C000000001F
7C000000001F
7C000000001F
F8000000003F
F8000000003F
F8000000003F
F8000000007F
F8000000007F
F800000000FF
7C00000001FF
7C00000001FF
7C00000003FF
3E00000007EF
3F0000000FCF
1F8000003F8F
1FC000007F0F
0FE00001FE0F
07FC000FFC0F
03FFFFFFF80F
01FFFFFFE00F
007FFFFF800F
001FFFFE0000
0001FFC00000
ENDCHAR
STARTCHAR 00E5
ENCODING 229
SWIDTH 544 0
DWIDTH 59 0
BBX 48 88 4 -2
BITMAP
000001F80000
000007FF0000
00001FFF8000
00003FFFC000
00003FFFE000
00007E07E000
0000FC01F000
0000F801F000
0000F800F000
0000F000F800
0000F000F800
0000F000F800
0000F800F000
0000F801F000
0000FC01F000
00007E07E000
00003FFFE000
00003FFFC000
00001FFF8000
000007FF0000
000001F80000
000000000000
000000000000
000000000000
000000000000
000000000000
00000FFF0000
0000FFFFE000
0003FFFFFC00
000FFFFFFF00
003FFFFFFF80
007FE0007FC0
00FF00000FE0
01FC000007F0
03F8000001F8
03F0000000F8
07E0000000FC
0FC00000007C
0FC00000003E
0F800000003E
1F800000003E
1F000000001F
1F000000001F
07000000001F
00000000001F
00000000001F
00000000001F
00000000000F
00000000000F
00000000000F
00000000001F
000000003FFF
0000001FFFFF
00000FFFFFFF
0001FFFFFFFF
000FFFFFF80F
007FFFF8000F
00FFFC00000F
03FF8000000F
07FC0000000F
0FF00000000F
1FC00000001F
1F800000001F
3F000000001F
7E000000001F
7C000000001F
7C000000001F
7C000000001F
F8000000003F
F8000000003F
F8000000003F
F8000000007F
F8000000007F
F800000000FF
7C00000001FF
7C00000001FF
7C00000003FF
3E00000007EF
3F0000000FCF
1F8000003F8F
1FC000007F0F
0FE00001FE0F
07FC000FFC0F
03FFFFFFF80F
01FFFFFFE00F
007FFFFF800F
001FFFFE0000
0001FFC00000
ENDCHAR
STARTCHAR 00E6
ENCODING 230
SWIDTH 941 0
DWIDTH 102 0
BBX 94 62 4 -2
BITMAP
00000FFF00000000FFE00000
0000FFFFE000000FFFFC0000
0007FFFFFC00003FFFFF0000
001FFFFFFE0000FFFFFFC000
003FFFFFFF8003FFFFFFF000
007FE0007FC007FE001FF800
01FF00001FE00FF00003FC00
01FC000007F01FC00000FE00
03F8000003F03F8000007F00
07F0000001F83F0000003F00
0FE0000000F87E0000001F80
0FC00000007CFC0000000FC0
0F800000007CF800000007C0
1F800000003FF000000007E0
1F000000003FF000000003E0
1F000000003FE000000003E0
07000000001FE000000001F0
00000000001FC000000001F0
00000000001FC000000000F0
00000000001FC000000000F8
00000000001F8000000000F8
00000000001F8000000000F8
00000000000F800000000078
00000000000F800000000078
00000000000F80000000007C
00000000000F80000000007C
00000000000F00000000007C
00000000000F00000000007C
0000FFFFFFFFFFFFFFFFFFFC
000FFFFFFFFFFFFFFFFFFFFC
007FFFFFFFFFFFFFFFFFFFFC
01FFFFFFFFFFFFFFFFFFFFFC
03FF8000000FFFFFFFFFFFFC
07F80000000F000000000000
0FE00000000F000000000000
1F800000001F000000000000
3F000000001F000000000000
3E000000001F800000000000
7E000000001F800000000000
7C000000001F800000000000
7C000000001F800000000000
78000000003F800000000000
F8000000003FC00000000000
F8000000003FC00000000000
F8000000003FC00000000000
F8000000007FE00000000060
F8000000007FE000000000F8
F800000000FDF000000001F0
7C00000001F9F000000001F0
7C00000001F8F800000003E0
7C00000003F0FC00000007E0
3E00000007E07C0000000FC0
3E0000000FE03E0000001F80
1F0000003FC03F8000003F00
1FC000007F801FC00000FE00
0FE00003FF000FF00003FC00
07FC000FFE0007FC000FF800
03FFFFFFF80003FFFFFFF000
01FFFFFFF00000FFFFFFC000
007FFFFFC000003FFFFF8000
001FFFFE0000000FFFFC0000
0001FFE000000001FFE00000
ENDCHAR
STARTCHAR 00E7
ENCODING 231
SWIDTH 535 0
DWIDTH 58 0
BBX 51 86 4 -26
BITMAP
000007FF000000
00007FFFF00000
0001FFFFFE0000
0007FFFFFF8000
001FFFFFFFC000
003FF0003FF000
007FC0000FF800
00FF000003FC00
01FC000000FE00
03F80000007F00
03F00000003F00
07E00000001F80
07C00000000FC0
0FC000000007C0
0F8000000007E0
1F000000000380
1F000000000000
3F000000000000
3E000000000000
3E000000000000
3E000000000000
7C000000000000
7C000000000000
7C000000000000
7C000000000000
7C000000000000
78000000000000
F8000000000000
F8000000000000
F8000000000000
F8000000000000
F8000000000000
F8000000000000
F8000000000000
F8000000000000
78000000000000
7C000000000000
7C000000000000
7C000000000000
7C000000000000
7C000000000000
3E000000000000
3E000000000000
3E000000000000
3F000000000000
1F000000000000
1F000000000300
0F8000000007C0
0FC000000007C0
07C00000000FC0
07E00000001F80
03F00000003F00
01F80000007F00
01FC000000FE00
00FE000001FC00
007F800007F800
003FF0003FF000
000FFFFFFFC000
0007FFFFFF8000
0001FFFFFE0000
00007FFFF80000
000007FF800000
00000078000000
000000F8000000
000000F0000000
000001F0000000
000001F0000000
000001E0000000
000003F0000000
000003F8000000
000003FE000000
000001FF000000
0000003F000000
0000001F800000
0000000F800000
0000000F800000
00000007800000
00000007800000
0000000F800000
0000000F800000
0000001F800000
0000183F000000
00003FFF000000
00003FFE000000
00003FFC000000
00001FF0000000
ENDCHAR
STARTCHAR 00E8
ENCODING 232
SWIDTH 572 0
DWIDTH 62 0
BBX 54 85 4 -2
BITMAP
000007C0000000
000007C0000000
000007C0000000
000003E0000000
000003E0000000
000003E0000000
000001F0000000
000001F0000000
000000F0000000
000000F8000000
000000F8000000
00000078000000
0000007C000000
0000007C000000
0000003C000000
00000000000000
00000000000000
00000000000000
00000000000000
00000000000000
00000000000000
00000000000000
00000000000000
000007FF800000
00007FFFF80000
0001FFFFFE0000
0007FFFFFF8000
000FFFFFFFC000
003FF0003FF000
007FC00007F800
00FF000003FC00
01FC000000FE00
03F80000007E00
03F00000003F00
07E00000001F80
07C00000000F80
0FC00000000FC0
0F8000000007C0
1F0000000007E0
1F0000000003E0
3E0000000003F0
3E0000000001F0
3E0000000001F0
7C0000000001F0
7C0000000000F8
7C0000000000F8
7C0000000000F8
7C0000000000F8
7C0000000000F8
78000000000078
F800000000007C
FFFFFFFFFFFFFC
FFFFFFFFFFFFFC
FFFFFFFFFFFFFC
FFFFFFFFFFFFFC
FFFFFFFFFFFFFC
F8000000000000
F8000000000000
F8000000000000
78000000000000
7C000000000000
7C000000000000
7C000000000000
7C000000000000
7C000000000000
3E000000000000
3E000000000000
3E000000000080
1F0000000000E0
1F0000000001F0
1F8000000001F0
0F8000000003E0
0FC000000007E0
07E00000000FC0
03F00000001F80
03F80000003F00
01FC0000007F00
00FE000001FE00
007F800007FC00
003FF0003FF000
000FFFFFFFE000
0007FFFFFF8000
0001FFFFFE0000
00003FFFF80000
000003FF800000
ENDCHAR
STARTCHAR 00E9
ENCODING 233
SWIDTH 572 0
DWIDTH 62 0
BBX 54 85 4 -2
BITMAP
00000001F00000
00000001E00000
00000003E00000
00000003E00000
00000003C00000
00000007C00000
00000007C00000
0000000F800000
0000000F800000
0000000F800000
0000001F000000
0000001F000000
0000001E000000
0000003E000000
0000003E000000
00000000000000
00000000000000
00000000000000
00000000000000
00000000000000
00000000000000
00000000000000
00000000000000
000007FF800000
00007FFFF80000
0001FFFFFE0000
0007FFFFFF8000
000FFFFFFFC000
003FF0003FF000
007FC00007F800
00FF000003FC00
01FC000000FE00
03F80000007E00
03F00000003F00
07E00000001F80
07C00000000F80
0FC00000000FC0
0F8000000007C0
1F0000000007E0
1F0000000003E0
3E0000000003F0
3E0000000001F0
3E0000000001F0
7C0000000001F0
7C0000000000F8
7C0000000000F8
7C0000000000F8
7C0000000000F8
7C0000000000F8
78000000000078
F800000000007C
FFFFFFFFFFFFFC
FFFFFFFFFFFFFC
FFFFFFFFFFFFFC
FFFFFFFFFFFFFC
FFFFFFFFFFFFFC
F8000000000000
F8000000000000
F8000000000000
78000000000000
7C000000000000
7C000000000000
7C000000000000
7C000000000000
7C000000000000
3E000000000000
3E000000000000
3E000000000080
1F0000000000E0
1F0000000001F0
1F8000000001F0
0F8000000003E0
0FC000000007E0
07E00000000FC0
03F00000001F80
03F80000003F00
01FC0000007F00
00FE000001FE00
007F800007FC00
003FF0003FF000
000FFFFFFFE000
0007FFFFFF8000
0001FFFFFE0000
00003FFFF80000
000003FF800000
ENDCHAR
STARTCHAR 00EA
ENCODING 234
SWIDTH 572 0
DWIDTH 62 0
BBX 54 83 4 -2
BITMAP
000000FC000000
000001FE000000
000003FF000000
000003FF800000
000007CF800000
00000FC7C00000
00001F87E00000
00003F03F00000
00007E01F80000
00007C00FC0000
0000F8007C0000
0001F0003E0000
0003F0001F0000
00000000000000
00000000000000
00000000000000
00000000000000
00000000000000
00000000000000
00000000000000
00000000000000
000007FF800000
00007FFFF80000
0001FFFFFE0000
0007FFFFFF8000
000FFFFFFFC000
003FF0003FF000
007FC00007F800
00FF000003FC00
01FC000000FE00
03F80000007E00
03F00000003F00
07E00000001F80
07C00000000F80
0FC00000000FC0
0F8000000007C0
1F0000000007E0
1F0000000003E0
3E0000000003F0
3E0000000001F0
3E0000000001F0
7C0000000001F0
7C0000000000F8
7C0000000000F8
7C0000000000F8
7C0000000000F8
7C0000000000F8
78000000000078
F800000000007C
FFFFFFFFFFFFFC
FFFFFFFFFFFFFC
FFFFFFFFFFFFFC
FFFFFFFFFFFFFC
FFFFFFFFFFFFFC
F8000000000000
F8000000000000
F8000000000000
78000000000000
7C000000000000
7C000000000000
7C000000000000
7C000000000000
7C000000000000
3E000000000000
3E000000000000
3E000000000080
1F0000000000E0
1F0000000001F0
1F8000000001F0
0F8000000003E0
0FC000000007E0
07E00000000FC0
03F00000001F80
03F80000003F00
01FC0000007F00
00FE000001FE00
007F800007FC00
003FF0003FF000
000FFFFFFFE000
0007FFFFFF8000
0001FFFFFE0000
00003FFFF80000
000003FF800000
ENDCHAR
STARTCHAR 00EB
ENCODING 235
SWIDTH 572 0
DWIDTH 62 0
BBX 54 80 4 -2
BITMAP
0003F8003F0000
0003F8003F0000
0003F8003F0000
0003F8003F0000
0003F8003F0000
0003F8003F0000
0003F8003F0000
00000000000000
00000000000000
00000000000000
00000000000000
00000000000000
00000000000000
00000000000000
00000000000000
00000000000000
00000000000000
00000000000000
000007FF800000
00007FFFF80000
0001FFFFFE0000
0007FFFFFF8000
000FFFFFFFC000
003FF0003FF000
007FC00007F800
00FF000003FC00
01FC000000FE00
03F80000007E00
03F00000003F00
07E00000001F80
07C00000000F80
0FC00000000FC0
0F8000000007C0
1F0000000007E0
1F0000000003E0
3E0000000003F0
3E0000000001F0
3E0000000001F0
7C0000000001F0
7C0000000000F8
7C0000000000F8
7C0000000000F8
7C0000000000F8
7C0000000000F8
78000000000078
F800000000007C
FFFFFFFFFFFFFC
FFFFFFFFFFFFFC
FFFFFFFFFFFFFC
FFFFFFFFFFFFFC
FFFFFFFFFFFFFC
F8000000000000
F8000000000000
F8000000000000
78000000000000
7C000000000000
7C000000000000
7C000000000000
7C000000000000
7C000000000000
3E000000000000
3E000000000000
3E000000000080
1F0000000000E0
1F0000000001F0
1F8000000001F0
0F8000000003E0
0FC000000007E0
07E00000000FC0
03F00000001F80
03F80000003F00
01FC0000007F00
00FE000001FE00
007F800007FC00
003FF0003FF000
000FFFFFFFE000
0007FFFFFF8000
0001FFFFFE0000
00003FFFF80000
000003FF800000
ENDCHAR
STARTCHAR 00EC
ENCODING 236
SWIDTH 203 0
DWIDTH 22 0
BBX 10 84 3 0
BITMAP
F800
7800
7C00
7C00
3C00
3E00
3E00
1F00
1F00
1F00
0F80
0F80
0780
07C0
07C0
0000
0000
0000
0000
0000
0000
0000
0000
0000
0000
03C0
03C0
03C0
03C0
03C0
03C0
03C0
03C0
03C0
03C0
03C0
03C0
03C0
03C0
03C0
03C0
03C0
03C0
03C0
03C0
03C0
03C0
03C0
03C0
03C0
03C0
03C0
03C0
03C0
03C0
03C0
03C0
03C0
03C0
03C0
03C0
03C0
03C0
03C0
03C0
03C0
03C0
03C0
03C0
03C0
03C0
03C0
03C0
03C0
03C0
03C0
03C0
03C0
03C0
03C0
03C0
03C0
03C0
03C0
ENDCHAR
STARTCHAR 00ED
ENCODING 237
SWIDTH 203 0
DWIDTH 22 0
BBX 9 83 9 0
BITMAP
0780
0F80
0F80
1F00
1F00
1F00
3E00
3E00
3C00
7C00
7C00
7800
F800
F800
0000
0000
0000
0000
0000
0000
0000
0000
0000
0000
F000
F000
F000
F000
F000
F000
F000
F000
F000
F000
F000
F000
F000
F000
F000
F000
F000
F000
F000
F000
F000
F000
F000
F000
F000
F000
F000
F000
F000
F000
F000
F000
F000
F000
F000
F000
F000
F000
F000
F000
F000
F000
F000
F000
F000
F000
F000
F000
F000
F000
F000
F000
F000
F000
F000
F000
F000
F000
F000
ENDCHAR
STARTCHAR 00EE
ENCODING 238
SWIDTH 203 0
DWIDTH 22 0
BBX 26 82 -2 0
BITMAP
003F0000
007F8000
007F8000
00FFC000
01FFE000
03F3F000
07E1F800
0FC0FC00
0F807C00
1F003E00
3E003F00
7E001F80
FC000FC0
00000000
00000000
00000000
00000000
00000000
00000000
00000000
00000000
00000000
00000000
001E0000
001E0000
001E0000
001E0000
001E0000
001E0000
001E0000
001E0000
001E0000
001E0000
001E0000
001E0000
001E0000
001E0000
001E0000
001E0000
001E0000
001E0000
001E0000
001E0000
001E0000
001E0000
001E0000
001E0000
001E0000
001E0000
001E0000
001E0000
001E0000
001E0000
001E0000
001E0000
001E0000
001E0000
001E0000
001E0000
001E0000
001E0000
001E0000
001E0000
001E0000
001E0000
001E0000
001E0000
001E0000
001E0000
001E0000
001E0000
001E0000
001E0000
001E0000
001E0000
001E0000
001E0000
001E0000
001E0000
001E0000
001E0000
001E0000
ENDCHAR
STARTCHAR 00EF
ENCODING 239
SWIDTH 203 0
DWIDTH 22 0
BBX 26 78 -2 0
BITMAP
FC001FC0
FC001FC0
FC001FC0
FC001FC0
FC001FC0
FC001FC0
FC001FC0
00000000
00000000
00000000
00000000
00000000
00000000
00000000
00000000
00000000
00000000
00000000
00000000
001E0000
001E0000
001E0000
001E0000
001E0000
001E0000
001E0000
001E0000
001E0000
001E0000
001E0000
001E0000
001E0000
001E0000
001E0000
001E0000
001E0000
001E0000
001E0000
001E0000
001E0000
001E0000
001E0000
001E0000
001E0000
001E0000
001E0000
001E0000
001E0000
001E0000
001E0000
001E0000
001E0000
001E0000
001E0000
001E0000
001E0000
001E0000
001E0000
001E0000
001E0000
001E0000
001E0000
001E0000
001E0000
001E0000
001E0000
001E0000
001E0000
001E0000
001E0000
001E0000
001E0000
001E0000
001E0000
001E0000
001E0000
001E0000
001E0000
ENDCHAR
STARTCHAR 00F0
ENCODING 240
SWIDTH 572 0
DWIDTH 62 0
BBX 54 86 4 -2
BITMAP
00000000008000
0000000001E000
0000000003F000
0000000007E000
0000000007C000
000007C00FC000
000007FC1F8000
000007FFBF0000
000007FFFE0000
000007FFFC0000
0000001FFE0000
00000003FF0000
00000003FF8000
00000007FFC000
00000007CFE000
0000000FC3F000
0000001F81F800
0000003F00FC00
0000007E007E00
0000003C003E00
0000001C003F00
00000000001F00
00000000000F80
00000000000F80
000000000007C0
000000000007C0
000000000003E0
000000000003E0
000007FF8003E0
00007FFFF801F0
0001FFFFFE01F0
0007FFFFFF81F0
001FFFFFFFE0F0
003FF0003FF0F8
007F800007F8F8
00FE000001FCF8
01FC000000FEF8
03F00000003FF8
07E00000001FF8
07E00000000FF8
0FC00000000FF8
0F8000000007F8
1F0000000003F8
1F0000000003F8
3E0000000001FC
3E0000000001FC
3E0000000001FC
7C0000000000FC
7C0000000000FC
7C0000000000FC
7C0000000000FC
7C0000000000FC
7800000000007C
F800000000007C
F800000000007C
F800000000007C
F800000000007C
F800000000007C
F800000000007C
F800000000007C
F800000000007C
78000000000078
7C0000000000F8
7C0000000000F8
7C0000000000F8
7C0000000000F8
7C0000000000F8
3E0000000001F0
3E0000000001F0
3E0000000001F0
1F0000000003E0
1F0000000003E0
0F8000000007C0
0FC00000000FC0
07C00000000F80
07E00000001F80
03F00000003F00
01FC000000FE00
00FE000001FC00
007F800007F800
003FF0003FF000
001FFFFFFFE000
0007FFFFFF8000
0001FFFFFE0000
00007FFFF80000
000007FF800000
ENDCHAR
STARTCHAR 00F1
ENCODING 241
SWIDTH 572 0
DWIDTH 62 0
BBX 48 78 8 0
BITMAP
000FE0003C00
001FF8003C00
003FFF003C00
007FFFC03C00
007E7FF07C00
00F80FFFF800
00F003FFF800
00F000FFF000
00F0003FC000
000000000000
000000000000
000000000000
000000000000
000000000000
000000000000
000000000000
000000000000
000000000000
00001FF80000
F001FFFF8000
F00FFFFFE000
F01FFFFFF800
F07FFEFFFC00
F0FF8001FE00
F1FC00007F00
F3F800001F80
F7E000000FC0
F7C0000007E0
FF80000003E0
FF80000001F0
FF00000001F0
FE00000000F8
FE00000000F8
FC000000007C
FC000000007C
FC000000003C
F8000000003E
F8000000003E
F8000000003E
F8000000003E
F0000000001E
F0000000001E
F0000000001E
F0000000001E
F0000000001F
F0000000001F
F0000000001F
F0000000001F
F0000000001F
F0000000001F
F0000000001F
F0000000001F
F0000000001F
F0000000001F
F0000000001F
F0000000001F
F0000000001F
F0000000001F
F0000000001F
F0000000001F
F0000000001F
F0000000001F
F0000000001F
F0000000001F
F0000000001F
F0000000001F
F0000000001F
F0000000001F
F0000000001F
F0000000001F
F0000000001F
F0000000001F
F0000000001F
F0000000001F
F0000000001F
F0000000001F
F0000000001F
F0000000001F
ENDCHAR
STARTCHAR 00F2
ENCODING 242
SWIDTH 572 0
DWIDTH 62 0
BBX 54 85 4 -2
BITMAP
00001F00000000
00000F00000000
00000F80000000
00000F80000000
00000780000000
000007C0000000
000007C0000000
000003C0000000
000003E0000000
000003E0000000
000001F0000000
000001F0000000
000001F0000000
000000F8000000
000000F8000000
00000000000000
00000000000000
00000000000000
00000000000000
00000000000000
00000000000000
00000000000000
00000000000000
000007FF800000
00003FFFF80000
0001FFFFFE0000
0007FFFFFF8000
000FFFFFFFC000
003FF0003FF000
007F800007F800
00FF000001FC00
01FC000000FE00
01F80000007F00
03F00000003F00
07E00000001F80
07C00000000FC0
0F8000000007C0
0F8000000007E0
1F0000000003E0
1F0000000003E0
3E0000000001F0
3E0000000001F0
3E0000000001F0
7C0000000000F8
7C0000000000F8
7C0000000000F8
7C0000000000F8
7C000000000078
7C00000000007C
F800000000007C
F800000000007C
F800000000007C
F800000000007C
F800000000007C
F800000000007C
F800000000007C
F800000000007C
F800000000007C
7800000000007C
7C00000000007C
7C0000000000F8
7C0000000000F8
7C0000000000F8
7C0000000000F8
7C0000000000F8
3E0000000001F0
3E0000000001F0
3E0000000001F0
1F0000000003E0
1F0000000003E0
0F8000000007E0
0FC000000007C0
07C00000000FC0
07E00000001F80
03F00000003F00
01F80000007F00
01FC000000FE00
00FF000001FC00
007F800007F800
003FF0003FF000
000FFFFFFFE000
0007FFFFFF8000
0001FFFFFE0000
00007FFFF80000
000003FF800000
ENDCHAR
STARTCHAR 00F3
ENCODING 243
SWIDTH 572 0
DWIDTH 62 0
BBX 54 85 4 -2
BITMAP
00000003C00000
00000007C00000
00000007C00000
00000007800000
0000000F800000
0000000F800000
0000000F000000
0000001F000000
0000001F000000
0000003E000000
0000003E000000
0000003E000000
0000007C000000
0000007C000000
00000078000000
00000000000000
00000000000000
00000000000000
00000000000000
00000000000000
00000000000000
00000000000000
00000000000000
000007FF800000
00003FFFF80000
0001FFFFFE0000
0007FFFFFF8000
000FFFFFFFC000
003FF0003FF000
007F800007F800
00FF000001FC00
01FC000000FE00
01F80000007F00
03F00000003F00
07E00000001F80
07C00000000FC0
0F8000000007C0
0F8000000007E0
1F0000000003E0
1F0000000003E0
3E0000000001F0
3E0000000001F0
3E0000000001F0
7C0000000000F8
7C0000000000F8
7C0000000000F8
7C0000000000F8
7C000000000078
7C00000000007C
F800000000007C
F800000000007C
F800000000007C
F800000000007C
F800000000007C
F800000000007C
F800000000007C
F800000000007C
F800000000007C
7800000000007C
7C00000000007C
7C0000000000F8
7C0000000000F8
7C0000000000F8
7C0000000000F8
7C0000000000F8
3E0000000001F0
3E0000000001F0
3E0000000001F0
1F0000000003E0
1F0000000003E0
0F8000000007E0
0FC000000007C0
07C00000000FC0
07E00000001F80
03F00000003F00
01F80000007F00
01FC000000FE00
00FF000001FC00
007F800007F800
003FF0003FF000
000FFFFFFFE000
0007FFFFFF8000
0001FFFFFE0000
00007FFFF80000
000003FF800000
ENDCHAR
STARTCHAR 00F4
ENCODING 244
SWIDTH 572 0
DWIDTH 62 0
BBX 54 83 4 -2
BITMAP
000000FC000000
000001FE000000
000003FF000000
000003FF800000
000007CF800000
00000FC7C00000
00001F87E00000
00003F03F00000
00007E01F80000
00007C00FC0000
0000F8007C0000
0001F0003E0000
0003F0001F0000
00000000000000
00000000000000
00000000000000
00000000000000
00000000000000
00000000000000
00000000000000
00000000000000
000007FF800000
00003FFFF80000
0001FFFFFE0000
0007FFFFFF8000
000FFFFFFFC000
003FF0003FF000
007F800007F800
00FF000001FC00
01FC000000FE00
01F80000007F00
03F00000003F00
07E00000001F80
07C00000000FC0
0F8000000007C0
0F8000000007E0
1F0000000003E0
1F0000000003E0
3E0000000001F0
3E0000000001F0
3E0000000001F0
7C0000000000F8
7C0000000000F8
7C0000000000F8
7C0000000000F8
7C000000000078
7C00000000007C
F800000000007C
F800000000007C
F800000000007C
F800000000007C
F800000000007C
F800000000007C
F800000000007C
F800000000007C
F800000000007C
7800000000007C
7C00000000007C
7C0000000000F8
7C0000000000F8
7C0000000000F8
7C0000000000F8
7C0000000000F8
3E0000000001F0
3E0000000001F0
3E0000000001F0
1F0000000003E0
1F0000000003E0
0F8000000007E0
0FC000000007C0
07C00000000FC0
07E00000001F80
03F00000003F00
01F80000007F00
01FC000000FE00
00FF000001FC00
007F800007F800
003FF0003FF000
000FFFFFFFE000
0007FFFFFF8000
0001FFFFFE0000
00007FFFF80000
000003FF800000
ENDCHAR
STARTCHAR 00F5
ENCODING 245
SWIDTH 572 0
DWIDTH 62 0
BBX 54 79 4 -2
BITMAP
0000FF0003C000
0003FFC003C000
0007FFF003C000
0007FFFE03C000
000783FF8FC000
000F00FFFF8000
000F001FFF0000
000F0007FE0000
00000001FC0000
00000000000000
00000000000000
00000000000000
00000000000000
00000000000000
00000000000000
00000000000000
00000000000000
000007FF800000
00003FFFF80000
0001FFFFFE0000
0007FFFFFF8000
000FFFFFFFC000
003FF0003FF000
007F800007F800
00FF000001FC00
01FC000000FE00
01F80000007F00
03F00000003F00
07E00000001F80
07C00000000FC0
0F8000000007C0
0F8000000007E0
1F0000000003E0
1F0000000003E0
3E0000000001F0
3E0000000001F0
3E0000000001F0
7C0000000000F8
7C0000000000F8
7C0000000000F8
7C0000000000F8
7C000000000078
7C00000000007C
F800000000007C
F800000000007C
F800000000007C
F800000000007C
F800000000007C
F800000000007C
F800000000007C
F800000000007C
F800000000007C
7800000000007C
7C00000000007C
7C0000000000F8
7C0000000000F8
7C0000000000F8
7C0000000000F8
7C0000000000F8
3E0000000001F0
3E0000000001F0
3E0000000001F0
1F0000000003E0
1F0000000003E0
0F8000000007E0
0FC000000007C0
07C00000000FC0
07E00000001F80
03F00000003F00
01F80000007F00
01FC000000FE00
00FF000001FC00
007F800007F800
003FF0003FF000
000FFFFFFFE000
0007FFFFFF8000
0001FFFFFE0000
00007FFFF80000
000003FF800000
ENDCHAR
STARTCHAR 00F6
ENCODING 246
SWIDTH 572 0
DWIDTH 62 0
BBX 54 80 4 -2
BITMAP
0003F8003F0000
0003F8003F0000
0003F8003F0000
0003F8003F0000
0003F8003F0000
0003F8003F0000
0003F8003F0000
00000000000000
00000000000000
00000000000000
00000000000000
00000000000000
00000000000000
00000000000000
00000000000000
00000000000000
00000000000000
00000000000000
000007FF800000
00003FFFF80000
0001FFFFFE0000
0007FFFFFF8000
000FFFFFFFC000
003FF0003FF000
007F800007F800
00FF000001FC00
01FC000000FE00
01F80000007F00
03F00000003F00
07E00000001F80
07C00000000FC0
0F8000000007C0
0F8000000007E0
1F0000000003E0
1F0000000003E0
3E0000000001F0
3E0000000001F0
3E0000000001F0
7C0000000000F8
7C0000000000F8
7C0000000000F8
7C0000000000F8
7C000000000078
7C00000000007C
F800000000007C
F800000000007C
F800000000007C
F800000000007C
F800000000007C
F800000000007C
F800000000007C
F800000000007C
F800000000007C
7800000000007C
7C00000000007C
7C0000000000F8
7C0000000000F8
7C0000000000F8
7C0000000000F8
7C0000000000F8
3E0000000001F0
3E0000000001F0
3E0000000001F0
1F0000000003E0
1F0000000003E0
0F8000000007E0
0FC000000007C0
07C00000000FC0
07E00000001F80
03F00000003F00
01F80000007F00
01FC000000FE00
00FF000001FC00
007F800007F800
003FF0003FF000
000FFFFFFFE000
0007FFFFFF8000
0001FFFFFE0000
00007FFFF80000
000003FF800000
ENDCHAR
STARTCHAR 00F7
ENCODING 247
SWIDTH 544 0
DWIDTH 59 0
BBX 46 34 6 22
BITMAP
00000FE00000
00000FE00000
00000FE00000
00000FE00000
00000FE00000
00000FE00000
00000FE00000
000000000000
000000000000
000000000000
000000000000
000000000000
000000000000
000000000000
FFFFFFFFFFFC
FFFFFFFFFFFC
FFFFFFFFFFFC
FFFFFFFFFFFC
FFFFFFFFFFFC
000000000000
000000000000
000000000000
000000000000
000000000000
000000000000
000000000000
000000000000
00000FE00000
00000FE00000
00000FE00000
00000FE00000
00000FE00000
00000FE00000
00000FE00000
ENDCHAR
STARTCHAR 00F8
ENCODING 248
SWIDTH 572 0
DWIDTH 62 0
BBX 58 62 2 -2
BITMAP
000001FFE0000000
00000FFFFE000100
00007FFFFF800380
0001FFFFFFE007C0
0003FFFFFFF80FC0
000FFC000FFC1F80
001FE00001FE3F00
003FC000007F7E00
007F0000003FFC00
00FE0000001FF800
00FC0000000FF000
01F800000007E000
01F00000000FF000
03E00000001FF000
07E00000003FF800
07C00000007FF800
07C0000000FEFC00
0F80000001FC7C00
0F80000003F87C00
0F80000007F07E00
1F0000000FE03E00
1F0000001FC03E00
1F0000003F803E00
1F0000007F003E00
1F000000FE001E00
1E000001FC001F00
3E000003F8001F00
3E000007F0001F00
3E00000FE0001F00
3E00001FC0001F00
3E00003F80001F00
3E00007F00001F00
3E0000FE00001F00
3E0001FC00001F00
3E0003F800001F00
1E0007F000001F00
1F000FE000001E00
1F001FC000003E00
1F003F8000003E00
1F007F0000003E00
1F00FE0000003E00
0F81FC0000003E00
0F83F80000007C00
0F87F00000007C00
0FCFE00000007C00
07DFC0000000F800
07FF80000000F800
03FF00000001F800
03FE00000001F000
01FC00000003F000
03F800000007E000
07FC0000000FC000
0FFE0000001FC000
1FFF0000003F8000
3FBFC000007F0000
7F1FE00001FE0000
FC07FC000FFC0000
F803FFFFFFF80000
7001FFFFFFE00000
20007FFFFF800000
00000FFFFE000000
000000FFE0000000
ENDCHAR
ENDFONT
